<svg width="18" height="17" viewBox="0 0 18 17" fill="none" xmlns="http://www.w3.org/2000/svg">
<path d="M16.7254 13.5426H1.06706C0.701234 13.5426 0.403564 13.2451 0.403564 12.8791V4.12107C0.403564 3.75511 0.701234 3.45758 1.06706 3.45758H16.7254C17.0914 3.45758 17.3889 3.75511 17.3889 4.12107V12.8791C17.3889 13.2451 17.0914 13.5426 16.7254 13.5426ZM1.06706 3.72296C0.847564 3.72296 0.668982 3.90151 0.668982 4.12107V12.8791C0.668982 13.0986 0.847564 13.2772 1.06706 13.2772H16.7254C16.9449 13.2772 17.1235 13.0986 17.1235 12.8791V4.12107C17.1235 3.90154 16.9449 3.72296 16.7254 3.72296H1.06706ZM2.03562 14.9279C1.90864 14.9279 1.78397 14.8909 1.67444 14.8196C1.52542 14.7224 1.42346 14.5736 1.38716 14.4005L1.26873 13.8352C1.26515 13.8182 1.26496 13.8006 1.26818 13.7835C1.27139 13.7663 1.27796 13.75 1.28749 13.7354C1.29702 13.7208 1.30934 13.7083 1.32373 13.6985C1.33812 13.6886 1.35431 13.6817 1.37136 13.6782C1.44241 13.6616 1.51355 13.7093 1.52841 13.7808L1.64687 14.3461C1.66864 14.4498 1.72992 14.5389 1.81935 14.5972C1.90903 14.6558 2.01502 14.6755 2.11804 14.6537L6.83371 13.6657C6.90475 13.6497 6.97589 13.6966 6.99075 13.7684C6.99434 13.7854 6.99454 13.803 6.99132 13.8201C6.98811 13.8373 6.98154 13.8536 6.97201 13.8682C6.96248 13.8828 6.95016 13.8953 6.93577 13.9052C6.92137 13.915 6.90518 13.9219 6.88812 13.9254L2.17273 14.9134C2.12765 14.923 2.0817 14.9278 2.03562 14.9279ZM10.9925 3.32488C10.962 3.32485 10.9325 3.31434 10.9089 3.29514C10.8853 3.27593 10.8691 3.24919 10.8628 3.2194C10.8593 3.20235 10.8591 3.18475 10.8623 3.16763C10.8655 3.1505 10.8721 3.13418 10.8816 3.1196C10.8912 3.10501 10.9035 3.09245 10.9179 3.08263C10.9323 3.0728 10.9485 3.06591 10.9655 3.06235L15.6206 2.08656C15.9793 2.01114 16.3305 2.24181 16.4059 2.59974L16.5243 3.16498C16.5279 3.18203 16.5281 3.19962 16.5248 3.21674C16.5216 3.23387 16.5151 3.25019 16.5055 3.26477C16.496 3.27936 16.4837 3.29193 16.4693 3.30175C16.4549 3.31157 16.4387 3.31847 16.4217 3.32203C16.3512 3.33809 16.2794 3.29117 16.2646 3.2194L16.1462 2.65412C16.1011 2.43927 15.8903 2.30217 15.675 2.34623L11.0199 3.32203C11.0109 3.324 11.0017 3.32495 10.9925 3.32488Z" fill="black"/>
<path d="M16.7254 13.5425H1.06706C0.701234 13.5425 0.403564 13.245 0.403564 12.879V4.12093C0.403564 3.75497 0.701234 3.45744 1.06706 3.45744H16.7254C17.0914 3.45744 17.3889 3.75497 17.3889 4.12093V12.879C17.3889 13.245 17.0914 13.5425 16.7254 13.5425ZM1.06706 3.72282C0.847564 3.72282 0.668982 3.90137 0.668982 4.12093V12.879C0.668982 13.0985 0.847564 13.2771 1.06706 13.2771H16.7254C16.9449 13.2771 17.1235 13.0985 17.1235 12.879V4.12093C17.1235 3.9014 16.9449 3.72282 16.7254 3.72282H1.06706ZM4.01973 16.5917C3.96183 16.5917 3.90336 16.5841 3.8457 16.5686C3.67398 16.5227 3.53094 16.4131 3.44281 16.2602L2.83114 15.2007C2.82242 15.1856 2.81677 15.1689 2.81449 15.1517C2.81221 15.1344 2.81337 15.1168 2.81788 15.1C2.8224 15.0832 2.83019 15.0674 2.8408 15.0536C2.85142 15.0398 2.86466 15.0282 2.87975 15.0195C2.94283 14.9824 3.02436 15.0045 3.06102 15.068L3.67269 16.1275C3.72541 16.219 3.81135 16.2845 3.91451 16.3123C4.01728 16.3398 4.12472 16.3263 4.2166 16.2731L8.68582 13.693C8.74893 13.6557 8.83019 13.678 8.86709 13.7415C8.87581 13.7566 8.88147 13.7732 8.88375 13.7905C8.88603 13.8078 8.88488 13.8253 8.88037 13.8421C8.87585 13.859 8.86807 13.8747 8.85746 13.8886C8.84684 13.9024 8.83361 13.914 8.81851 13.9227L4.34929 16.503C4.24918 16.5611 4.13548 16.5917 4.01973 16.5917ZM9.04046 3.32474C9.01715 3.32475 8.99425 3.31863 8.97405 3.30698C8.95386 3.29533 8.93709 3.27857 8.92542 3.25838C8.9167 3.2433 8.91104 3.22664 8.90876 3.20937C8.90648 3.1921 8.90763 3.17454 8.91215 3.15771C8.91666 3.14089 8.92445 3.12511 8.93507 3.1113C8.94569 3.09749 8.95893 3.0859 8.97403 3.07721L13.4432 0.496866C13.5959 0.408505 13.7739 0.385444 13.9466 0.431035C14.1181 0.477157 14.2612 0.586556 14.3493 0.739455L14.9601 1.7982C14.9689 1.81327 14.9746 1.82991 14.9769 1.84718C14.9792 1.86444 14.978 1.88199 14.9735 1.89882C14.969 1.91565 14.9613 1.93143 14.9507 1.94524C14.9401 1.95906 14.9268 1.97065 14.9117 1.97934C14.8967 1.98807 14.88 1.99374 14.8627 1.99604C14.8455 1.99833 14.8279 1.99719 14.8111 1.99269C14.7943 1.98819 14.7785 1.98042 14.7647 1.96981C14.7508 1.95921 14.7392 1.94599 14.7305 1.9309L14.1194 0.87218C14.0665 0.780666 13.9807 0.715133 13.8779 0.687394C13.7739 0.660185 13.6669 0.673657 13.5759 0.726548L9.10669 3.30686C9.0866 3.3186 9.06374 3.32477 9.04046 3.32474Z" fill="black"/>
<path d="M16.7254 5.31519H1.06702C1.04959 5.3152 1.03233 5.31177 1.01623 5.30511C1.00013 5.29844 0.985495 5.28867 0.973171 5.27634C0.960848 5.26402 0.951074 5.24939 0.944409 5.23329C0.937744 5.21718 0.934317 5.19992 0.934326 5.1825C0.934317 5.16507 0.937744 5.14781 0.944409 5.13171C0.951074 5.1156 0.960848 5.10097 0.973171 5.08865C0.985495 5.07633 1.00013 5.06655 1.01623 5.05989C1.03233 5.05322 1.04959 5.0498 1.06702 5.0498H16.7254C16.7428 5.0498 16.7601 5.05323 16.7762 5.0599C16.7923 5.06656 16.8069 5.07634 16.8192 5.08866C16.8315 5.10098 16.8413 5.11561 16.848 5.13172C16.8546 5.14782 16.8581 5.16507 16.858 5.1825C16.8581 5.19992 16.8546 5.21718 16.848 5.23328C16.8413 5.24939 16.8315 5.26402 16.8192 5.27634C16.8069 5.28867 16.7923 5.29844 16.7762 5.30511C16.7601 5.31177 16.7428 5.3152 16.7254 5.31519ZM16.7254 7.17298H1.06702C1.04959 7.17299 1.03233 7.16956 1.01622 7.16289C1.00012 7.15622 0.985483 7.14645 0.97316 7.13412C0.960836 7.12179 0.951063 7.10716 0.944399 7.09105C0.937736 7.07495 0.934313 7.05768 0.934326 7.04025C0.934317 7.02282 0.937744 7.00557 0.944409 6.98946C0.951074 6.97336 0.960848 6.95873 0.973171 6.94641C0.985495 6.93408 1.00013 6.92431 1.01623 6.91764C1.03233 6.91098 1.04959 6.90755 1.06702 6.90756H16.7254C16.7428 6.90756 16.7601 6.91099 16.7762 6.91765C16.7923 6.92432 16.8069 6.93409 16.8192 6.94642C16.8315 6.95874 16.8413 6.97337 16.848 6.98947C16.8546 7.00557 16.8581 7.02283 16.858 7.04025C16.858 7.11362 16.7987 7.17298 16.7254 7.17298ZM1.59782 6.58696C1.57652 6.587 1.55553 6.5819 1.53662 6.57211C1.51771 6.56231 1.50144 6.54811 1.48919 6.53069C1.47693 6.51328 1.46905 6.49317 1.46622 6.47206C1.46338 6.45095 1.46567 6.42948 1.47289 6.40944L1.73828 5.66847C1.76303 5.59929 1.83908 5.56428 1.9079 5.58837C1.92432 5.59423 1.93943 5.60328 1.95236 5.61499C1.96528 5.6267 1.97577 5.64084 1.98322 5.65661C1.99067 5.67238 1.99493 5.68946 1.99577 5.70688C1.99661 5.7243 1.994 5.74172 1.9881 5.75813L1.72271 6.49913C1.71348 6.52486 1.69653 6.5471 1.67417 6.56282C1.65182 6.57854 1.62515 6.58698 1.59782 6.58696ZM2.39404 6.58696C2.37274 6.587 2.35175 6.5819 2.33284 6.57211C2.31393 6.56231 2.29766 6.54811 2.28541 6.53069C2.27315 6.51328 2.26527 6.49317 2.26243 6.47206C2.2596 6.45095 2.26189 6.42948 2.26911 6.40944L2.53453 5.66847C2.55928 5.59929 2.63547 5.56428 2.70415 5.58837C2.72057 5.59424 2.73568 5.60328 2.7486 5.61499C2.76152 5.6267 2.77201 5.64085 2.77946 5.65662C2.78691 5.67238 2.79117 5.68946 2.79201 5.70688C2.79285 5.7243 2.79025 5.74172 2.78435 5.75813L2.51897 6.49913C2.50971 6.52485 2.49275 6.54708 2.47039 6.5628C2.44803 6.57852 2.42137 6.58696 2.39404 6.58696ZM3.18996 6.58696C3.16866 6.587 3.14767 6.5819 3.12876 6.57211C3.10985 6.56231 3.09358 6.54811 3.08133 6.53069C3.06907 6.51328 3.06119 6.49317 3.05836 6.47206C3.05552 6.45095 3.05781 6.42948 3.06503 6.40944L3.33045 5.66847C3.35507 5.59929 3.43125 5.56428 3.50007 5.58837C3.51649 5.59424 3.5316 5.60328 3.54452 5.61499C3.55744 5.6267 3.56793 5.64085 3.57538 5.65662C3.58283 5.67238 3.58709 5.68946 3.58793 5.70688C3.58877 5.7243 3.58617 5.74172 3.58027 5.75813L3.31489 6.49913C3.30563 6.52485 3.28867 6.54708 3.26631 6.5628C3.24395 6.57852 3.21729 6.58696 3.18996 6.58696ZM3.98588 6.58696C3.96459 6.58699 3.9436 6.58189 3.9247 6.57209C3.90579 6.5623 3.88952 6.54809 3.87727 6.53068C3.86501 6.51327 3.85713 6.49316 3.85429 6.47205C3.85145 6.45095 3.85374 6.42948 3.86095 6.40944L4.12637 5.66847C4.15112 5.59929 4.22704 5.56428 4.29599 5.58837C4.31242 5.59423 4.32753 5.60327 4.34046 5.61498C4.35338 5.62669 4.36387 5.64083 4.37132 5.6566C4.37877 5.67237 4.38304 5.68946 4.38387 5.70688C4.38471 5.7243 4.3821 5.74172 4.37619 5.75813L4.11081 6.49913C4.10156 6.52485 4.0846 6.54709 4.06224 6.56281C4.03988 6.57853 4.01321 6.58697 3.98588 6.58696ZM4.78207 6.58696C4.76077 6.58699 4.73979 6.58189 4.72088 6.57209C4.70198 6.5623 4.68571 6.54809 4.67345 6.53068C4.6612 6.51327 4.65332 6.49316 4.65048 6.47205C4.64764 6.45095 4.64992 6.42948 4.65714 6.40944L4.92256 5.66847C4.94718 5.59929 5.02339 5.56428 5.09218 5.58837C5.10861 5.59423 5.12372 5.60327 5.13664 5.61498C5.14957 5.62669 5.16006 5.64083 5.16751 5.6566C5.17496 5.67237 5.17922 5.68946 5.18006 5.70688C5.1809 5.7243 5.17828 5.74172 5.17238 5.75813L4.90699 6.49913C4.89775 6.52485 4.88079 6.54709 4.85843 6.56281C4.83607 6.57853 4.8094 6.58697 4.78207 6.58696ZM5.57822 6.58696C5.55693 6.58699 5.53594 6.58189 5.51703 6.57209C5.49813 6.5623 5.48186 6.54809 5.46961 6.53068C5.45735 6.51327 5.44947 6.49316 5.44663 6.47205C5.44379 6.45095 5.44608 6.42948 5.45329 6.40944L5.71871 5.66847C5.74346 5.59929 5.81915 5.56428 5.88833 5.58837C5.90476 5.59423 5.91987 5.60327 5.9328 5.61498C5.94572 5.62669 5.95621 5.64083 5.96366 5.6566C5.97111 5.67237 5.97538 5.68946 5.97621 5.70688C5.97705 5.7243 5.97444 5.74172 5.96853 5.75813L5.70311 6.49913C5.69389 6.52486 5.67693 6.54711 5.65458 6.56283C5.63222 6.57855 5.60555 6.58698 5.57822 6.58696ZM6.37417 6.58696C6.35288 6.58699 6.33189 6.58189 6.31299 6.5721C6.29408 6.5623 6.27782 6.54809 6.26556 6.53068C6.25331 6.51326 6.24543 6.49316 6.2426 6.47205C6.23976 6.45095 6.24205 6.42947 6.24928 6.40944L6.51469 5.66847C6.53958 5.59929 6.61563 5.56428 6.68432 5.58837C6.70075 5.59423 6.71586 5.60327 6.72878 5.61498C6.74171 5.62669 6.7522 5.64083 6.75966 5.6566C6.76711 5.67237 6.77138 5.68945 6.77222 5.70688C6.77306 5.7243 6.77045 5.74171 6.76455 5.75813L6.49913 6.49913C6.48987 6.52485 6.4729 6.54709 6.45054 6.56281C6.42818 6.57852 6.40151 6.58696 6.37417 6.58696ZM7.17009 6.58696C7.1488 6.58699 7.12781 6.58189 7.10891 6.5721C7.09 6.5623 7.07374 6.54809 7.06148 6.53068C7.04923 6.51326 7.04135 6.49316 7.03852 6.47205C7.03568 6.45095 7.03798 6.42947 7.0452 6.40944L7.31058 5.66847C7.33533 5.59929 7.41142 5.56428 7.4802 5.58837C7.49663 5.59423 7.51174 5.60327 7.52467 5.61498C7.5376 5.62669 7.54809 5.64083 7.55554 5.6566C7.563 5.67237 7.56727 5.68945 7.5681 5.70688C7.56894 5.7243 7.56634 5.74171 7.56044 5.75813L7.29502 6.49913C7.28577 6.52485 7.26881 6.54709 7.24645 6.56281C7.22409 6.57853 7.19742 6.58697 7.17009 6.58696ZM7.96628 6.58696C7.94498 6.58699 7.924 6.58189 7.90509 6.5721C7.88619 6.5623 7.86992 6.54809 7.85767 6.53068C7.84542 6.51326 7.83754 6.49316 7.83471 6.47205C7.83187 6.45095 7.83416 6.42947 7.84138 6.40944L8.10677 5.66847C8.13139 5.59929 8.20771 5.56428 8.27639 5.58837C8.29282 5.59423 8.30793 5.60327 8.32086 5.61498C8.33378 5.62669 8.34427 5.64083 8.35172 5.6566C8.35917 5.67237 8.36344 5.68946 8.36427 5.70688C8.36511 5.7243 8.3625 5.74172 8.35659 5.75813L8.09117 6.49913C8.08194 6.52486 8.06499 6.5471 8.04263 6.56282C8.02028 6.57854 7.99361 6.58698 7.96628 6.58696ZM8.76246 6.58696C8.74117 6.58699 8.72018 6.58189 8.70128 6.57209C8.68237 6.5623 8.66611 6.54809 8.65385 6.53068C8.6416 6.51327 8.63372 6.49316 8.63088 6.47205C8.62804 6.45095 8.63032 6.42948 8.63754 6.40944L8.90292 5.66847C8.92767 5.59929 9.00346 5.56428 9.07254 5.58837C9.08896 5.59424 9.10406 5.6033 9.11698 5.61501C9.1299 5.62672 9.14038 5.64086 9.14783 5.65662C9.15528 5.67239 9.15956 5.68947 9.1604 5.70688C9.16125 5.7243 9.15866 5.74171 9.15277 5.75813L8.88736 6.49913C8.87813 6.52486 8.86117 6.5471 8.83882 6.56282C8.81646 6.57854 8.78979 6.58698 8.76246 6.58696ZM9.55842 6.58696C9.53713 6.58697 9.51616 6.58185 9.49726 6.57205C9.47837 6.56224 9.46211 6.54804 9.44986 6.53064C9.43761 6.51323 9.42972 6.49313 9.42687 6.47204C9.42401 6.45095 9.42627 6.42948 9.43346 6.40944L9.69884 5.66847C9.72346 5.59979 9.79968 5.56455 9.86863 5.58837C9.90174 5.60028 9.92878 5.62485 9.94378 5.65668C9.95879 5.68851 9.96055 5.725 9.94866 5.75813L9.68328 6.49913C9.67404 6.52485 9.6571 6.54709 9.63475 6.56281C9.6124 6.57853 9.58574 6.58696 9.55842 6.58696ZM10.3543 6.58696C10.3395 6.58696 10.3242 6.58437 10.3094 6.5792C10.2405 6.55458 10.2048 6.47866 10.2293 6.40944L10.4948 5.66847C10.5197 5.59979 10.5956 5.56455 10.6645 5.58837C10.6809 5.59426 10.696 5.60332 10.7089 5.61503C10.7218 5.62675 10.7323 5.6409 10.7397 5.65666C10.7472 5.67242 10.7514 5.6895 10.7523 5.70691C10.7531 5.72432 10.7505 5.74172 10.7446 5.75813L10.4792 6.49913C10.47 6.52486 10.453 6.5471 10.4307 6.56282C10.4083 6.57854 10.3816 6.58697 10.3543 6.58696ZM11.1505 6.58696C11.1292 6.58697 11.1083 6.58185 11.0894 6.57205C11.0705 6.56224 11.0542 6.54804 11.042 6.53064C11.0297 6.51323 11.0218 6.49313 11.019 6.47204C11.0161 6.45095 11.0184 6.42948 11.0256 6.40944L11.2909 5.66847C11.3156 5.59979 11.3918 5.56455 11.4607 5.58837C11.4938 5.60028 11.5209 5.62485 11.5359 5.65668C11.5509 5.68851 11.5527 5.725 11.5408 5.75813L11.2754 6.49913C11.2662 6.52485 11.2492 6.54709 11.2269 6.56281C11.2045 6.57853 11.1778 6.58696 11.1505 6.58696ZM11.9467 6.58696C11.9254 6.58697 11.9044 6.58185 11.8856 6.57205C11.8667 6.56224 11.8504 6.54804 11.8382 6.53064C11.8259 6.51323 11.818 6.49313 11.8152 6.47204C11.8123 6.45095 11.8146 6.42948 11.8217 6.40944L12.0872 5.66847C12.112 5.59979 12.1877 5.56455 12.2569 5.58837C12.2733 5.59426 12.2884 5.60332 12.3013 5.61503C12.3142 5.62675 12.3247 5.6409 12.3321 5.65666C12.3396 5.67242 12.3438 5.6895 12.3447 5.70691C12.3455 5.72432 12.3429 5.74172 12.337 5.75813L12.0716 6.49913C12.0624 6.52485 12.0454 6.54709 12.0231 6.56281C12.0007 6.57853 11.974 6.58697 11.9467 6.58696ZM12.7429 6.58696C12.7216 6.58696 12.7006 6.58183 12.6817 6.57202C12.6628 6.56222 12.6466 6.54801 12.6344 6.53061C12.6221 6.51321 12.6142 6.49311 12.6114 6.47203C12.6085 6.45094 12.6108 6.42947 12.618 6.40944L12.8834 5.66847C12.9082 5.59979 12.9842 5.56455 13.0531 5.58837C13.0695 5.59426 13.0846 5.60332 13.0975 5.61503C13.1104 5.62675 13.1208 5.6409 13.1283 5.65666C13.1357 5.67242 13.14 5.6895 13.1408 5.70691C13.1417 5.72432 13.1391 5.74172 13.1332 5.75813L12.8678 6.49913C12.8585 6.52485 12.8416 6.54709 12.8192 6.56281C12.7969 6.57853 12.7702 6.58697 12.7429 6.58696ZM13.5391 6.58696C13.5178 6.58697 13.4968 6.58185 13.4779 6.57205C13.459 6.56224 13.4428 6.54804 13.4305 6.53064C13.4183 6.51323 13.4104 6.49313 13.4075 6.47204C13.4047 6.45095 13.4069 6.42948 13.4141 6.40944L13.6795 5.66847C13.7041 5.59979 13.7806 5.56455 13.8493 5.58837C13.8657 5.59426 13.8808 5.60332 13.8937 5.61503C13.9066 5.62675 13.9171 5.6409 13.9245 5.65666C13.9319 5.67242 13.9362 5.6895 13.937 5.70691C13.9379 5.72432 13.9353 5.74172 13.9294 5.75813L13.664 6.49913C13.6548 6.52485 13.6378 6.54709 13.6154 6.56281C13.5931 6.57853 13.5664 6.58697 13.5391 6.58696ZM14.3352 6.58696C14.314 6.58696 14.293 6.58183 14.2741 6.57202C14.2552 6.56222 14.239 6.54801 14.2267 6.53061C14.2145 6.51321 14.2066 6.49311 14.2037 6.47203C14.2009 6.45094 14.2032 6.42947 14.2103 6.40944L14.4757 5.66847C14.5006 5.59979 14.5763 5.56455 14.6454 5.58837C14.6619 5.59426 14.6769 5.60332 14.6898 5.61503C14.7027 5.62675 14.7132 5.6409 14.7207 5.65666C14.7281 5.67242 14.7324 5.6895 14.7332 5.70691C14.734 5.72432 14.7314 5.74172 14.7255 5.75813L14.4602 6.49913C14.4509 6.52486 14.434 6.5471 14.4116 6.56282C14.3892 6.57854 14.3626 6.58697 14.3352 6.58696ZM15.1315 6.58696C15.1102 6.58697 15.0892 6.58185 15.0703 6.57205C15.0514 6.56224 15.0351 6.54804 15.0229 6.53064C15.0106 6.51323 15.0028 6.49313 14.9999 6.47204C14.997 6.45095 14.9993 6.42948 15.0065 6.40944L15.2719 5.66847C15.2965 5.59979 15.3727 5.56455 15.4417 5.58837C15.5106 5.61299 15.5463 5.68894 15.5218 5.75813L15.2563 6.49913C15.2471 6.52485 15.2301 6.5471 15.2078 6.56282C15.1854 6.57854 15.1588 6.58697 15.1315 6.58696ZM15.9276 6.58696C15.9128 6.58696 15.8975 6.58437 15.8827 6.5792C15.8496 6.56729 15.8226 6.54272 15.8076 6.51089C15.7926 6.47905 15.7908 6.44257 15.8027 6.40944L16.0681 5.66847C16.093 5.59979 16.1687 5.56455 16.2378 5.58837C16.2542 5.59426 16.2693 5.60332 16.2822 5.61503C16.2951 5.62675 16.3056 5.6409 16.313 5.65666C16.3205 5.67242 16.3247 5.6895 16.3256 5.70691C16.3264 5.72432 16.3238 5.74172 16.3179 5.75813L16.0525 6.49913C16.0433 6.52486 16.0263 6.5471 16.004 6.56282C15.9816 6.57854 15.9549 6.58697 15.9276 6.58696ZM2.39311 11.1529C2.37246 11.1529 2.35209 11.1481 2.33362 11.1389C2.31514 11.1297 2.29908 11.1162 2.2867 11.0997C2.09647 10.8455 1.9959 10.543 1.9959 10.225C1.9959 9.42028 2.6507 8.76535 3.45558 8.76535C3.473 8.76534 3.49026 8.76877 3.50637 8.77543C3.52247 8.7821 3.5371 8.79187 3.54942 8.80419C3.56175 8.81652 3.57152 8.83115 3.57819 8.84725C3.58485 8.86336 3.58828 8.88061 3.58827 8.89804C3.58828 8.91547 3.58485 8.93273 3.57819 8.94883C3.57152 8.96493 3.56175 8.97956 3.54942 8.99189C3.5371 9.00421 3.52247 9.01398 3.50637 9.02065C3.49026 9.02732 3.473 9.03074 3.45558 9.03073C2.79699 9.03073 2.26128 9.56648 2.26128 10.225C2.26128 10.4852 2.34357 10.7328 2.49919 10.9406C2.52027 10.9688 2.5293 11.0042 2.52429 11.039C2.51928 11.0739 2.50065 11.1053 2.47248 11.1264C2.4496 11.1436 2.42174 11.1529 2.39311 11.1529ZM3.45561 11.6847C3.43818 11.6847 3.42092 11.6813 3.40481 11.6746C3.38871 11.668 3.37407 11.6582 3.36175 11.6459C3.34943 11.6335 3.33965 11.6189 3.33299 11.6028C3.32633 11.5867 3.3229 11.5694 3.32292 11.552C3.32291 11.5346 3.32633 11.5173 3.333 11.5012C3.33966 11.4851 3.34944 11.4705 3.36176 11.4581C3.37409 11.4458 3.38872 11.436 3.40482 11.4294C3.42092 11.4227 3.43818 11.4193 3.45561 11.4193C4.11419 11.4193 4.64987 10.8836 4.64987 10.225C4.64987 10.0586 4.61646 9.8977 4.55036 9.74685C4.54336 9.7309 4.53957 9.71372 4.53921 9.69631C4.53886 9.67889 4.54194 9.66157 4.54828 9.64534C4.55462 9.62912 4.5641 9.6143 4.57618 9.60174C4.58825 9.58918 4.60268 9.57913 4.61865 9.57215C4.6863 9.54312 4.76418 9.57318 4.79348 9.64057C4.87434 9.82513 4.91529 10.0218 4.91529 10.225C4.91526 11.0298 4.26049 11.6847 3.45561 11.6847Z" fill="black"/>
<path d="M3.19013 10.0922C3.16388 10.0922 3.13821 10.0844 3.11637 10.0698C3.09454 10.0553 3.07752 10.0345 3.06747 10.0103C3.05742 9.98602 3.0548 9.95933 3.05993 9.93359C3.06506 9.90784 3.07772 9.88419 3.09629 9.86564L4.68867 8.27324C4.71355 8.24835 4.7473 8.23438 4.78249 8.23438C4.81767 8.23438 4.85142 8.24835 4.87631 8.27324C4.90119 8.29812 4.91517 8.33187 4.91517 8.36706C4.91517 8.40225 4.90119 8.43599 4.87631 8.46088L3.28393 10.0533C3.27164 10.0656 3.25702 10.0754 3.24092 10.0821C3.22482 10.0888 3.20756 10.0922 3.19013 10.0922Z" fill="black"/>
<path d="M3.72133 10.6233C3.7039 10.6233 3.68664 10.6199 3.67055 10.6132C3.65445 10.6066 3.63983 10.5968 3.62752 10.5844L3.09672 10.0537C3.0844 10.0413 3.07463 10.0267 3.06796 10.0106C3.06129 9.99451 3.05786 9.97725 3.05786 9.95983C3.05786 9.94241 3.06129 9.92515 3.06796 9.90906C3.07463 9.89296 3.0844 9.87833 3.09672 9.86601C3.10904 9.85369 3.12367 9.84392 3.13977 9.83725C3.15587 9.83058 3.17312 9.82715 3.19054 9.82715C3.20797 9.82715 3.22522 9.83058 3.24132 9.83725C3.25742 9.84392 3.27204 9.85369 3.28436 9.86601L3.81516 10.3968C3.83375 10.4154 3.84641 10.439 3.85154 10.4648C3.85667 10.4905 3.85405 10.5172 3.844 10.5414C3.83395 10.5657 3.81693 10.5864 3.79509 10.601C3.77325 10.6156 3.74758 10.6233 3.72133 10.6233Z" fill="black"/>
<path d="M2.12862 12.2153C2.10237 12.2153 2.0767 12.2075 2.05486 12.1929C2.03302 12.1784 2.016 12.1576 2.00595 12.1334C1.9959 12.1091 1.99328 12.0824 1.99841 12.0567C2.00354 12.031 2.0162 12.0073 2.03478 11.9888L3.62716 10.3964C3.65203 10.3715 3.68578 10.3575 3.72096 10.3575C3.75615 10.3575 3.7899 10.3715 3.81478 10.3964C3.83966 10.4213 3.85364 10.455 3.85365 10.4902C3.85365 10.5254 3.83967 10.5591 3.8148 10.584L2.22242 12.1764C2.21012 12.1887 2.1955 12.1985 2.1794 12.2052C2.16331 12.2118 2.14605 12.2153 2.12862 12.2153ZM11.4175 9.56128H6.37493C6.3016 9.56128 6.24224 9.50195 6.24224 9.42859C6.24224 9.35523 6.3016 9.2959 6.37493 9.2959H11.4175C11.4908 9.2959 11.5501 9.35523 11.5501 9.42859C11.5501 9.50195 11.4908 9.56128 11.4175 9.56128ZM11.4175 10.3575H6.37493C6.35751 10.3575 6.34025 10.3541 6.32414 10.3474C6.30804 10.3407 6.29341 10.3309 6.28109 10.3186C6.26876 10.3063 6.25899 10.2917 6.25232 10.2756C6.24566 10.2595 6.24223 10.2422 6.24224 10.2248C6.24223 10.2073 6.24566 10.1901 6.25232 10.174C6.25899 10.1579 6.26876 10.1433 6.28109 10.1309C6.29341 10.1186 6.30804 10.1088 6.32414 10.1022C6.34025 10.0955 6.35751 10.0921 6.37493 10.0921H11.4175C11.4349 10.0921 11.4521 10.0955 11.4682 10.1022C11.4844 10.1088 11.499 10.1186 11.5113 10.1309C11.5236 10.1433 11.5334 10.1579 11.5401 10.174C11.5467 10.1901 11.5501 10.2073 11.5501 10.2248C11.5501 10.2422 11.5467 10.2595 11.54 10.2756C11.5334 10.2917 11.5236 10.3063 11.5113 10.3186C11.499 10.3309 11.4843 10.3407 11.4682 10.3474C11.4521 10.354 11.4349 10.3575 11.4175 10.3575Z" fill="black"/>
<path d="M8.76368 11.1541H6.37512C6.3577 11.1541 6.34044 11.1507 6.32433 11.144C6.30823 11.1373 6.2936 11.1276 6.28128 11.1152C6.26895 11.1029 6.25918 11.0883 6.25251 11.0722C6.24585 11.0561 6.24242 11.0388 6.24243 11.0214C6.24243 10.948 6.30179 10.8887 6.37512 10.8887H8.76368C8.78111 10.8887 8.79837 10.8921 8.81448 10.8988C8.83058 10.9054 8.84522 10.9152 8.85754 10.9275C8.86986 10.9399 8.87964 10.9545 8.8863 10.9706C8.89296 10.9867 8.89639 11.004 8.89637 11.0214C8.89639 11.0388 8.89296 11.0561 8.8863 11.0722C8.87964 11.0883 8.86986 11.1029 8.85754 11.1153C8.84521 11.1276 8.83058 11.1374 8.81448 11.144C8.79837 11.1507 8.78111 11.1541 8.76368 11.1541Z" fill="black"/>
<path d="M13.5407 10.0926C13.1747 10.0926 12.8772 9.79508 12.8772 9.42912C12.8772 9.06316 13.1747 8.76562 13.5407 8.76562C13.9066 8.76562 14.2042 9.06316 14.2042 9.42912C14.2042 9.79508 13.9066 10.0926 13.5407 10.0926ZM13.5407 9.03101C13.3212 9.03101 13.1426 9.20959 13.1426 9.42912C13.1426 9.64861 13.3212 9.82723 13.5407 9.82723C13.7602 9.82723 13.9388 9.64861 13.9388 9.42912C13.9388 9.20959 13.7602 9.03101 13.5407 9.03101Z" fill="black"/>
<path d="M15.133 11.6844C14.767 11.6844 14.4695 11.3869 14.4695 11.0209C14.4695 10.655 14.767 10.3574 15.133 10.3574C15.4989 10.3574 15.7965 10.655 15.7965 11.0209C15.7965 11.3869 15.4989 11.6844 15.133 11.6844ZM15.133 10.6228C14.9135 10.6228 14.7349 10.8014 14.7349 11.0209C14.7349 11.2404 14.9135 11.419 15.133 11.419C15.3525 11.419 15.5311 11.2404 15.5311 11.0209C15.5311 10.8014 15.3525 10.6228 15.133 10.6228Z" fill="black"/>
<path d="M13.0087 11.6839C12.9825 11.6839 12.9568 11.6761 12.935 11.6615C12.9131 11.647 12.8961 11.6262 12.8861 11.602C12.876 11.5777 12.8734 11.551 12.8785 11.5253C12.8837 11.4995 12.8963 11.4759 12.9149 11.4573L15.5675 8.80443C15.5926 8.78043 15.626 8.76721 15.6607 8.76759C15.6954 8.76796 15.7286 8.78191 15.7531 8.80644C15.7777 8.83098 15.7916 8.86414 15.792 8.89884C15.7924 8.93353 15.7792 8.967 15.7552 8.99207L13.1025 11.645C13.0902 11.6573 13.0756 11.6671 13.0595 11.6738C13.0434 11.6805 13.0262 11.6839 13.0087 11.6839Z" fill="black"/>
</svg>
