<svg width="16" height="13" viewBox="0 0 16 13" fill="none" xmlns="http://www.w3.org/2000/svg">
<path d="M16 4.93272V2.46234C16 1.62622 15.3224 0.949219 14.487 0.949219H1.513C0.6775 0.949094 0 1.62622 0 2.46234V4.93272C0.005 4.93272 0.007875 4.93109 0.01275 4.93109C0.879875 4.93109 1.58212 5.63347 1.58212 6.50034C1.58212 7.36759 0.879875 8.06984 0.01275 8.06984C0.00775 8.06984 0.00475 8.06772 0 8.06772V10.5387C0 11.3742 0.677625 12.0517 1.513 12.0517H14.487C15.3225 12.0517 15.9999 11.374 15.9999 10.5387V8.06784C15.14 8.06097 14.4446 7.36259 14.4446 6.50022C14.4446 5.63772 15.14 4.93947 16 4.93272Z" fill="#F5B146"/>
<path d="M14.4868 0.94873H8.02393V12.0515H14.4867C15.3222 12.0515 15.9996 11.3739 15.9996 10.5385V8.06748C15.1397 8.06061 14.4443 7.36223 14.4443 6.49998C14.4443 5.63736 15.1397 4.93911 15.9996 4.93223V2.46198C15.9998 1.62586 15.3222 0.94873 14.4868 0.94873Z" fill="#EF962F"/>
<path d="M14.4868 0.94873H8.02393V12.0515H14.4867C15.3222 12.0515 15.9996 11.3739 15.9996 10.5385V8.06748C15.1397 8.06061 14.4443 7.36223 14.4443 6.49998C14.4443 5.63736 15.1397 4.93911 15.9996 4.93223V2.46198C15.9998 1.62586 15.3222 0.94873 14.4868 0.94873Z" fill="#EF962F"/>
<path d="M10.9824 7.36718H8.758V6.36868H10.9824C11.4005 6.36868 11.7401 6.02943 11.7401 5.61118C11.7401 5.19293 11.4008 4.85356 10.9824 4.85356H9.451L10.4741 3.86268C10.6183 3.72281 10.7011 3.53141 10.7042 3.33056C10.7073 3.12971 10.6305 2.93583 10.4908 2.79156C10.4216 2.72007 10.3389 2.66293 10.2477 2.62339C10.1564 2.58385 10.0582 2.5627 9.95869 2.56113C9.85921 2.55956 9.7604 2.57762 9.66791 2.61426C9.57541 2.6509 9.49104 2.70541 9.41963 2.77468L8.00063 4.14943L6.58175 2.77481C6.43699 2.63751 6.24392 2.56285 6.04445 2.56705C5.84497 2.57125 5.65521 2.65396 5.51635 2.79723C5.3775 2.94049 5.30076 3.13275 5.3028 3.33226C5.30484 3.53176 5.3855 3.72241 5.52725 3.86281L6.55013 4.85368H5.01788C4.81695 4.85372 4.62427 4.93355 4.48219 5.07562C4.34012 5.2177 4.26029 5.41038 4.26025 5.61131C4.26032 5.81221 4.34017 6.00486 4.48224 6.14691C4.62431 6.28896 4.81698 6.36877 5.01788 6.36881H7.24313V7.36718H5.01788C4.81988 7.37159 4.63147 7.45334 4.493 7.59493C4.35452 7.73652 4.27698 7.9267 4.27698 8.12474C4.27698 8.32279 4.35452 8.51297 4.493 8.65456C4.63147 8.79615 4.81988 8.8779 5.01788 8.88231H7.24313V9.68093C7.2432 9.88184 7.32302 10.0745 7.46505 10.2166C7.60709 10.3587 7.79972 10.4385 8.00063 10.4387C8.20154 10.4386 8.3942 10.3587 8.53624 10.2166C8.67829 10.0745 8.7581 9.88185 8.75813 9.68093V8.88231H10.9825C11.1834 8.88227 11.3761 8.80246 11.5182 8.66042C11.6603 8.51837 11.7402 8.32572 11.7403 8.12481C11.7402 7.92386 11.6603 7.73117 11.5182 7.58911C11.376 7.44704 11.1833 7.36722 10.9824 7.36718Z" fill="#E5226B"/>
<path d="M8.02393 10.4357C8.43055 10.4227 8.75768 10.0906 8.75768 9.68068V8.88206H10.9821C11.4002 8.88206 11.7398 8.54281 11.7398 8.12443C11.7398 7.70606 11.4004 7.36681 10.9821 7.36681H8.75768V6.36881H10.9821C11.4002 6.36881 11.7398 6.02943 11.7398 5.61118C11.7398 5.19293 11.4004 4.85356 10.9821 4.85356H9.45068L10.4738 3.86268C10.618 3.72281 10.7007 3.53141 10.7038 3.33056C10.707 3.12971 10.6302 2.93583 10.4904 2.79156C10.4212 2.72007 10.3386 2.66293 10.2473 2.62339C10.156 2.58385 10.0578 2.5627 9.95836 2.56113C9.85888 2.55956 9.76007 2.57762 9.66758 2.61426C9.57508 2.6509 9.49072 2.70541 9.4193 2.77468L8.02393 4.12693V10.4357Z" fill="#C9005B"/>
</svg>
