<?xml version="1.0" encoding="UTF-8"?>
<svg version="1.1" xmlns="http://www.w3.org/2000/svg" width="48" height="48">
<path d="M0 0 C13.2 0 26.4 0 40 0 C40 1.98 40 3.96 40 6 C40.99 6.33 41.98 6.66 43 7 C42.979375 7.886875 42.95875 8.77375 42.9375 9.6875 C42.85386111 12.86058658 42.85386111 12.86058658 43.65234375 15.25390625 C44.13683782 19.08086505 42.9823463 21.66540589 41.625 25.25 C41.39039063 25.88679688 41.15578125 26.52359375 40.9140625 27.1796875 C39.17426658 31.82573342 39.17426658 31.82573342 38 33 C32.90002982 32.53709757 28.31602233 31.24956673 23.53515625 29.49609375 C22.51789711 29.13198143 22.51789711 29.13198143 21.48008728 28.76051331 C19.338592 27.99239698 17.20055701 27.21512872 15.0625 26.4375 C13.60113137 25.91149801 12.13954465 25.3861015 10.67773438 24.86132812 C7.11547326 23.58230868 3.55804917 22.29093595 0 21 C0 14.07 0 7.14 0 0 Z " fill="#35C582" transform="translate(3,8)"/>
<path d="M0 0 C1.65 0 3.3 0 5 0 C5 1.98 5 3.96 5 6 C5.99 6.33 6.98 6.66 8 7 C7.979375 7.886875 7.95875 8.77375 7.9375 9.6875 C7.85386111 12.86058658 7.85386111 12.86058658 8.65234375 15.25390625 C9.13683782 19.08086505 7.9823463 21.66540589 6.625 25.25 C6.39039063 25.88679688 6.15578125 26.52359375 5.9140625 27.1796875 C4.17426658 31.82573342 4.17426658 31.82573342 3 33 C1.33382885 33.04063832 -0.33388095 33.042721 -2 33 C-1.84152588 32.14390137 -1.68305176 31.28780273 -1.51977539 30.40576172 C-1.01152258 27.07550023 -0.79576702 23.87301055 -0.68359375 20.5078125 C-0.64169922 19.30898438 -0.59980469 18.11015625 -0.55664062 16.875 C-0.51732422 15.6375 -0.47800781 14.4 -0.4375 13.125 C-0.39431641 11.86429688 -0.35113281 10.60359375 -0.30664062 9.3046875 C-0.20090898 6.20322577 -0.09881429 3.10168855 0 0 Z " fill="#5EDFA4" transform="translate(38,8)"/>
<path d="M0 0 C2.375 1.625 2.375 1.625 4 4 C4.61195145 7.6717087 4.48706506 9.28813568 2.375 12.375 C-0.71186432 14.48706506 -2.3282913 14.61195145 -6 14 C-8.375 12.375 -8.375 12.375 -10 10 C-10.61195145 6.3282913 -10.48706506 4.71186432 -8.375 1.625 C-5.28813568 -0.48706506 -3.6717087 -0.61195145 0 0 Z " fill="#5FE1A5" transform="translate(22,11)"/>
<path d="M0 0 C7.26 0 14.52 0 22 0 C22 0.33 22 0.66 22 1 C15.565 1.495 15.565 1.495 9 2 C13.1015625 2.68359375 13.1015625 2.68359375 17.203125 3.3671875 C19.79911062 3.95454738 21.74520638 4.60368285 24 6 C24.33 6.66 24.66 7.32 25 8 C26.32 7.67 27.64 7.34 29 7 C28.67 8.65 28.34 10.3 28 12 C21.32019251 10.38665667 14.83077753 8.34058123 8.375 6 C7.66408203 5.7510498 6.95316406 5.50209961 6.22070312 5.24560547 C4.44459892 4.58668634 2.71634578 3.80179657 1 3 C0.67 2.01 0.34 1.02 0 0 Z " fill="#18854C" transform="translate(8,28)"/>
<path d="M0 0 C1.65 0 3.3 0 5 0 C5 7.26 5 14.52 5 22 C3.35 21.67 1.7 21.34 0 21 C0 14.07 0 7.14 0 0 Z " fill="#60E1A5" transform="translate(3,8)"/>
<path d="M0 0 C3.81538462 2.46153846 3.81538462 2.46153846 4.75 5.1875 C4.87375 6.0846875 4.87375 6.0846875 5 7 C2.8125 7.6875 2.8125 7.6875 0 8 C-0.7115625 7.54625 -1.423125 7.0925 -2.15625 6.625 C-5.80033621 4.54266502 -9.20888579 3.98360045 -13.3125 3.3125 C-14.05306641 3.18294922 -14.79363281 3.05339844 -15.55664062 2.91992188 C-17.36952334 2.6041294 -19.18456851 2.30079417 -21 2 C-21 1.67 -21 1.34 -21 1 C-18.06243881 0.9730499 -15.12512445 0.95318526 -12.1875 0.9375 C-11.35412109 0.92912109 -10.52074219 0.92074219 -9.66210938 0.91210938 C-8.85966797 0.90888672 -8.05722656 0.90566406 -7.23046875 0.90234375 C-6.12288208 0.89448853 -6.12288208 0.89448853 -4.99291992 0.88647461 C-3 1 -3 1 0 2 C0 1.34 0 0.68 0 0 Z " fill="#2AA86C" transform="translate(33,28)"/>
<path d="M0 0 C7.26 0 14.52 0 22 0 C22 0.33 22 0.66 22 1 C16.06 1 10.12 1 4 1 C4 1.66 4 2.32 4 3 C2.68 2.67 1.36 2.34 0 2 C0 1.34 0 0.68 0 0 Z " fill="#1F945C" transform="translate(8,28)"/>
<path d="M0 0 C1.65 0 3.3 0 5 0 C4.67 1.65 4.34 3.3 4 5 C2.68 5 1.36 5 0 5 C0 3.35 0 1.7 0 0 Z " fill="#60E2A6" transform="translate(38,29)"/>
</svg>
