<svg width="49" height="49" viewBox="0 0 49 49" fill="none" xmlns="http://www.w3.org/2000/svg">
<g clip-path="url(#clip0_2203_2787)">
<path d="M24.5 0.0957031C15.0717 0.0957031 9.26389 5.41384 9.24785 5.42277C9.24785 5.42277 9.0064 5.72417 8.96125 5.92449C8.59442 7.55283 8.25171 9.73525 8.25171 11.3278C8.25171 24.8588 19.6623 35.8251 33.1933 35.8251C38.4037 35.8251 44.2008 33.3278 48.0805 30.3252C48.1673 30.2581 48.4427 29.8068 48.4427 29.8068C48.4598 29.7024 48.9999 27.5512 48.9999 24.5956C49 11.0647 38.031 0.0957031 24.5 0.0957031Z" fill="#FEF056"/>
<path d="M33.1912 35.1326C19.6602 35.1326 8.69116 24.1636 8.69116 10.6326C8.69116 8.84409 8.88399 7.10142 9.24793 5.42188C3.61341 9.91066 0 16.8309 0 24.5948C0 30.4508 2.05454 35.8269 5.48204 40.0417L43.518 40.0422C45.8921 37.124 47.612 33.6409 48.4428 29.806C44.2576 33.1394 38.9575 35.1326 33.1912 35.1326Z" fill="#FBDE4C"/>
<path d="M41.1466 0H18.5596L16.5837 39.2579L18.5596 48.371C19.7781 48.6744 21.0326 48.8866 22.3155 49H26.6795C30.2695 48.6823 33.6501 47.5872 36.6419 45.8773L36.9558 45.2693L37.8999 45.1073C40.0217 43.7192 41.9184 42.0095 43.518 40.0434V2.37141C43.5179 1.06167 42.4562 0 41.1466 0Z" fill="#26A4C0"/>
<path d="M7.85349 0C6.54384 0 5.48218 1.06167 5.48218 2.37141V40.043C6.76934 41.6258 8.2502 43.0449 9.88853 44.264L18.5596 40.7168V37.9618L17.3453 30.5561L18.5596 29.2908V26.5358L17.7049 19.1113L18.5596 17.8647V0L7.85349 0Z" fill="#2490A9"/>
<path d="M23.8326 13.4703C22.2262 13.4168 20.9143 12.5868 20.9143 11.7301C20.9143 11.2749 21.3159 10.6056 21.8247 10.6056C22.3869 10.6056 22.842 11.3954 23.8326 11.5694V9.40083C22.6011 8.93225 21.1553 8.35665 21.1553 6.64319C21.1553 4.94308 22.4136 4.12651 23.8326 3.9257V3.5509C23.8326 3.36345 24.0468 3.18945 24.3412 3.18945C24.5956 3.18945 24.85 3.36345 24.85 3.5509V3.88554C25.6799 3.91235 27.2461 4.12651 27.2461 5.0502C27.2461 5.41165 27.0051 6.1479 26.416 6.1479C25.9743 6.1479 25.72 5.71958 24.8499 5.65262V7.60704C26.068 8.06217 27.4869 8.69139 27.4869 10.4985C27.4869 12.1584 26.416 13.1624 24.8499 13.4168V13.8051C24.8499 13.9924 24.5956 14.1665 24.3411 14.1665C24.0467 14.1665 23.8325 13.9924 23.8325 13.8051L23.8326 13.4703ZM23.9663 7.28576V5.69278C23.3639 5.81326 23.1096 6.12109 23.1096 6.44248C23.1096 6.83063 23.4577 7.0716 23.9663 7.28576ZM24.716 9.76227V11.5561C25.1712 11.4489 25.5326 11.1946 25.5326 10.7127C25.5326 10.2709 25.198 9.98979 24.716 9.76227Z" fill="#FBDE4C"/>
<path d="M29.887 7.3916H35.2057V9.50533H29.887V7.3916Z" fill="#FBDE4C"/>
<path d="M13.2336 7.3916H18.5524V9.50533H13.2336V7.3916Z" fill="#FFC344"/>
<path d="M9.88867 17.8652H18.5598V26.5363H9.88867V17.8652Z" fill="white"/>
<path d="M21.9492 21.3838H37.6614V23.0171H21.9492V21.3838Z" fill="white"/>
<path d="M9.88867 29.291H18.5598V37.9621H9.88867V29.291Z" fill="white"/>
<path d="M22.0684 32.8096H37.7805V34.4429H22.0684V32.8096Z" fill="white"/>
<path d="M9.88867 44.2629C12.442 46.1629 15.3778 47.5774 18.5598 48.3699V40.7158H9.88867V44.2629Z" fill="white"/>
<path d="M37.9001 45.107V44.2354H22.188V45.8687H36.6566C37.079 45.627 37.4937 45.3728 37.9001 45.107Z" fill="white"/>
<path d="M16.1315 25.7857L11.7346 21.389L13.7727 19.3508L16.1315 21.7096L20.3293 17.5117L22.3674 19.5498L16.1315 25.7857Z" fill="#46DC00"/>
<path d="M16.1315 37.5241L11.7346 33.1273L13.7727 31.0891L16.1315 33.4479L20.3293 29.25L22.3674 31.2881L16.1315 37.5241Z" fill="#46DC00"/>
</g>
<defs>
<clipPath id="clip0_2203_2787">
<rect width="49" height="49" fill="white"/>
</clipPath>
</defs>
</svg>
