<svg width="49" height="49" viewBox="0 0 49 49" fill="none" xmlns="http://www.w3.org/2000/svg">
<g clip-path="url(#clip0_2020_5534)">
<path d="M24.5002 0C11.4921 0 0.947021 10.5451 0.947021 23.5532L14.2406 32.3137L48.0157 24.8947C48.0406 24.4506 48.0532 24.0034 48.0532 23.5532C48.0533 10.5451 37.5082 0 24.5002 0Z" fill="#9BD069"/>
<path d="M32.5614 24.8942C29.8435 24.8942 27.6927 22.5599 27.9554 19.8546C27.9577 19.8312 27.9598 19.808 27.9619 19.785C28.0332 18.9834 28.446 18.2574 29.0818 17.764C29.5009 17.4388 29.7705 16.9304 29.7705 16.3588C29.6959 15.9112 30.0964 14.5496 28.8618 13.8567C27.92 13.3281 27.7582 12.1476 28.2629 11.3894C28.3118 11.316 28.3417 11.2411 28.3508 11.1649H28.3564C28.3564 11.1285 28.3554 11.0923 28.3537 11.0562H28.3564V7.2324C28.3564 4.92805 26.4884 3.06006 24.1841 3.06006L21.9571 3.00531C21.7768 3.0009 21.6139 2.91173 21.4946 2.77644C21.3158 2.57383 20.8971 2.43164 20.4093 2.43164C19.9214 2.43164 19.5028 2.57383 19.324 2.77644C19.2046 2.91173 19.0418 3.0009 18.8614 3.00531L16.6345 3.06006C14.3301 3.06006 12.4621 4.92805 12.4621 7.2324V11.0563H12.4649C12.4632 11.0924 12.4621 11.1286 12.4621 11.165H12.4678C12.486 11.3172 12.5857 11.4647 12.7563 11.6053V12.9262V12.9264V16.7581V19.0763C12.7563 20.9004 13.3934 22.5726 14.4553 23.8857C15.2132 24.8229 15.1566 26.1775 14.3409 27.0646C14.3242 27.0828 14.3074 27.1011 14.2906 27.1194C13.1022 28.4106 10.9876 28.0662 10.2579 26.4702C9.60758 25.0481 9.10429 23.5668 8.75125 22.0514C7.71946 17.6218 1.06528 17.9923 0.95377 23.023V23.0238C0.825382 28.8316 2.84659 34.1861 6.25638 38.3638C10.4585 43.5125 16.7683 45.5166 23.7639 45.7361C23.73 45.7352 23.7978 45.7372 23.7639 45.7361C36.5617 46.0818 47.3047 37.514 48.0142 24.8942H32.5614Z" fill="#69B76B"/>
<path d="M37.7924 47.9192H35.6286C35.1163 47.9192 34.7012 47.504 34.7012 46.9918C34.7012 46.4796 35.1163 46.0645 35.6286 46.0645H37.7924C38.3046 46.0645 38.7198 46.4796 38.7198 46.9918C38.7198 47.504 38.3046 47.9192 37.7924 47.9192Z" fill="#FFBE82"/>
<path d="M31.6807 42.4222C31.5352 41.5277 32.5867 36.0357 27.9652 31.3823V31.3868C27.2589 30.6753 26.507 30.0698 25.6262 29.5222C25.6262 29.5215 25.6262 29.5209 25.6263 29.5202C25.6164 29.5141 25.4003 29.3831 25.3903 29.3771V29.3791C23.4845 28.2517 21.2623 27.6025 18.8877 27.6025C18.6567 27.6025 18.4271 27.6087 18.1992 27.6209C16.4036 27.7169 14.7198 28.5238 13.5076 29.8519C13.4929 29.868 13.4782 29.884 13.4635 29.9001C12.3052 31.1682 11.6631 32.8238 11.6631 34.5413V43.2419C14.9258 45.3877 18.7054 46.7314 22.7325 47.0392C23.5072 47.0982 30.5743 43.3516 31.6807 42.4222Z" fill="#2490A9"/>
<path d="M18.8876 27.6025C16.5442 27.6025 14.349 28.2343 12.46 29.3343V29.3327C12.4497 29.3388 12.2806 29.4386 12.269 29.4457V29.4481C9.1238 31.3541 6.86173 34.5795 6.25757 38.3643C8.67267 41.3234 11.7832 43.6928 15.321 45.214C12.297 42.5321 11.3748 37.978 13.5102 34.2891C14.4371 32.6878 15.795 31.1952 17.7786 30.1317V30.1293C17.7903 30.1222 17.9593 30.0224 17.9696 30.0164V30.0179C19.5282 29.1102 21.2959 28.5224 23.1829 28.3444C21.8405 27.865 20.395 27.6025 18.8876 27.6025Z" fill="#096B82"/>
<path d="M18.8879 25.3467C15.6941 25.3467 13.105 27.9358 13.105 31.1296C13.105 33.2554 14.2528 35.1121 15.9617 36.1169L18.9216 33.157L21.8569 36.0923C23.5423 35.0818 24.6708 33.2377 24.6708 31.1296C24.6708 27.9358 22.0817 25.3467 18.8879 25.3467Z" fill="#096B82"/>
<path d="M18.8879 24.4189C15.6941 24.4189 13.105 27.0081 13.105 30.2018C13.105 32.3277 14.2528 34.1843 15.9617 35.1892L18.9216 32.2293L21.8569 35.1645C23.5423 34.154 24.6708 32.31 24.6708 30.2018C24.6708 27.0081 22.0817 24.4189 18.8879 24.4189Z" fill="white"/>
<path d="M18.9991 32.113H18.8511C17.4173 32.113 16.2549 30.9507 16.2549 29.5168V23.4619H21.5954V29.5168C21.5954 30.9507 20.4331 32.113 18.9991 32.113Z" fill="#FF965A"/>
<path d="M26.1691 14.0939C26.1691 11.657 24.6058 9.42871 22.1689 9.42871H15.6816C14.7848 9.42871 13.9853 9.73122 13.3323 10.2341V23.2276C13.3323 25.1234 14.5119 26.8226 16.2919 27.4749C17.1129 27.7758 17.9999 27.9401 18.9252 27.9401C23.112 27.9401 26.5061 24.546 26.5061 20.3592V17.9658L26.1691 14.0939Z" fill="#FFBE82"/>
<path d="M12.3051 11.2539C11.6589 12.0214 11.269 13.0116 11.269 14.0934V20.2836C11.269 23.5688 13.3357 26.3618 16.2282 27.4511C16.7682 27.6545 17.169 26.9327 16.7171 26.5739C14.9512 25.1715 13.819 23.006 13.819 20.5758V17.2111C13.819 15.7699 15.0475 14.643 16.4848 14.7497C17.2525 14.8068 18.0714 14.8375 18.9221 14.8375C21.917 14.8375 24.5225 14.4566 25.8764 13.8943V11.2539H12.3051Z" fill="#FF965A"/>
<path d="M26.5554 19.3439H26.5061V14.8379H26.5554C27.5098 14.8379 28.2836 15.6117 28.2836 16.5661V17.6157C28.2836 18.5701 27.5098 19.3439 26.5554 19.3439Z" fill="#FF965A"/>
<path d="M11.2199 19.3439H11.2692V14.8379H11.2199C10.2655 14.8379 9.4917 15.6117 9.4917 16.5661V17.6157C9.4917 18.5701 10.2654 19.3439 11.2199 19.3439Z" fill="#FF965A"/>
<path d="M16.2813 18.6928C15.9326 18.6928 15.6499 18.41 15.6499 18.0614V16.3345C15.6499 15.9858 15.9327 15.7031 16.2813 15.7031C16.63 15.7031 16.9127 15.9859 16.9127 16.3345V18.0614C16.9128 18.41 16.63 18.6928 16.2813 18.6928Z" fill="#FF965A"/>
<path d="M21.4378 18.6928C21.0891 18.6928 20.8064 18.41 20.8064 18.0614V16.3345C20.8064 15.9858 21.0892 15.7031 21.4378 15.7031C21.7865 15.7031 22.0692 15.9859 22.0692 16.3345V18.0614C22.0692 18.41 21.7865 18.6928 21.4378 18.6928Z" fill="#FF965A"/>
<path d="M16.2813 18.1859C15.9326 18.1859 15.6499 17.9032 15.6499 17.5545V15.8277C15.6499 15.479 15.9327 15.1963 16.2813 15.1963C16.63 15.1963 16.9127 15.479 16.9127 15.8277V17.5545C16.9128 17.9032 16.63 18.1859 16.2813 18.1859Z" fill="#373C41"/>
<path d="M21.4378 18.1859C21.0891 18.1859 20.8064 17.9032 20.8064 17.5545V15.8277C20.8064 15.479 21.0892 15.1963 21.4378 15.1963C21.7865 15.1963 22.0692 15.479 22.0692 15.8277V17.5545C22.0692 17.9032 21.7865 18.1859 21.4378 18.1859Z" fill="#373C41"/>
<path d="M17.1131 14.88H15.2718C14.923 14.88 14.6404 14.5973 14.6404 14.2486C14.6404 13.8998 14.923 13.6172 15.2718 13.6172H17.1131C17.4618 13.6172 17.7445 13.8998 17.7445 14.2486C17.7445 14.5973 17.4618 14.88 17.1131 14.88Z" fill="#783C28"/>
<path d="M22.3743 14.88H20.533C20.1843 14.88 19.9016 14.5973 19.9016 14.2486C19.9016 13.8998 20.1843 13.6172 20.533 13.6172H22.3743C22.7231 13.6172 23.0057 13.8998 23.0057 14.2486C23.0057 14.5973 22.7231 14.88 22.3743 14.88Z" fill="#783C28"/>
<path d="M21.25 21.6787H16.6003C16.4073 21.6787 16.2532 21.8471 16.2789 22.0384C16.3282 22.4042 16.4515 22.7465 16.6333 23.0497L20.1004 24.0772C20.8833 23.6928 21.4506 22.9364 21.5715 22.0384C21.5971 21.8471 21.4429 21.6787 21.25 21.6787Z" fill="#CD2846"/>
<path d="M17.9022 19.0825C17.7453 19.7093 18.0305 20.3921 18.576 20.5979C18.6858 20.6393 18.8032 20.6617 18.9252 20.6617C19.0473 20.6617 19.1647 20.6393 19.2745 20.5979C19.82 20.3921 20.1052 19.7093 19.9483 19.0825L19.4279 17.0047C19.2969 16.4815 18.5535 16.4815 18.4225 17.0047L17.9022 19.0825Z" fill="#FF965A"/>
<path d="M22.8129 10.4716C23.0463 10.0476 23.577 9.88583 24.0146 10.0925C24.0211 10.0955 24.0277 10.0986 24.0341 10.1018C24.5088 10.3289 24.8883 10.6935 25.1412 11.133H25.673C26.133 11.133 26.5059 10.7601 26.5059 10.3V8.63188C26.5059 6.74634 24.9774 5.21777 23.0918 5.21777H14.6831C14.1164 5.21854 13.6528 5.6829 13.6528 6.24957V10.1734C13.7097 10.1427 13.7671 10.1125 13.8278 10.0857C14.5688 9.75859 15.3388 10.4826 15.0928 11.2543C15.0916 11.2581 15.0903 11.262 15.0892 11.2659C14.9179 11.8094 15.3251 12.3627 15.8951 12.3627H19.6159C22.3633 12.3627 22.6578 10.7535 22.8129 10.4716Z" fill="#783C28"/>
<path d="M13.7978 8.63188C13.7978 6.74634 15.3263 5.21777 17.2119 5.21777H14.6831C12.7976 5.21777 11.269 6.74634 11.269 8.63188V14.1339V14.1341V17.9658C11.8299 17.9658 12.2844 17.5112 12.2844 16.9504V12.4668C12.2844 11.4764 12.8417 10.5637 13.7323 10.1305C13.7541 10.1199 13.7759 10.1095 13.7977 10.0995L13.7978 8.63188Z" fill="#5A2D19"/>
<path d="M25.3319 10.4898C25.2417 10.6516 25.1381 10.8049 25.0251 10.9503C25.3228 11.3805 25.4906 11.9003 25.4906 12.443V16.9512C25.4906 17.512 25.9451 17.9666 26.506 17.9666V14.0946V10.0778C26.0718 9.8958 25.5632 10.0748 25.3319 10.4898Z" fill="#5A2D19"/>
<path d="M18.424 12.3626C17.8555 12.3626 17.4466 11.8111 17.6171 11.2687C17.62 11.2591 17.6231 11.2495 17.6263 11.2399C17.878 10.4617 17.0702 9.75363 16.3286 10.0983C16.3062 10.1088 16.2836 10.1194 16.2611 10.1305C15.7303 10.3887 15.3193 10.8178 15.0727 11.3317C14.9513 11.8529 15.3488 12.3626 15.8953 12.3626H19.6159H18.424Z" fill="#A55A3C"/>
<path d="M15.8891 16.976H15.8762C15.7512 16.976 15.6499 16.8747 15.6499 16.7497V16.0319C15.6499 15.9069 15.7513 15.8057 15.8762 15.8057H15.8891C16.0142 15.8057 16.1154 15.907 16.1154 16.0319V16.7497C16.1154 16.8747 16.0142 16.976 15.8891 16.976Z" fill="white"/>
<path d="M21.0337 16.976H21.0207C20.8957 16.976 20.7944 16.8747 20.7944 16.7497V16.0319C20.7944 15.9069 20.8958 15.8057 21.0207 15.8057H21.0337C21.1587 15.8057 21.2599 15.907 21.2599 16.0319V16.7497C21.2599 16.8747 21.1586 16.976 21.0337 16.976Z" fill="white"/>
<path d="M16.6335 23.0506C17.1001 23.8289 17.9516 24.35 18.9251 24.35C19.3468 24.35 19.7455 24.2519 20.1001 24.0778C19.9476 23.1215 19.1195 22.3906 18.1203 22.3906C17.5305 22.3908 17.0004 22.6454 16.6335 23.0506Z" fill="#F5415F"/>
<path d="M20.1585 22.3897H17.6171C17.3732 22.3897 17.1755 22.192 17.1755 21.9481V21.6787H20.6V21.9481C20.6 22.192 20.4023 22.3897 20.1585 22.3897Z" fill="white"/>
<path d="M47.6589 45.0726V28.0065C47.6589 26.9544 46.806 26.1016 45.754 26.1016H39.5349L34.8528 27.7879L30.2887 26.1016H25.8591V45.0726H47.6589Z" fill="#ECD833"/>
<path d="M38.8293 26.0958V29.1931C38.8772 29.7742 38.5253 30.3949 37.7745 30.3949H30.8955C30.9208 30.5066 30.9754 30.6104 31.0556 30.6945L31.5001 31.1598C31.7511 31.4226 32.1707 31.4226 32.4217 31.1598L32.5818 30.9922C32.8328 30.7294 33.2524 30.7294 33.5034 30.9922L33.6636 31.1599C33.9147 31.4226 34.3343 31.4226 34.5853 31.1599L34.7453 30.9923C34.9963 30.7295 35.4159 30.7294 35.6669 30.9922L35.8273 31.1599C36.0784 31.4227 36.4979 31.4227 36.7489 31.1599L36.9094 30.992C37.1604 30.7292 37.5799 30.7292 37.8309 30.992L37.9916 31.16C38.2426 31.4227 38.6621 31.4227 38.9131 31.16L39.358 30.6945C39.4714 30.5759 39.5347 30.4182 39.5347 30.2541V26.0957L38.8293 26.0958Z" fill="#ECC32E"/>
<path d="M38.8 30.6633C38.8929 30.5498 38.9445 30.4076 38.9445 30.2599V26.1016H32.282V30.6634H38.8V30.6633Z" fill="white"/>
<path d="M38.5092 30.2176L38.3486 30.3856C38.0976 30.6483 37.678 30.6483 37.427 30.3856L37.2667 30.2178C37.0157 29.9551 36.5961 29.9551 36.3451 30.2178L36.185 30.3853C35.934 30.6481 35.5144 30.6481 35.2634 30.3854L35.1032 30.2177C34.8522 29.955 34.4326 29.955 34.1816 30.2177L34.0215 30.3853C33.7704 30.648 33.3508 30.648 33.0998 30.3853L32.9766 30.2564C32.6571 29.9219 32.4789 29.4772 32.4789 29.0148V26.1016H30.2893V30.26C30.2893 30.424 30.3525 30.5817 30.4658 30.7003L30.9102 31.1655C31.1613 31.4282 31.5808 31.4282 31.8319 31.1655L31.992 30.9979C32.243 30.7352 32.6626 30.7351 32.9136 30.9979L33.0738 31.1656C33.3249 31.4283 33.7444 31.4283 33.9955 31.1655L34.1555 30.998C34.4065 30.7352 34.8261 30.7352 35.0771 30.9979L35.2374 31.1657C35.4885 31.4284 35.9079 31.4284 36.159 31.1657L36.3196 30.9977C36.5706 30.7351 36.9901 30.735 37.2411 30.9977L37.4018 31.1658C37.6528 31.4284 38.0723 31.4284 38.3233 31.1658L38.7682 30.7004C38.8816 30.5818 38.9448 30.4241 38.9448 30.26V30.0217C38.7856 30.0282 38.6283 30.0929 38.5092 30.2176Z" fill="#D0FBFD"/>
<path d="M32.6132 40.6538H32.9175V43.5851C32.9175 43.6766 32.9916 43.7507 33.0831 43.7507H33.7922C33.8837 43.7507 33.9578 43.6766 33.9578 43.5851V40.6538H34.3488C34.5222 40.6538 34.6147 40.4496 34.5003 40.3193L33.6325 39.3303C33.5522 39.2389 33.4098 39.2389 33.3294 39.3303L32.4616 40.3193C32.3473 40.4496 32.4398 40.6538 32.6132 40.6538Z" fill="#ECC32E"/>
<path d="M35.055 40.6538H35.3593V43.5851C35.3593 43.6766 35.4334 43.7507 35.5249 43.7507H36.2341C36.3255 43.7507 36.3997 43.6766 36.3997 43.5851V40.6538H36.7907C36.964 40.6538 37.0565 40.4496 36.9422 40.3193L36.0743 39.3303C35.9941 39.2389 35.8516 39.2389 35.7712 39.3303L34.9034 40.3193C34.7892 40.4496 34.8817 40.6538 35.055 40.6538Z" fill="#ECC32E"/>
<path d="M34.1065 40.3193L33.2387 39.3303C33.1584 39.2389 33.016 39.2389 32.9356 39.3303L32.0678 40.3193C31.9535 40.4496 32.046 40.6538 32.2193 40.6538H32.5236V43.5851C32.5236 43.6766 32.5977 43.7507 32.6892 43.7507H33.3983C33.4898 43.7507 33.5639 43.6766 33.5639 43.5851V40.6538H33.9549C34.1283 40.6538 34.2208 40.4496 34.1065 40.3193Z" fill="#9D66D5"/>
<path d="M36.5484 40.3193L35.6806 39.3303C35.6003 39.2389 35.4579 39.2389 35.3775 39.3303L34.5097 40.3193C34.3954 40.4496 34.4879 40.6538 34.6612 40.6538H34.9655V43.5851C34.9655 43.6766 35.0396 43.7507 35.1311 43.7507H35.8402C35.9317 43.7507 36.0058 43.6766 36.0058 43.5851V40.6538H36.3968C36.5702 40.6538 36.6627 40.4496 36.5484 40.3193Z" fill="#9D66D5"/>
<path d="M31.9275 32.4059V38.5429H32.7752C33.165 38.5429 33.481 38.227 33.481 37.8372V33.0201C33.481 32.6304 33.1651 32.3145 32.7753 32.3145H31.9231C31.9251 32.3444 31.9275 32.3744 31.9275 32.4059Z" fill="#ECC32E"/>
<path d="M46.1629 44.6481C45.9661 44.6481 45.7708 44.5723 45.6449 44.421C45.5806 44.3439 45.4814 44.2968 45.3765 44.2968H44.8193V43.2093C44.8193 42.9733 44.9416 42.7586 45.1352 42.6236C45.4272 42.4201 45.6182 42.0819 45.6182 41.699V39.5513C45.6182 39.3917 45.4888 39.2623 45.3291 39.2623H45.1566L45.3017 40.0264C45.3101 40.0709 45.3032 40.1171 45.282 40.157L44.9424 40.7985C44.9306 40.8206 44.9232 40.8449 44.9205 40.8698L44.8798 41.2357C44.8684 41.3387 44.7279 41.36 44.6864 41.2651L44.5391 40.9276C44.5083 40.8568 44.5046 40.7771 44.5291 40.7038L44.7331 40.0915C44.7449 40.0562 44.7465 40.0181 44.7378 39.9819L44.5651 39.2623H43.6532C43.4935 39.2623 43.3641 39.3917 43.3641 39.5513V41.699C43.3641 42.2073 43.7006 42.6367 44.163 42.7771V44.2967H43.6058C43.5013 44.2967 43.402 44.3436 43.3376 44.4207C43.2113 44.5722 43.0155 44.648 42.8181 44.648H41.4304C40.9584 44.648 40.5731 44.2627 40.582 43.7908C40.582 43.7829 40.5822 43.7749 40.5822 43.7669V42.5514C40.5822 42.0635 40.9779 41.6679 41.4658 41.6679H42.2051C42.4692 41.6679 42.6621 41.4235 42.6073 41.1652C42.3761 40.0778 41.4104 39.2623 40.2542 39.2623C39.098 39.2623 38.1323 40.0779 37.9012 41.1652C37.8462 41.4235 38.0392 41.6679 38.3033 41.6679H39.9261V43.7525C39.9261 43.9629 39.7752 44.1508 39.5665 44.1776C39.3139 44.21 39.0978 44.0133 39.0978 43.7669V43.4035C39.0978 43.2322 38.9726 43.0792 38.8019 43.0629C38.6062 43.0442 38.4416 43.1976 38.4416 43.3894V43.7669C38.4416 43.8045 38.4435 43.8417 38.4473 43.8783C38.4813 44.2053 38.281 44.5208 37.9667 44.617C37.6966 44.6998 37.4159 44.6118 37.2401 44.4094C37.1794 44.3395 37.0896 44.2967 36.9925 44.2967H32.4111C32.2299 44.2967 32.083 44.4436 32.083 44.6248C32.083 44.6328 32.0848 44.6402 32.0853 44.648H27.3434C26.6434 44.648 26.0758 44.0805 26.0758 43.3804V40.0447C26.0758 39.2155 26.7481 38.5432 27.5773 38.5432H27.6073V32.3437C27.6073 32.3338 27.6085 32.3246 27.6087 32.3147H27.5773C26.7481 32.3147 26.0758 31.6424 26.0758 30.8132V26.1016H22.8418C22.1417 26.1016 21.5742 26.6691 21.5742 27.3691V45.7743C21.5742 46.4744 22.1417 47.0419 22.8418 47.0419H46.3914C47.0914 47.0419 47.659 46.4744 47.659 45.7743V44.6482H46.1629V44.6481Z" fill="#ECC32E"/>
<path d="M42.2138 41.1637C41.9826 40.0764 41.0169 39.2607 39.8607 39.2607C38.7045 39.2607 37.7389 40.0764 37.5077 41.1637C37.4527 41.422 37.6457 41.6664 37.9098 41.6664H39.5326V43.7654C39.5326 43.9938 39.3468 44.1796 39.1184 44.1796C38.89 44.1796 38.7042 43.9938 38.7042 43.7654V43.3879C38.7042 43.2067 38.5573 43.0598 38.3761 43.0598C38.1949 43.0598 38.048 43.2067 38.048 43.3879V43.7654C38.048 44.3557 38.5282 44.8359 39.1184 44.8359C39.7087 44.8359 40.1889 44.3557 40.1889 43.7654V41.6664H41.8117C42.0757 41.6665 42.2687 41.4221 42.2138 41.1637Z" fill="#ABABFF"/>
<path d="M36.5987 44.9521H32.0173C31.8361 44.9521 31.6892 44.8052 31.6892 44.624C31.6892 44.4428 31.8361 44.2959 32.0173 44.2959H36.5987C36.7799 44.2959 36.9268 44.4428 36.9268 44.624C36.9268 44.8052 36.7798 44.9521 36.5987 44.9521Z" fill="#9D66D5"/>
<path d="M44.983 44.2953H44.4258V42.7756C44.8882 42.6351 45.2247 42.2057 45.2247 41.6975V39.5498C45.2247 39.3902 45.0953 39.2607 44.9356 39.2607H44.7631L44.9082 40.0249C44.9167 40.0694 44.9097 40.1155 44.8886 40.1555L44.5489 40.797C44.5372 40.8191 44.5298 40.8434 44.527 40.8683L44.4863 41.2342C44.4749 41.3372 44.3345 41.3585 44.2929 41.2635L44.1457 40.9261C44.1148 40.8554 44.1111 40.7756 44.1356 40.7023L44.3396 40.0901C44.3514 40.0547 44.3531 40.0167 44.3443 39.9804L44.1716 39.2608H43.2597C43.1001 39.2608 42.9706 39.3903 42.9706 39.5499V41.6976C42.9706 42.2059 43.3072 42.6352 43.7695 42.7757V44.2954H43.2123C43.041 44.2954 42.888 44.4206 42.8717 44.5913C42.853 44.787 43.0064 44.9516 43.1982 44.9516H44.9971C45.189 44.9516 45.3424 44.787 45.3237 44.5913C45.3074 44.4206 45.1543 44.2953 44.983 44.2953Z" fill="#8659B9"/>
<path d="M32.8458 37.6279C32.8523 37.5802 32.8569 37.5319 32.8569 37.4824V33.375C32.8569 32.7893 32.3821 32.3145 31.7963 32.3145H25.7966V37.6279H32.8458Z" fill="#9BD069"/>
<path d="M26.7374 37.292C26.3476 37.292 26.0317 36.9761 26.0317 36.5863C26.0317 36.1788 26.3621 35.8484 26.7696 35.8484H29.8439C30.0152 35.8484 30.1683 35.7232 30.1846 35.5525C30.2033 35.3568 30.0498 35.1922 29.858 35.1922H26.3748C26.1853 35.1922 26.0317 35.0386 26.0317 34.849C26.0317 34.6595 26.1853 34.5059 26.3748 34.5059H27.9951C28.1664 34.5059 28.3194 34.3806 28.3357 34.21C28.3544 34.0143 28.201 33.8496 28.0092 33.8496H26.3748C26.1853 33.8496 26.0317 33.696 26.0317 33.5065V32.3145H23.8673C23.4776 32.3145 23.1616 32.6304 23.1616 33.0202V37.8372C23.1616 38.227 23.4776 38.543 23.8673 38.543H32.1511C32.5409 38.543 32.8568 38.2271 32.8568 37.8373V37.292H26.7374Z" fill="#69B76B"/>
<path d="M26.8694 12.2629H10.9751V8.32331C10.9751 6.08282 12.7913 4.2666 15.0318 4.2666H22.8127C25.0532 4.2666 26.8694 6.08282 26.8694 8.32331V12.2629Z" fill="#3342AA"/>
<path d="M22.6005 12.3616H15.2441V7.84284C15.2441 5.86775 16.8453 4.2666 18.8204 4.2666H19.0242C20.9993 4.2666 22.6005 5.86775 22.6005 7.84284V12.3616Z" fill="white"/>
<path d="M13.234 10.1133C11.9865 10.1133 10.9751 11.1247 10.9751 12.3722H10.9808C11.0989 13.357 14.6078 14.1472 18.9223 14.1472C23.2367 14.1472 26.7456 13.357 26.8638 12.3722H26.8694C26.8694 11.1247 25.858 10.1133 24.6105 10.1133H13.234Z" fill="#2B3890"/>
<path d="M18.9221 4.76779C19.5726 4.76779 20.1 4.51503 20.1 4.20323C20.1 3.89143 19.5726 3.63867 18.9221 3.63867C18.2715 3.63867 17.7441 3.89143 17.7441 4.20323C17.7441 4.51503 18.2715 4.76779 18.9221 4.76779Z" fill="#2B3890"/>
<path d="M29.6007 48.8462C29.1739 48.8462 28.8279 48.5003 28.8279 48.0734V45.9095C28.8279 45.4827 29.1739 45.1367 29.6007 45.1367C30.0275 45.1367 30.3735 45.4827 30.3735 45.9095V48.0734C30.3735 48.5003 30.0275 48.8462 29.6007 48.8462Z" fill="#FFBE82"/>
<path d="M31.1461 49.0011C30.6339 49.0011 30.2188 48.5859 30.2188 48.0737V45.9098C30.2188 45.3976 30.6339 44.9824 31.1461 44.9824C31.6583 44.9824 32.0735 45.3976 32.0735 45.9098V48.0737C32.0735 48.5859 31.6583 49.0011 31.1461 49.0011Z" fill="#FFBE82"/>
<path d="M32.8983 49.0011C32.3861 49.0011 31.9709 48.5859 31.9709 48.0737V45.9098C31.9709 45.3976 32.3861 44.9824 32.8983 44.9824C33.4105 44.9824 33.8257 45.3976 33.8257 45.9098V48.0737C33.8257 48.5859 33.4105 49.0011 32.8983 49.0011Z" fill="#FFBE82"/>
<path d="M34.65 49.0011C34.1378 49.0011 33.7227 48.5859 33.7227 48.0737V45.9098C33.7227 45.3976 34.1378 44.9824 34.65 44.9824C35.1622 44.9824 35.5774 45.3976 35.5774 45.9098V48.0737C35.5775 48.5859 35.1622 49.0011 34.65 49.0011Z" fill="#FFBE82"/>
<path d="M34.6499 47.5221C34.2438 47.5221 33.8996 47.2607 33.774 46.8973C33.6484 47.2607 33.3042 47.5221 32.8981 47.5221C32.492 47.5221 32.1478 47.2607 32.0222 46.8973C31.8966 47.2607 31.5524 47.5221 31.1463 47.5221C30.7587 47.5221 30.4269 47.284 30.2884 46.9462C30.1604 47.1962 29.9008 47.3675 29.6007 47.3675C29.1738 47.3675 28.8279 47.0216 28.8279 46.5947V48.074C28.8279 48.5009 29.1739 48.8468 29.6007 48.8468C29.9008 48.8468 30.1604 48.6755 30.2884 48.4255C30.4269 48.7633 30.7587 49.0014 31.1463 49.0014C31.5524 49.0014 31.8966 48.74 32.0222 48.3766C32.1478 48.74 32.492 49.0014 32.8981 49.0014C33.3042 49.0014 33.6484 48.74 33.774 48.3766C33.8996 48.74 34.2438 49.0014 34.6499 49.0014C35.1621 49.0014 35.5773 48.5862 35.5773 48.074V46.5947C35.5774 47.1069 35.1621 47.5221 34.6499 47.5221Z" fill="#FF965A"/>
</g>
<defs>
<clipPath id="clip0_2020_5534">
<rect width="49" height="49" fill="white"/>
</clipPath>
</defs>
</svg>
