<svg width="19" height="19" viewBox="0 0 19 19" fill="none" xmlns="http://www.w3.org/2000/svg">
<path d="M16.7201 4.98967L8.97622 12.7336C8.20508 13.5047 5.91597 13.8619 5.40458 13.3505C4.89319 12.8391 5.24223 10.55 6.01338 9.77885L13.7654 2.02682C13.9566 1.81826 14.188 1.6506 14.4458 1.53396C14.7036 1.41731 14.9823 1.35408 15.2652 1.34812C15.548 1.34217 15.8292 1.39358 16.0916 1.49928C16.3541 1.60498 16.5924 1.76278 16.7921 1.96311C16.9919 2.16345 17.1491 2.40218 17.254 2.6649C17.359 2.92764 17.4097 3.2089 17.403 3.49175C17.3962 3.7746 17.3322 4.05318 17.2149 4.31062C17.0975 4.56806 16.9292 4.79907 16.7201 4.98967Z" stroke="black" stroke-width="1.2176" stroke-linecap="round" stroke-linejoin="round"/>
<path d="M8.37566 3.04199H4.317C3.45585 3.04199 2.63004 3.38407 2.02112 3.99299C1.41221 4.60191 1.07007 5.42778 1.07007 6.28892V14.4062C1.07007 15.2674 1.41221 16.0933 2.02112 16.7021C2.63004 17.3111 3.45585 17.6532 4.317 17.6532H13.246C15.04 17.6532 15.6812 16.1921 15.6812 14.4062V10.3476" stroke="black" stroke-width="1.2176" stroke-linecap="round" stroke-linejoin="round"/>
</svg>
