<svg width="49" height="49" viewBox="0 0 49 49" fill="none" xmlns="http://www.w3.org/2000/svg">
<path d="M24.4597 2.10547C11.5101 2.10547 1.01245 12.6031 1.01245 25.5527C1.01245 31.3277 3.10146 36.6138 6.56323 40.6999L14.1325 46.6074C17.2485 48.1387 20.7533 49 24.4597 49C27.9313 49 31.2264 48.2447 34.1905 46.8907C31.5599 45.5202 29.7585 42.7692 29.7585 39.6035C29.7585 35.0749 33.4428 31.3906 37.9714 31.3906C41.2504 31.3906 44.0855 33.3228 45.4011 36.1078C47.0034 32.9353 47.9069 29.3498 47.9069 25.5527C47.907 12.6031 37.4093 2.10547 24.4597 2.10547Z" fill="#FFBD86"/>
<path d="M29.7581 39.6035C29.7581 35.0749 33.4424 31.3906 37.971 31.3906C39.5826 31.3906 41.086 31.8591 42.3557 32.6642V2.48828C42.3557 1.95971 41.9272 1.53125 41.3987 1.53125H32.1155V4.21094C32.1155 4.42206 31.9438 4.59375 31.7327 4.59375H17.1858C16.9747 4.59375 16.803 4.42206 16.803 4.21094V1.53125H7.51978C6.99121 1.53125 6.56274 1.95971 6.56274 2.48828V40.6999C8.64199 43.1539 11.2163 45.1745 14.1321 46.6074H33.687C31.3323 45.1618 29.7581 42.5633 29.7581 39.6035Z" fill="#22B27F"/>
<path d="M11.5805 2.48828C11.5805 1.95971 12.0089 1.53125 12.5375 1.53125H7.52026C6.9917 1.53125 6.56323 1.95971 6.56323 2.48828V40.6999C8.01227 42.4102 9.70239 43.9092 11.5805 45.1461V2.48828Z" fill="#09A76D"/>
<path d="M29.7581 39.6035C29.7581 35.0749 33.4424 31.3906 37.971 31.3906C38.4883 31.3906 38.9937 31.441 39.4846 31.5328V3.73242C39.4846 3.57384 39.3561 3.44531 39.1975 3.44531H32.1155V4.21094C32.1155 4.42206 31.9438 4.59375 31.7327 4.59375H17.1858C16.9747 4.59375 16.803 4.42206 16.803 4.21094V3.44531H9.72095C9.56237 3.44531 9.43384 3.57384 9.43384 3.73242V42.4922C9.43384 42.6508 9.56237 42.7793 9.72095 42.7793H30.3973C29.9861 41.8018 29.7581 40.7289 29.7581 39.6035Z" fill="white"/>
<path d="M13.3031 42.4922V3.73242C13.3031 3.57384 13.4317 3.44531 13.5902 3.44531H9.72144C9.56286 3.44531 9.43433 3.57384 9.43433 3.73242V42.4922C9.43433 42.6508 9.56286 42.7793 9.72144 42.7793H13.5902C13.4317 42.7793 13.3031 42.6508 13.3031 42.4922Z" fill="#F8F6F6"/>
<path d="M29.2927 4.59375V5.36895H27.3123C26.78 5.36895 26.3189 5.71443 26.1651 6.22855C25.9414 6.97523 25.2401 7.49671 24.4597 7.49671C23.6794 7.49671 22.978 6.97523 22.7544 6.22865C22.6005 5.71443 22.1394 5.36895 21.6071 5.36895H19.6267V4.59375H18.1912V5.6082C18.1912 6.26788 18.7278 6.80449 19.3875 6.80449H21.4332C21.8875 8.06557 23.1079 8.93226 24.4597 8.93226C25.8115 8.93226 27.0318 8.06557 27.4862 6.80449H29.532C30.1917 6.80449 30.7283 6.26788 30.7283 5.6082V4.59375H29.2927Z" fill="#9C9C9C"/>
<path d="M16.9112 16.5436C18.5564 16.5436 19.8901 15.21 19.8901 13.5648C19.8901 11.9196 18.5564 10.5859 16.9112 10.5859C15.2661 10.5859 13.9324 11.9196 13.9324 13.5648C13.9324 15.21 15.2661 16.5436 16.9112 16.5436Z" fill="#26A6FE"/>
<path d="M15.8871 13.5648C15.8871 12.2621 16.7237 11.1555 17.8885 10.7508C17.5823 10.6445 17.2537 10.5859 16.9112 10.5859C15.2661 10.5859 13.9324 11.9196 13.9324 13.5648C13.9324 15.2099 15.266 16.5436 16.9112 16.5436C17.2537 16.5436 17.5823 16.4851 17.8885 16.3788C16.7237 15.9741 15.8871 14.8674 15.8871 13.5648Z" fill="#0593FC"/>
<path d="M16.7094 15.1744C16.5257 15.1744 16.342 15.1043 16.2018 14.9642L14.9702 13.7327C14.6899 13.4524 14.6899 12.9979 14.9702 12.7177C15.2506 12.4373 15.7051 12.4373 15.9853 12.7176L16.7093 13.4416L17.8362 12.3147C18.1165 12.0344 18.571 12.0344 18.8512 12.3147C19.1315 12.5951 19.1315 13.0495 18.8512 13.3298L17.2168 14.9642C17.0768 15.1043 16.8931 15.1744 16.7094 15.1744Z" fill="white"/>
<path d="M34.9871 12.8467H22.45C22.0535 12.8467 21.7322 12.5254 21.7322 12.1289C21.7322 11.7324 22.0535 11.4111 22.45 11.4111H34.9871C35.3835 11.4111 35.7048 11.7324 35.7048 12.1289C35.7048 12.5254 35.3835 12.8467 34.9871 12.8467Z" fill="#9C9C9C"/>
<path d="M30.8718 15.7178H22.45C22.0535 15.7178 21.7322 15.3965 21.7322 15C21.7322 14.6035 22.0535 14.2822 22.45 14.2822H30.8718C31.2682 14.2822 31.5896 14.6035 31.5896 15C31.5896 15.3965 31.2682 15.7178 30.8718 15.7178Z" fill="#9C9C9C"/>
<path d="M16.9112 24.1413C18.5564 24.1413 19.8901 22.8076 19.8901 21.1624C19.8901 19.5173 18.5564 18.1836 16.9112 18.1836C15.2661 18.1836 13.9324 19.5173 13.9324 21.1624C13.9324 22.8076 15.2661 24.1413 16.9112 24.1413Z" fill="#26A6FE"/>
<path d="M15.8871 21.1624C15.8871 19.8597 16.7237 18.7531 17.8885 18.3485C17.5823 18.2422 17.2537 18.1836 16.9112 18.1836C15.2661 18.1836 13.9324 19.5172 13.9324 21.1624C13.9324 22.8076 15.266 24.1413 16.9112 24.1413C17.2537 24.1413 17.5823 24.0827 17.8885 23.9764C16.7237 23.5718 15.8871 22.4651 15.8871 21.1624Z" fill="#0593FC"/>
<path d="M16.7094 22.7719C16.5257 22.7719 16.3421 22.7019 16.2018 22.5618L14.9702 21.3303C14.6899 21.05 14.6899 20.5955 14.9702 20.3152C15.2506 20.0348 15.7051 20.0349 15.9853 20.3152L16.7093 21.0391L17.8362 19.9123C18.1165 19.632 18.571 19.6321 18.8512 19.9124C19.1315 20.1927 19.1315 20.6472 18.8512 20.9275L17.2168 22.5618C17.0768 22.7019 16.893 22.7719 16.7094 22.7719Z" fill="white"/>
<path d="M34.9871 20.4453H22.45C22.0535 20.4453 21.7322 20.124 21.7322 19.7275C21.7322 19.331 22.0535 19.0098 22.45 19.0098H34.9871C35.3835 19.0098 35.7048 19.331 35.7048 19.7275C35.7048 20.124 35.3835 20.4453 34.9871 20.4453Z" fill="#9C9C9C"/>
<path d="M30.8718 23.3164H22.45C22.0535 23.3164 21.7322 22.9951 21.7322 22.5986C21.7322 22.2021 22.0535 21.8809 22.45 21.8809H30.8718C31.2682 21.8809 31.5896 22.2021 31.5896 22.5986C31.5896 22.9951 31.2682 23.3164 30.8718 23.3164Z" fill="#9C9C9C"/>
<path d="M16.9112 31.739C18.5564 31.739 19.8901 30.4053 19.8901 28.7601C19.8901 27.1149 18.5564 25.7812 16.9112 25.7812C15.2661 25.7812 13.9324 27.1149 13.9324 28.7601C13.9324 30.4053 15.2661 31.739 16.9112 31.739Z" fill="#26A6FE"/>
<path d="M15.8871 28.7601C15.8871 27.4574 16.7237 26.3508 17.8885 25.9461C17.5823 25.8398 17.2537 25.7812 16.9112 25.7812C15.2661 25.7812 13.9324 27.1149 13.9324 28.7601C13.9324 30.4052 15.266 31.7389 16.9112 31.7389C17.2537 31.7389 17.5823 31.6803 17.8885 31.574C16.7237 31.1694 15.8871 30.0627 15.8871 28.7601Z" fill="#0593FC"/>
<path d="M16.7094 30.3686C16.5257 30.3686 16.3421 30.2986 16.2018 30.1585L14.9702 28.927C14.6899 28.6466 14.6899 28.1921 14.9702 27.9119C15.2506 27.6315 15.7051 27.6316 15.9853 27.9118L16.7093 28.6358L17.8362 27.509C18.1165 27.2288 18.571 27.2287 18.8512 27.5091C19.1315 27.7894 19.1315 28.2439 18.8512 28.5241L17.2168 30.1585C17.0768 30.2986 16.893 30.3686 16.7094 30.3686Z" fill="white"/>
<path d="M33.4987 26.6074H22.45C22.0535 26.6074 21.7322 26.9287 21.7322 27.3252C21.7322 27.7217 22.0535 28.043 22.45 28.043H33.2049L33.4987 26.6074Z" fill="#9C9C9C"/>
<path d="M33.7096 25.9414L33.5348 25.9511L32.5976 30.531C32.5661 30.6848 32.7485 30.7901 32.8659 30.686L36.3637 27.5843L36.2877 27.43L33.7096 25.9414Z" fill="#FFE5C2"/>
<path d="M34.7908 26.5657L33.7096 25.9414L33.5348 25.9511L32.5976 30.531C32.5661 30.6848 32.7485 30.7901 32.8659 30.686L34.1873 29.5143L34.7908 26.5657Z" fill="#FED2A4"/>
<path d="M28.0007 30.9141H22.45C22.0535 30.9141 21.7322 30.5928 21.7322 30.1963C21.7322 29.7998 22.0535 29.4785 22.45 29.4785H28.0007C28.3971 29.4785 28.7185 29.7998 28.7185 30.1963C28.7185 30.5928 28.3971 30.9141 28.0007 30.9141Z" fill="#9C9C9C"/>
<path d="M16.9112 39.3347C18.5564 39.3347 19.8901 38.001 19.8901 36.3558C19.8901 34.7106 18.5564 33.377 16.9112 33.377C15.2661 33.377 13.9324 34.7106 13.9324 36.3558C13.9324 38.001 15.2661 39.3347 16.9112 39.3347Z" fill="#D8ECFE"/>
<path d="M15.8871 36.3558C15.8871 35.0531 16.7237 33.9465 17.8885 33.5418C17.5823 33.4355 17.2537 33.377 16.9112 33.377C15.2661 33.377 13.9324 34.7106 13.9324 36.3558C13.9324 38.0009 15.266 39.3346 16.9112 39.3346C17.2537 39.3346 17.5823 39.276 17.8885 39.1697C16.7237 38.7651 15.8871 37.6584 15.8871 36.3558Z" fill="#B3DAFE"/>
<path d="M31.7923 34.2031H22.45C22.0535 34.2031 21.7322 34.5244 21.7322 34.9209C21.7322 35.3174 22.0535 35.6387 22.45 35.6387H30.7823C31.0676 35.1236 31.4072 34.6431 31.7923 34.2031Z" fill="#9C9C9C"/>
<path d="M28.0007 38.5098H22.45C22.0535 38.5098 21.7322 38.1885 21.7322 37.792C21.7322 37.3955 22.0535 37.0742 22.45 37.0742H28.0007C28.3971 37.0742 28.7185 37.3955 28.7185 37.792C28.7185 38.1885 28.3971 38.5098 28.0007 38.5098Z" fill="#9C9C9C"/>
<path d="M31.7332 4.68945H17.1863C16.922 4.68945 16.7078 4.47517 16.7078 4.21094V0.478516C16.7078 0.214279 16.922 0 17.1863 0H31.7332C31.9974 0 32.2117 0.214279 32.2117 0.478516V4.21094C32.2117 4.47517 31.9975 4.68945 31.7332 4.68945Z" fill="#0182FC"/>
<path d="M22.0121 2.77539C21.7479 2.77539 21.5336 2.56111 21.5336 2.29688V0H17.1863C16.922 0 16.7078 0.214279 16.7078 0.478516V4.21094C16.7078 4.47517 16.922 4.68945 17.1863 4.68945H31.7332C31.9974 4.68945 32.2117 4.47517 32.2117 4.21094V2.77539H22.0121Z" fill="#0172FB"/>
<path d="M47.5797 6.52285L46.1652 5.70621C45.7746 5.48074 45.2751 5.61453 45.0497 6.00509L43.1714 9.25833L43.2579 9.40255L45.8039 10.8725L46.0003 10.8916L47.8785 7.63836C48.1041 7.2478 47.9702 6.74832 47.5797 6.52285Z" fill="#9C9C9C"/>
<path d="M34.3676 29.3529L33.0003 28.5635L32.5981 30.5291C32.5666 30.6829 32.749 30.7882 32.8664 30.6841L34.3676 29.3529Z" fill="#5A5A5A"/>
<path d="M43.1704 9.25977L45.9992 10.893L36.3629 27.5831L33.5341 25.9498L43.1704 9.25977Z" fill="#FAC600"/>
<path d="M45.6808 7.80355C45.9063 7.41298 46.4058 7.27909 46.7963 7.50467L47.6659 8.00672L47.8785 7.63836C48.104 7.2478 47.9702 6.74832 47.5797 6.52285L46.1652 5.70621C45.7746 5.48074 45.2751 5.61453 45.0497 6.00509L43.1714 9.25833L43.2579 9.40255L44.3827 10.0519L45.6808 7.80355Z" fill="#838383"/>
<path d="M43.8022 11.0583L45.3791 11.9686L46.0001 10.893L43.1712 9.25977L33.5349 25.9504L34.787 26.6732L43.8022 11.0583Z" fill="#E8B800"/>
<path d="M37.9712 47.912C42.5599 47.912 46.2797 44.1922 46.2797 39.6035C46.2797 35.0148 42.5599 31.2949 37.9712 31.2949C33.3825 31.2949 29.6626 35.0148 29.6626 39.6035C29.6626 44.1922 33.3825 47.912 37.9712 47.912Z" fill="#0182FC"/>
<path d="M33.4005 39.6035C33.4005 35.6575 36.1515 32.354 39.8401 31.506C39.2394 31.3679 38.6138 31.2949 37.9712 31.2949C33.3825 31.2949 29.6626 35.0148 29.6626 39.6035C29.6626 44.1922 33.3825 47.912 37.9712 47.912C38.6138 47.912 39.2394 47.839 39.8401 47.7009C36.1515 46.853 33.4005 43.5496 33.4005 39.6035Z" fill="#0172FB"/>
<path d="M37.7331 43.0151C37.3307 43.0151 36.9284 42.8616 36.6213 42.5547L33.9232 39.8569C33.3091 39.2428 33.3091 38.2471 33.9232 37.6333C34.5373 37.019 35.533 37.0192 36.1468 37.633L37.7329 39.2191L40.2016 36.7506C40.8156 36.1367 41.8113 36.1365 42.4252 36.7508C43.0393 37.3649 43.0393 38.3606 42.4252 38.9744L38.8447 42.5547C38.5379 42.8616 38.1354 43.0151 37.7331 43.0151Z" fill="#0172FB"/>
<path d="M38.1935 42.5326C37.7912 42.5326 37.3889 42.3791 37.0817 42.0722L34.3837 39.3743C33.7696 38.7603 33.7696 37.7646 34.3837 37.1507C34.9977 36.5364 35.9934 36.5366 36.6073 37.1505L38.1933 38.7366L40.662 36.2681C41.2761 35.6542 42.2717 35.654 42.8856 36.2683C43.4997 36.8824 43.4997 37.878 42.8856 38.4919L39.3051 42.0722C38.9984 42.3791 38.5958 42.5326 38.1935 42.5326Z" fill="white"/>
</svg>
