<svg width="16" height="16" viewBox="0 0 16 16" fill="none" xmlns="http://www.w3.org/2000/svg">
<path d="M5.99995 9.5C6.44342 9.49989 6.87436 9.64718 7.225 9.91871C7.57563 10.1902 7.82608 10.5706 7.93694 11H13.4999C13.6249 10.9998 13.7454 11.0463 13.8377 11.1305C13.9301 11.2147 13.9875 11.3304 13.9988 11.4548C14.0101 11.5793 13.9744 11.7034 13.8987 11.8028C13.823 11.9023 13.7129 11.9697 13.5899 11.992L13.4999 12L7.93694 12.001C7.82645 12.4308 7.57616 12.8116 7.2255 13.0835C6.87483 13.3554 6.44369 13.503 5.99995 13.503C5.5562 13.503 5.12506 13.3554 4.77439 13.0835C4.42373 12.8116 4.17344 12.4308 4.06295 12.001L2.49995 12C2.375 12.0002 2.25449 11.9537 2.16216 11.8695C2.06983 11.7853 2.01236 11.6696 2.00107 11.5452C1.98978 11.4207 2.02549 11.2966 2.10116 11.1972C2.17684 11.0977 2.287 11.0303 2.40995 11.008L2.49995 11H4.06295C4.17382 10.5706 4.42426 10.1902 4.77489 9.91871C5.12553 9.64718 5.55647 9.49989 5.99995 9.5ZM5.99995 10.5C5.73473 10.5 5.48038 10.6054 5.29284 10.7929C5.1053 10.9804 4.99995 11.2348 4.99995 11.5C4.99995 11.7652 5.1053 12.0196 5.29284 12.2071C5.48038 12.3946 5.73473 12.5 5.99995 12.5C6.26516 12.5 6.51952 12.3946 6.70705 12.2071C6.89459 12.0196 6.99995 11.7652 6.99995 11.5C6.99995 11.2348 6.89459 10.9804 6.70705 10.7929C6.51952 10.6054 6.26516 10.5 5.99995 10.5ZM9.99994 2.5C10.4434 2.49989 10.8744 2.64718 11.225 2.91871C11.5756 3.19024 11.8261 3.5706 11.9369 4H13.4999C13.6249 3.99977 13.7454 4.04633 13.8377 4.13051C13.9301 4.21469 13.9875 4.33039 13.9988 4.45482C14.0101 4.57926 13.9744 4.70341 13.8987 4.80283C13.823 4.90225 13.7129 4.96974 13.5899 4.992L13.4999 5L11.9369 5.001C11.8264 5.43076 11.5762 5.81157 11.2255 6.08349C10.8748 6.3554 10.4437 6.50297 9.99994 6.50297C9.5562 6.50297 9.12506 6.3554 8.7744 6.08349C8.42373 5.81157 8.17344 5.43076 8.06294 5.001L2.49995 5C2.375 5.00023 2.25449 4.95367 2.16216 4.86949C2.06983 4.78531 2.01236 4.66961 2.00107 4.54518C1.98978 4.42074 2.02549 4.29659 2.10116 4.19717C2.17684 4.09775 2.287 4.03026 2.40995 4.008L2.49995 4H8.06294C8.17381 3.5706 8.42426 3.19024 8.77489 2.91871C9.12553 2.64718 9.55647 2.49989 9.99994 2.5ZM9.99994 3.5C9.73473 3.5 9.48037 3.60536 9.29284 3.79289C9.1053 3.98043 8.99995 4.23478 8.99995 4.5C8.99995 4.76522 9.1053 5.01957 9.29284 5.20711C9.48037 5.39464 9.73473 5.5 9.99994 5.5C10.2652 5.5 10.5195 5.39464 10.7071 5.20711C10.8946 5.01957 10.9999 4.76522 10.9999 4.5C10.9999 4.23478 10.8946 3.98043 10.7071 3.79289C10.5195 3.60536 10.2652 3.5 9.99994 3.5Z" fill="black"/>
</svg>
