<svg width="20" height="20" viewBox="0 0 20 20" fill="none" xmlns="http://www.w3.org/2000/svg">
<path d="M12.5515 12.4218C12.503 12.4218 12.4539 12.4135 12.4064 12.3964C12.2357 12.3352 12.1219 12.1734 12.1219 11.9921V8.77508L4.0494 4.11504C3.84389 3.99637 3.77346 3.7336 3.89209 3.52809C4.01073 3.32258 4.27346 3.25219 4.47905 3.37078L12.7665 8.15485C12.8995 8.2316 12.9814 8.37348 12.9814 8.527V10.7961L13.8894 9.69563C13.9919 9.57133 14.1554 9.51493 14.3128 9.54934L15.1212 9.72649V7.0436L7.04366 2.38297C6.83811 2.26438 6.76764 2.00161 6.88623 1.79606C7.00483 1.59051 7.2676 1.52004 7.47315 1.63864L15.7655 6.42325C15.8985 6.5 15.9804 6.64188 15.9804 6.79543V10.2606C15.9804 10.3907 15.9215 10.5138 15.8201 10.5953C15.7187 10.6769 15.5858 10.7081 15.4588 10.6803L14.3852 10.445L12.8831 12.2656C12.7999 12.3664 12.6774 12.4218 12.5515 12.4218Z" fill="#2490A9"/>
<path d="M18.6872 5.05605C18.686 5.05304 18.6849 5.04995 18.6837 5.04698C18.6813 5.04167 18.6785 5.03651 18.6759 5.03124C18.6391 4.95362 18.5801 4.88706 18.5032 4.84265L10.215 0.0575684C10.082 -0.0191895 9.9182 -0.0191895 9.78527 0.0575684L1.55757 4.8078C1.46804 4.84163 1.38918 4.9053 1.33761 4.9946C1.29105 5.07519 1.27398 5.16452 1.2823 5.25058V14.7851C1.2823 14.9387 1.36421 15.0805 1.49714 15.1573L9.78531 19.9424C9.91828 20.0192 10.082 20.0192 10.215 19.9424L18.5032 15.1573C18.6361 15.0805 18.718 14.9386 18.718 14.7851V5.26042C18.7244 5.1923 18.7147 5.12226 18.6872 5.05605ZM10.0001 0.92585L17.4343 5.21792L10.0004 9.50382L2.57445 5.21304L10.0001 0.92585ZM2.14164 5.95546L9.57043 10.2479V18.8261L2.14164 14.5371V5.95546ZM10.4298 18.8261V10.2482L17.8586 5.96523V14.5371L10.4298 18.8261Z" fill="#353535"/>
<path d="M5.00024 15.1689C4.92734 15.1689 4.85348 15.1503 4.78578 15.1112L3.01008 14.086C2.80457 13.9673 2.73414 13.7046 2.85281 13.4991C2.97149 13.2936 3.2343 13.2232 3.43977 13.3418L5.21547 14.367C5.42098 14.4857 5.49141 14.7484 5.37274 14.9539C5.29317 15.0918 5.14875 15.1689 5.00024 15.1689Z" fill="#2490A9"/>
<path d="M4.2013 12.9565C4.12841 12.9565 4.05454 12.9379 3.98685 12.8988L3.01032 12.3351C2.80482 12.2164 2.73439 11.9536 2.85306 11.7481C2.97173 11.5426 3.23454 11.4722 3.44001 11.5908L4.41653 12.1546C4.62204 12.2733 4.69247 12.5361 4.5738 12.7416C4.49423 12.8794 4.34978 12.9565 4.2013 12.9565Z" fill="#2490A9"/>
</svg>
