<svg width="20" height="20" viewBox="0 0 20 20" fill="none" xmlns="http://www.w3.org/2000/svg">
<g clip-path="url(#clip0_2006_12529)">
<path d="M0 8.1967V19.3754C0 19.7206 0.279805 20.0004 0.625 20.0004H19.375C19.7202 20.0004 20 19.7206 20 19.3754V8.1967C20 8.03111 19.8069 7.94064 19.6796 8.04666L10.4 15.7801C10.1686 15.9731 9.83172 15.9734 9.6 15.7801L0.320352 8.04662C0.193125 7.9406 0 8.03107 0 8.1967H0Z" fill="#B0B0B0"/>
<path d="M9.99999 8.37937C10.9082 7.95124 12.6348 6.86765 12.6348 5.56101C12.6348 4.45343 11.2029 3.95237 10.4754 4.80437C10.226 5.09632 9.77402 5.09644 9.5246 4.80437C8.79687 3.9521 7.36523 4.45394 7.36523 5.56101C7.36523 6.86726 9.09101 7.95085 9.99999 8.37937Z" fill="#B0B0B0"/>
<path d="M16.25 9.19914V0.625C16.25 0.279805 15.9702 0 15.625 0H4.375C4.0298 0 3.75 0.279805 3.75 0.625V9.18641C3.75 9.2443 3.77566 9.29918 3.82008 9.33629L9.87492 14.3943C9.94734 14.4548 10.0527 14.4549 10.1252 14.3945L16.1797 9.34918C16.2243 9.31207 16.25 9.25711 16.25 9.19914ZM10 3.56367C11.6167 2.44844 13.8848 3.58145 13.8848 5.56094C13.8848 8.125 10.3848 9.58047 10.2359 9.64141C10.0886 9.70141 9.91855 9.70434 9.76406 9.64141C9.61523 9.58047 6.11523 8.125 6.11523 5.56094C6.11523 3.58121 8.38352 2.44859 10 3.56367Z" fill="#B0B0B0"/>
<path d="M17.5 5.53455V7.82557C17.5 7.99115 17.6931 8.08162 17.8204 7.97561L19.195 6.8301C19.2887 6.75201 19.2887 6.60811 19.195 6.53002L17.8204 5.38451C17.6931 5.2785 17.5 5.36896 17.5 5.53455Z" fill="#B0B0B0"/>
<path d="M2.49962 5.53455V7.82557C2.49962 7.99115 2.30649 8.08162 2.17927 7.97561L0.804658 6.8301C0.710947 6.75201 0.710947 6.60811 0.804658 6.53002L2.17927 5.38451C2.30649 5.2785 2.49962 5.36896 2.49962 5.53455Z" fill="#B0B0B0"/>
</g>
<defs>
<clipPath id="clip0_2006_12529">
<rect width="20" height="20" fill="white"/>
</clipPath>
</defs>
</svg>
