<svg width="18" height="18" viewBox="0 0 18 18" fill="none" xmlns="http://www.w3.org/2000/svg">
<path d="M5.30768 12.6924H1V17.0001H5.30768V12.6924Z" stroke="black" stroke-width="1.23076" stroke-linejoin="round"/>
<path d="M17.0001 1H12.6924V5.30768H17.0001V1Z" stroke="black" stroke-width="1.23076" stroke-linejoin="round"/>
<path d="M5.30768 1H1V5.30768H5.30768V1Z" stroke="black" stroke-width="1.23076" stroke-linejoin="round"/>
<path d="M9.30777 1H8.69238V1.61538H9.30777V1Z" stroke="black" stroke-width="1.23076" stroke-linejoin="round"/>
<path d="M9.30777 4.84619H8.69238V5.46157H9.30777V4.84619Z" stroke="black" stroke-width="1.23076" stroke-linejoin="round"/>
<path d="M5.46157 8.69238H4.84619V9.30777H5.46157V8.69238Z" stroke="black" stroke-width="1.23076" stroke-linejoin="round"/>
<path d="M9.30777 12.5386H8.69238V13.154H9.30777V12.5386Z" stroke="black" stroke-width="1.23076" stroke-linejoin="round"/>
<path d="M9.30777 16.3843H8.69238V16.9997H9.30777V16.3843Z" stroke="black" stroke-width="1.23076" stroke-linejoin="round"/>
<path d="M1.61538 8.69238H1V9.30777H1.61538V8.69238Z" stroke="black" stroke-width="1.23076" stroke-linejoin="round"/>
<path d="M9.30777 8.69238H8.69238V9.30777H9.30777V8.69238Z" stroke="black" stroke-width="1.23076" stroke-linejoin="round"/>
<path d="M13.154 8.69238H12.5386V9.30777H13.154V8.69238Z" stroke="black" stroke-width="1.23076" stroke-linejoin="round"/>
<path d="M17.0001 8.69238H16.3848V9.30777H17.0001V8.69238Z" stroke="black" stroke-width="1.23076" stroke-linejoin="round"/>
<path d="M13.154 12.5386H12.5386V13.154H13.154V12.5386Z" stroke="black" stroke-width="1.23076" stroke-linejoin="round"/>
<path d="M17.0001 12.5386H16.3848V13.154H17.0001V12.5386Z" stroke="black" stroke-width="1.23076" stroke-linejoin="round"/>
<path d="M13.154 16.3843H12.5386V16.9997H13.154V16.3843Z" stroke="black" stroke-width="1.23076" stroke-linejoin="round"/>
<path d="M17.0001 16.3843H16.3848V16.9997H17.0001V16.3843Z" stroke="black" stroke-width="1.23076" stroke-linejoin="round"/>
</svg>
