<svg width="85" height="72" viewBox="0 0 85 72" fill="none" xmlns="http://www.w3.org/2000/svg">
<path opacity="0.3" d="M0.50002 36.6813L60.6135 71.3998L83.8 57.9663L23.748 23.3091L0.50002 36.6813Z" fill="black"/>
<path d="M73.3108 28.83L71.5319 29.8728L71.2252 29.6888L73.0041 28.646L73.3108 28.83Z" fill="#303033"/>
<path d="M71.532 34.3508L71.2253 34.1668V29.689L71.532 29.873V34.3508Z" fill="black"/>
<path d="M73.3108 33.3079L71.5319 34.3507V29.8729L73.3108 28.8301V33.3079Z" fill="#121214"/>
<path d="M71.3478 32.6943C71.4091 32.7557 71.4705 32.8784 71.4705 33.001C71.4705 33.0419 71.4705 33.0828 71.4705 33.1237L70.6117 33.5531L70.3663 33.1851L71.2251 32.6943C71.266 32.6943 71.3069 32.6943 71.3478 32.6943Z" fill="#1F1F1F"/>
<path d="M70.4891 33.1852C70.5505 33.2465 70.6118 33.3692 70.6118 33.4919C70.6118 33.5532 70.5505 33.6146 70.4891 33.5532C70.3665 33.4919 70.3051 33.3692 70.3051 33.3079C70.3051 33.1852 70.3665 33.1239 70.4891 33.1852Z" fill="#080808"/>
<path d="M47.4866 58.2733L53.1299 55.0223L50.5536 52.998L46.8732 53.4888L46.5051 56.4331L47.4866 58.2733Z" fill="#121214"/>
<path d="M8.53562 35.8841L15.2217 31.9583L12.8908 30.9155L8.90365 30.9769L7.86085 34.4733L8.53562 35.8841Z" fill="#121214"/>
<path d="M13.0133 33.7986C10.621 32.4491 8.7195 33.5532 8.7195 36.3135C8.7195 39.0125 10.621 42.3249 13.0133 43.6744C15.3442 45.0238 17.3071 43.9197 17.3071 41.2207C17.3071 38.5218 15.3442 35.2094 13.0133 33.7986Z" fill="#333333"/>
<path d="M16.8778 31.5904C15.7737 30.9156 14.7309 30.8543 13.9335 31.2223L10.0077 33.4919C10.8051 33.0626 11.8479 33.1852 13.0134 33.7986C15.3443 35.2095 17.3072 38.5218 17.3072 41.2208C17.3072 42.5089 16.8165 43.4291 16.1417 43.9198L20.0062 41.6502C20.7423 41.2208 21.1716 40.3007 21.1716 38.9512C21.1716 36.2522 19.2701 32.9399 16.8778 31.5904Z" fill="#474747"/>
<path d="M13.1974 33.7373C12.032 33.0626 10.9892 33.0013 10.1918 33.3693L10.0077 33.492C10.8052 33.0626 11.848 33.1853 13.0134 33.7987C15.3444 35.2095 17.3072 38.5219 17.3072 41.2209C17.3072 42.509 16.8165 43.4291 16.1418 43.9198L16.2645 43.7972C16.2645 43.7972 17.4299 43.1224 17.4299 41.0982C17.4299 38.3992 15.5284 35.0868 13.1974 33.7373Z" fill="#575757"/>
<path d="M14.4242 33.0013C13.3201 32.3266 12.2773 32.2653 11.4799 32.6946L11.2959 32.8173C12.0933 32.3266 13.1361 32.4492 14.3015 33.124C16.6324 34.4735 18.534 37.7858 18.534 40.4848C18.534 41.773 18.1046 42.6931 17.3685 43.1838H17.4299L17.5526 43.1225C17.5526 43.1225 18.718 42.4477 18.718 40.3622C18.718 37.6632 16.8165 34.3508 14.4242 33.0013Z" fill="#2B2B2B"/>
<path d="M15.7738 32.265C14.6083 31.5903 13.5656 31.4676 12.8295 31.8969L12.5841 32.0196C13.3815 31.5903 14.4243 31.6516 15.5898 32.3263C17.9207 33.6758 19.8836 36.9882 19.8836 39.7485C19.8836 41.0367 19.3929 41.9568 18.7181 42.4475L18.9021 42.3248C18.9021 42.3248 20.0676 41.6501 20.0676 39.6258C20.0676 36.9269 18.1047 33.6145 15.7738 32.265Z" fill="#2B2B2B"/>
<path d="M17.6139 39.994L17.9206 39.0126L17.1845 38.2765L17.3686 37.2337L16.3871 36.6816L16.5098 35.5775L15.4057 35.2708L15.283 34.228L14.1175 34.044L13.8722 33.3079L12.4613 33.1852L12.032 32.7559C12.032 32.7559 11.0505 33.0012 10.7438 33.1239C10.662 33.1648 10.5803 33.2057 10.4985 33.2466L10.3144 33.3693C10.4371 33.2875 10.5803 33.2261 10.7438 33.1852C10.9892 33.1239 11.9093 32.8172 11.9093 32.8172L12.3387 33.2466L13.7495 33.3693L13.9949 34.1667L15.1603 34.2894L15.2217 35.3322L16.3258 35.6389L16.2644 36.743L17.2459 37.2951L17.0005 38.3378L17.798 39.0739L17.4913 40.0554L18.0433 40.9141L17.4913 41.7729L17.798 42.3249L17.0619 43.061L16.9392 43.4291L17.0619 43.3677L17.1232 43.061L17.8593 42.3249L17.6139 41.7729L18.166 40.9141L17.6139 39.994Z" fill="#333333"/>
<path d="M18.9635 39.1966L19.3315 38.2152L18.5341 37.4791L18.7181 36.4363L17.7367 35.8842L17.8594 34.7801L16.7552 34.4734L16.6326 33.4306L15.5284 33.2466L15.2217 32.5105L13.8723 32.3879L13.4429 31.9585C13.4429 31.9585 12.4001 32.2652 12.1547 32.3265C12.032 32.3674 11.9298 32.4083 11.848 32.4492L11.664 32.5719C11.8276 32.4901 11.9707 32.4288 12.0934 32.3879C12.3388 32.3265 13.2589 32.0812 13.2589 32.0812L13.7496 32.4492L15.0991 32.5719L15.3444 33.3693L16.5099 33.492L16.5712 34.5348L17.7367 34.8415L17.614 35.9456L18.5954 36.4976L18.4114 37.5404L19.1475 38.2765L18.8408 39.258L19.3929 40.1167L18.9021 40.9755L19.1475 41.5276L18.4114 42.2636L18.3501 42.6317L18.4728 42.5703L18.5341 42.325L19.2702 41.5276L19.0248 40.9755L19.5769 40.1167L18.9635 39.1966Z" fill="#333333"/>
<path d="M20.3129 38.4606L20.6809 37.4792L19.8835 36.7431L20.0675 35.7003L19.1474 35.0869L19.2087 34.0441L18.1046 33.6761L17.9819 32.6333L16.8778 32.5106L16.6325 31.7132L15.2216 31.5905L14.7922 31.1611C14.7922 31.1611 13.7494 31.4678 13.5041 31.5292C13.3814 31.5701 13.2792 31.6314 13.1974 31.7132V31.6518L13.0134 31.7745C13.1769 31.6927 13.3201 31.6314 13.4428 31.5905C13.6881 31.5291 14.6696 31.2838 14.6696 31.2838L15.0989 31.6518L16.4484 31.8359L16.6938 32.572L17.8593 32.756L17.9819 33.7374L19.0861 34.1055L18.9634 35.2096L19.9448 35.7616L19.7608 36.7431L20.5582 37.4792L20.1902 38.4606L20.7422 39.3807L20.2515 40.1781L20.4969 40.7915L19.7608 41.5276L19.6995 41.8343L19.8221 41.773L19.8835 41.5276L20.6196 40.7302L20.3742 40.1781L20.9263 39.3807L20.3129 38.4606Z" fill="#333333"/>
<path d="M13.0134 35.2706C11.3572 34.2892 10.0077 35.0866 10.0077 36.9882C10.0077 38.9511 11.3572 41.282 13.0134 42.2634C14.6695 43.1835 16.019 42.4474 16.019 40.4846C16.019 38.583 14.6695 36.2521 13.0134 35.2706Z" fill="#1F1F1F"/>
<path d="M13.0135 35.7004C11.5413 34.8416 10.3759 35.5164 10.3759 37.2339C10.3759 38.8901 11.5413 40.9756 13.0135 41.8344C14.4857 42.6318 15.6511 41.9571 15.6511 40.3009C15.6511 38.5834 14.4857 36.5591 13.0135 35.7004Z" fill="#919191"/>
<path d="M12.0934 38.2154C12.0934 38.8288 12.5228 39.5035 13.0135 39.8102C13.5042 40.1169 13.9336 39.8715 13.9336 39.3195C13.9336 38.7061 13.5042 37.97 13.0135 37.6633C12.5228 37.3566 12.0934 37.602 12.0934 38.2154Z" fill="#707070"/>
<path d="M12.768 38.6445C12.768 38.7672 12.8907 38.9512 13.0134 39.0126C13.1361 39.1353 13.2588 39.0739 13.2588 38.8899C13.2588 38.7672 13.1361 38.5218 13.0134 38.4605C12.8907 38.3992 12.768 38.4605 12.768 38.6445Z" fill="#575757"/>
<path d="M13.3201 38.2764C13.3201 38.2764 13.3201 38.2968 13.3201 38.3377C13.1974 38.3377 13.1974 38.4604 13.3201 38.5831C13.3814 38.7057 13.5041 38.7671 13.5654 38.7058C13.5654 38.7058 13.5654 38.7057 13.5654 38.6444C13.5041 38.6444 13.4427 38.5831 13.3814 38.5217C13.32 38.4604 13.3201 38.3377 13.3201 38.2764Z" fill="#4F4F4F"/>
<path d="M13.3201 38.2764C13.3201 38.3377 13.3201 38.4604 13.3815 38.5217C13.4428 38.5831 13.5042 38.6444 13.5655 38.6444C13.6269 38.6444 13.5655 38.5217 13.5655 38.4604C13.5042 38.3377 13.4428 38.2764 13.3201 38.2764Z" fill="#2B2B2B"/>
<path d="M13.3201 39.2578C13.3201 39.2578 13.2996 39.2578 13.2587 39.2578C13.1974 39.3192 13.1974 39.4418 13.2587 39.5645C13.3814 39.6872 13.4427 39.7485 13.5654 39.6872C13.5654 39.6872 13.5654 39.6668 13.5654 39.6259C13.5041 39.6259 13.4427 39.5645 13.3814 39.4419C13.32 39.3805 13.3201 39.3192 13.3201 39.2578Z" fill="#4F4F4F"/>
<path d="M13.3201 39.2578C13.3201 39.3192 13.32 39.3805 13.3814 39.4419C13.4427 39.5645 13.5041 39.6259 13.5654 39.6259C13.5654 39.5645 13.5654 39.5032 13.5654 39.3805C13.5041 39.3192 13.3814 39.2578 13.3201 39.2578Z" fill="#2B2B2B"/>
<path d="M12.5227 38.7671C12.4818 38.7671 12.4614 38.7671 12.4614 38.7671C12.4 38.8284 12.4 38.9511 12.4614 39.0738C12.5227 39.1965 12.6454 39.2578 12.7067 39.1965C12.7067 39.1965 12.7272 39.176 12.7681 39.1352C12.7067 39.1352 12.5841 39.0738 12.5841 38.9511C12.5227 38.8898 12.5227 38.8284 12.5227 38.7671Z" fill="#4F4F4F"/>
<path d="M12.5227 38.7671C12.5227 38.8284 12.5227 38.8898 12.5841 38.9511C12.5841 39.0738 12.7067 39.1352 12.7681 39.1352C12.7681 39.0534 12.7476 38.9716 12.7067 38.8898C12.6658 38.808 12.6045 38.7671 12.5227 38.7671Z" fill="#2B2B2B"/>
<path d="M12.5227 37.7856C12.4818 37.7856 12.4614 37.7856 12.4614 37.7856C12.4 37.847 12.4 37.9697 12.4614 38.0923C12.5227 38.215 12.6454 38.2764 12.7067 38.215C12.7476 38.215 12.7681 38.1946 12.7681 38.1537C12.6863 38.1537 12.6249 38.1128 12.5841 38.031C12.5432 37.9492 12.5227 37.8674 12.5227 37.7856Z" fill="#4F4F4F"/>
<path d="M12.5227 37.7856C12.5227 37.8674 12.5432 37.9492 12.5841 38.031C12.6249 38.1128 12.6863 38.1537 12.7681 38.1537C12.7681 38.0923 12.7681 38.031 12.7067 37.9697C12.6454 37.847 12.5841 37.7856 12.5227 37.7856Z" fill="#2B2B2B"/>
<path d="M12.3386 35.3934C12.2569 35.3934 12.1751 35.3729 12.0933 35.332C12.1546 35.9454 12.5227 36.4975 13.0134 36.8042C13.3814 36.9882 13.6268 36.9269 13.8108 36.7428C13.6268 36.8042 13.4428 36.7428 13.2588 36.6202C12.8294 36.3748 12.5227 35.9454 12.3386 35.3934Z" fill="#575757"/>
<path d="M12.3388 35.3936C12.5228 35.9456 12.8295 36.375 13.2589 36.6204C13.4429 36.743 13.6269 36.8044 13.8109 36.743C13.8722 36.6817 13.9336 36.559 13.9336 36.4363C13.6473 36.1501 13.3406 35.9047 13.0135 35.7003C12.7681 35.5776 12.5432 35.4753 12.3388 35.3936Z" fill="#2B2B2B"/>
<path d="M14.1174 40.9756C13.7494 41.0983 13.6881 41.589 13.8721 42.141C14.3628 42.2024 14.7922 42.141 15.0989 41.8343C14.8126 41.9979 14.4855 42.0388 14.1174 41.957C13.9334 41.5276 13.9947 41.1596 14.1174 40.9756Z" fill="#575757"/>
<path d="M14.0562 41.9567C14.4651 42.0385 14.8127 41.9976 15.0989 41.834C15.1807 41.7931 15.2421 41.7318 15.283 41.65C14.9149 41.1593 14.4855 40.8526 14.1175 40.9753C13.9948 41.1593 13.9335 41.5273 14.0562 41.9567Z" fill="#2B2B2B"/>
<path d="M14.9764 38.0923C14.6697 38.1536 14.547 38.583 14.6697 39.0737C14.7924 39.6871 15.2217 40.2392 15.6511 40.4232C15.6511 40.3823 15.6511 40.3414 15.6511 40.3005C15.6511 40.2187 15.6511 40.1574 15.6511 40.1165C15.2831 39.8711 14.9764 39.3804 14.915 38.951C14.7924 38.583 14.8537 38.2763 14.9764 38.0923Z" fill="#575757"/>
<path d="M14.9764 38.0923C14.8537 38.2763 14.7924 38.583 14.915 38.951C14.9764 39.3804 15.2831 39.8711 15.6511 40.1165C15.5898 39.4418 15.4058 38.7057 15.0991 38.0923C15.0582 38.0923 15.0173 38.0923 14.9764 38.0923Z" fill="#2B2B2B"/>
<path d="M10.7438 39.0126C11.0505 39.81 11.6026 40.6075 12.216 41.1595C12.216 41.0982 12.2773 40.9755 12.2773 40.8528C11.7866 40.3621 11.3572 39.6874 11.0505 39.0126C10.9279 38.9513 10.8052 39.0126 10.7438 39.0126Z" fill="#575757"/>
<path d="M11.0506 39.0127C11.3573 39.6874 11.7867 40.3622 12.2774 40.8529C12.3387 40.5462 12.2161 40.1168 11.9094 39.6874C11.664 39.3194 11.3573 39.074 11.0506 39.0127Z" fill="#2B2B2B"/>
<path d="M10.6211 37.0495C10.6211 36.477 10.7438 36.0271 10.9892 35.7C10.9892 35.7 10.9687 35.6796 10.9278 35.6387C10.5598 36.0067 10.3758 36.4974 10.3758 37.2335C10.3758 37.2744 10.3758 37.3153 10.3758 37.3562C10.7438 37.6629 11.1119 37.6629 11.2959 37.4175C11.1119 37.4175 10.8665 37.4175 10.6211 37.2335C10.6211 37.1517 10.6211 37.0904 10.6211 37.0495Z" fill="#575757"/>
<path d="M10.6212 37.0497C10.6212 37.0906 10.6212 37.1519 10.6212 37.2337C10.8666 37.4177 11.112 37.4177 11.296 37.4177C11.3573 37.3564 11.3574 37.295 11.4187 37.2337C11.5414 36.8043 11.3573 36.1909 10.9893 35.7002C10.7439 36.0273 10.6212 36.4772 10.6212 37.0497Z" fill="#2B2B2B"/>
<path d="M52.1484 56.4329C49.7561 55.0221 47.8546 56.1262 47.8546 58.8865C47.8546 61.5855 49.7561 64.8978 52.1484 66.2473C54.4793 67.5968 56.3809 66.4927 56.3809 63.7937C56.3809 61.0947 54.4793 57.7824 52.1484 56.4329Z" fill="#333333"/>
<path d="M56.0128 54.1634C54.8473 53.4887 53.8046 53.4274 53.0685 53.8567L49.1427 56.1263C49.8788 55.6969 50.9829 55.7583 52.1484 56.433C54.4793 57.7825 56.3809 61.0949 56.3809 63.7938C56.3809 65.082 55.9515 66.0634 55.2154 66.4928L59.1412 64.2846C59.8159 63.7939 60.3066 62.8737 60.3066 61.5856C60.3066 58.8253 58.4051 55.5129 56.0128 54.1634Z" fill="#474747"/>
<path d="M52.3325 56.3104C51.167 55.6357 50.1242 55.5743 49.3268 56.0037L49.1428 56.1264C49.8789 55.697 50.983 55.7583 52.1484 56.4331C54.4794 57.7826 56.3809 61.0949 56.3809 63.7939C56.3809 65.082 55.9515 66.0635 55.2154 66.4929L55.3995 66.4316C55.3995 66.4316 56.5649 65.7568 56.5649 63.6712C56.5649 60.9723 54.6634 57.6599 52.3325 56.3104Z" fill="#575757"/>
<path d="M53.5592 55.5741C52.3937 54.8993 51.351 54.838 50.6149 55.2674L50.4309 55.3901C51.167 54.9607 52.2097 55.022 53.3752 55.6968C55.7675 57.0463 57.669 60.3586 57.669 63.0576C57.669 64.3457 57.2397 65.3272 56.5036 65.7565L56.6876 65.6952C56.6876 65.6952 57.853 65.0205 57.853 62.9962C57.853 60.2359 55.9515 56.9236 53.5592 55.5741Z" fill="#2B2B2B"/>
<path d="M54.9086 54.8379C53.7432 54.1632 52.7004 54.1019 51.903 54.4699L51.7189 54.5926C52.455 54.1632 53.5591 54.2245 54.7246 54.8993C57.0555 56.3101 58.9571 59.5611 58.9571 62.3214C58.9571 63.6096 58.5277 64.5297 57.7916 65.0204L57.9756 64.8977C57.9756 64.8977 59.1411 64.223 59.1411 62.1988C59.1411 59.4998 57.2396 56.1874 54.9086 54.8379Z" fill="#2B2B2B"/>
<path d="M56.7489 62.5669L57.0556 61.6468L56.2582 60.9108L56.5036 59.868L55.5221 59.2546L55.6448 58.2118L54.4794 57.8437L54.418 56.801L53.2525 56.6783L53.0072 55.8809L51.5964 55.7582L51.167 55.3901C51.167 55.3901 50.1855 55.6355 49.8788 55.6968C49.7562 55.7377 49.6539 55.7991 49.5721 55.8809L49.4495 55.9422C49.5722 55.8604 49.7153 55.7991 49.8788 55.7582C50.1242 55.6968 51.0443 55.4515 51.0443 55.4515L51.4737 55.8195L52.8845 56.0035L53.1299 56.7396L54.234 56.9236L54.3567 57.9051L55.4608 58.2731L55.3995 59.3159L56.3196 59.868L56.1355 60.9108L56.933 61.6468L56.5649 62.6283L57.1783 63.487L56.6263 64.3458L56.8716 64.9592L56.1969 65.6339L56.0742 66.002L56.1969 65.9406L56.2582 65.6953L56.9943 64.8979L56.7489 64.3458L57.301 63.487L56.7489 62.5669Z" fill="#333333"/>
<path d="M58.0985 61.7694L58.4665 60.8493L57.6691 60.1132L57.8531 59.0704L56.8717 58.457L56.9944 57.4142L55.8903 57.0462L55.7676 56.0034L54.6021 55.8807L54.3568 55.0833L52.9459 54.9606L52.5779 54.5312C52.5779 54.5312 51.5351 54.8379 51.2284 54.8993C51.1671 54.9606 51.0444 55.022 50.9831 55.022L50.799 55.1447C50.9217 55.0629 51.0648 55.0015 51.2284 54.9606C51.4738 54.8993 52.3939 54.6539 52.3939 54.6539L52.8846 55.022L54.2341 55.206L54.4794 55.9421L55.6449 56.1261L55.7062 57.1075L56.8104 57.4142L56.749 58.5797L57.7305 59.0704L57.4851 60.1132L58.2825 60.8493L57.9758 61.8308L58.5279 62.7509L57.9758 63.5483L58.2825 64.1617L57.5464 64.8978L57.4238 65.2045L57.6078 65.1431V64.8978L58.4052 64.1003L58.0985 63.5483L58.7119 62.6895L58.0985 61.7694Z" fill="#333333"/>
<path d="M59.4479 61.0335L59.8159 60.0521L59.0185 59.316L59.2025 58.2732L58.2211 57.7212L58.3438 56.6171L57.2396 56.249L57.117 55.2676L56.0128 55.0836L55.7061 54.3475L54.3566 54.1635L53.9273 53.7954C53.9273 53.7954 52.8845 54.0408 52.6391 54.1635C52.5164 54.1635 52.4142 54.2043 52.3324 54.2861L52.1484 54.3475C52.2711 54.2657 52.4142 54.2044 52.5778 54.1635C52.8231 54.1021 53.7432 53.8568 53.7432 53.8568L54.234 54.2248L55.5835 54.4088L55.8288 55.1449L56.9943 55.3289L57.0556 56.3104L58.1597 56.6784L58.0984 57.7825L59.0798 58.3346L58.8345 59.316L59.6319 60.0521L59.3252 61.0949L59.8772 61.9537L59.3865 62.7511L59.6319 63.3645L58.8958 64.1006L58.7731 64.4686L58.9571 64.3459V64.1006L59.7546 63.3031L59.5092 62.7511L60.0613 61.9537L59.4479 61.0335Z" fill="#333333"/>
<path d="M52.1484 57.8439C50.4308 56.8624 49.0814 57.6599 49.0814 59.5614C49.0814 61.5243 50.4308 63.8552 52.1484 64.8367C53.8046 65.8181 55.1541 65.0207 55.1541 63.0578C55.1541 61.1563 53.8046 58.8253 52.1484 57.8439Z" fill="#1F1F1F"/>
<path d="M52.1485 58.2734C50.6763 57.4146 49.5109 58.1507 49.5109 59.8069C49.5109 61.5244 50.6763 63.5486 52.1485 64.4074C53.6207 65.2661 54.7861 64.5301 54.7861 62.8739C54.7861 61.1563 53.6207 59.1321 52.1485 58.2734Z" fill="#919191"/>
<path d="M51.1668 60.7883C51.1668 61.4017 51.5962 62.1378 52.1483 62.4445C52.639 62.6899 53.0684 62.5058 53.0684 61.8924C53.0684 61.279 52.639 60.5429 52.1483 60.2362C51.5962 59.9909 51.1668 60.2362 51.1668 60.7883Z" fill="#707070"/>
<path d="M51.9031 61.2178C51.9031 61.3405 52.0257 61.5245 52.1484 61.6471C52.2711 61.7085 52.3938 61.6471 52.3938 61.4631C52.3938 61.3404 52.2711 61.1564 52.1484 61.0337C52.0257 60.9724 51.9031 61.0338 51.9031 61.2178Z" fill="#575757"/>
<path d="M52.4551 60.8496C52.4551 60.8496 52.4346 60.8701 52.3937 60.911C52.3324 60.911 52.3324 61.0336 52.3937 61.1563C52.4551 61.279 52.5777 61.3403 52.6391 61.3403C52.7004 61.279 52.7004 61.279 52.7004 61.279C52.6391 61.279 52.5778 61.2177 52.5164 61.095C52.4551 61.0336 52.4551 60.9109 52.4551 60.8496Z" fill="#4F4F4F"/>
<path d="M52.4551 60.8496C52.4551 60.9109 52.4551 61.0336 52.5164 61.095C52.5778 61.2177 52.6391 61.279 52.7004 61.279C52.7004 61.1972 52.68 61.1154 52.6391 61.0336C52.6391 60.9109 52.5164 60.8496 52.4551 60.8496Z" fill="#2B2B2B"/>
<path d="M52.4551 61.8311C52.4551 61.8311 52.4346 61.8311 52.3937 61.8311C52.3324 61.8924 52.3324 62.0151 52.3937 62.1378C52.4551 62.2604 52.5777 62.3217 52.6391 62.2604C52.68 62.2604 52.7004 62.24 52.7004 62.1991C52.6391 62.1991 52.5778 62.1377 52.5164 62.0764C52.4755 61.9946 52.4551 61.9128 52.4551 61.8311Z" fill="#4F4F4F"/>
<path d="M52.4551 61.8311C52.4551 61.9128 52.4755 61.9946 52.5164 62.0764C52.5778 62.1377 52.6391 62.1991 52.7004 62.1991C52.7004 62.1377 52.7004 62.0764 52.6391 62.0151C52.6391 61.8924 52.5164 61.8311 52.4551 61.8311Z" fill="#2B2B2B"/>
<path d="M51.6575 61.3403C51.6166 61.3403 51.5962 61.3403 51.5962 61.3403C51.5349 61.4017 51.5349 61.5244 51.5962 61.647C51.6576 61.7697 51.7802 61.8311 51.8416 61.7697C51.8416 61.7697 51.8416 61.7493 51.8416 61.7084C51.7802 61.7084 51.7189 61.647 51.6575 61.5857C51.6575 61.463 51.5962 61.4017 51.6575 61.3403Z" fill="#4F4F4F"/>
<path d="M51.6576 61.3403C51.5963 61.4017 51.6576 61.463 51.6576 61.5857C51.719 61.647 51.7803 61.7084 51.8416 61.7084C51.8825 61.6675 51.8825 61.6062 51.8416 61.5244C51.7599 61.4017 51.6985 61.3403 51.6576 61.3403Z" fill="#2B2B2B"/>
<path d="M51.6575 60.4203C51.6166 60.3794 51.5962 60.3794 51.5962 60.4203C51.5349 60.4203 51.5349 60.543 51.5962 60.6657C51.6576 60.7884 51.7802 60.8497 51.8416 60.8497C51.8416 60.8088 51.8416 60.7884 51.8416 60.7884C51.7802 60.7884 51.7189 60.727 51.6575 60.6044C51.6166 60.5226 51.6166 60.4612 51.6575 60.4203Z" fill="#4F4F4F"/>
<path d="M51.6576 60.4199C51.6167 60.4608 51.6167 60.5222 51.6576 60.604C51.719 60.7267 51.7803 60.788 51.8416 60.788C51.8825 60.7062 51.8825 60.6244 51.8416 60.5426C51.7803 60.4813 51.719 60.4199 51.6576 60.4199Z" fill="#2B2B2B"/>
<path d="M51.4737 58.0277C51.3919 57.9868 51.3101 57.9663 51.2283 57.9663C51.2896 58.5184 51.6577 59.1318 52.1484 59.3772C52.4551 59.5612 52.7618 59.5612 52.9458 59.3158C52.7822 59.3567 52.5778 59.3158 52.3324 59.1931C51.9644 58.9478 51.5963 58.5184 51.4737 58.0277Z" fill="#575757"/>
<path d="M51.4735 58.0278C51.5962 58.5186 51.9642 58.9479 52.3323 59.1933C52.5776 59.316 52.7821 59.3569 52.9457 59.316C53.007 59.2546 53.007 59.1319 53.0684 59.0093C52.7821 58.723 52.4754 58.4776 52.1483 58.2732C51.9029 58.1505 51.678 58.0687 51.4735 58.0278Z" fill="#2B2B2B"/>
<path d="M53.2525 63.5483C52.8845 63.671 52.7618 64.1617 52.9458 64.7138C53.4365 64.8365 53.8659 64.7138 54.1726 64.4071C53.9272 64.5707 53.6001 64.6116 53.1912 64.5298C53.0685 64.1617 53.0685 63.7324 53.2525 63.5483Z" fill="#575757"/>
<path d="M53.1912 64.53C53.6001 64.6118 53.9272 64.5709 54.1726 64.4073C54.2544 64.3664 54.3362 64.3051 54.418 64.2233C54.0499 63.7325 53.6205 63.4259 53.2525 63.5485C53.0685 63.7326 53.0685 64.1619 53.1912 64.53Z" fill="#2B2B2B"/>
<path d="M54.1114 60.6655C53.8047 60.7882 53.6207 61.1563 53.7434 61.7083C53.9274 62.2604 54.3568 62.8124 54.7861 62.9964C54.7861 62.9556 54.7861 62.9147 54.7861 62.8738C54.7861 62.792 54.7861 62.7306 54.7861 62.6897C54.4181 62.4444 54.1114 62.015 53.9887 61.5243C53.9274 61.1563 53.9274 60.8495 54.1114 60.6655Z" fill="#575757"/>
<path d="M54.1114 60.6655C53.9274 60.8495 53.9274 61.1563 53.9887 61.5243C54.1114 62.015 54.4181 62.4444 54.7861 62.6897C54.7248 62.015 54.5408 61.3403 54.1727 60.6655C54.1727 60.6655 54.1523 60.6655 54.1114 60.6655Z" fill="#2B2B2B"/>
<path d="M49.8788 61.5854C50.1855 62.4442 50.6763 63.1803 51.2897 63.7324C51.3306 63.6506 51.3715 63.5483 51.4124 63.4257C50.8603 62.9349 50.4923 62.2602 50.1242 61.5854C50.0629 61.5854 49.9402 61.5854 49.8788 61.5854Z" fill="#575757"/>
<path d="M50.1242 61.5854C50.4923 62.2602 50.8603 62.9349 51.4124 63.4257C51.4124 63.119 51.2897 62.6896 51.0443 62.3215C50.799 61.8922 50.4309 61.6468 50.1242 61.5854Z" fill="#2B2B2B"/>
<path d="M49.6948 59.6229C49.6948 59.0709 49.8788 58.5801 50.1242 58.2734C50.0833 58.2734 50.0629 58.2734 50.0629 58.2734C49.6948 58.5801 49.5108 59.0709 49.5108 59.8069C49.5108 59.8478 49.5108 59.8887 49.5108 59.9296C49.8788 60.2363 50.2469 60.2364 50.4309 59.991C50.2469 60.0523 50.0015 59.991 49.6948 59.8069C49.6948 59.766 49.6948 59.7047 49.6948 59.6229Z" fill="#575757"/>
<path d="M49.6948 59.6229C49.6948 59.7047 49.6948 59.766 49.6948 59.8069C50.0015 59.991 50.2469 60.0523 50.4309 59.991C50.4923 59.9297 50.4923 59.8683 50.4923 59.8069C50.6763 59.3776 50.4923 58.7642 50.1242 58.2734C49.8789 58.5801 49.6948 59.0709 49.6948 59.6229Z" fill="#2B2B2B"/>
<path d="M64.7847 22.3892C68.4038 24.7201 73.6177 35.8227 73.6177 35.8227L66.0115 40.9753L51.9646 48.3361L49.3883 43.7969L45.7692 38.0309L43.1316 34.9026L64.7847 22.3892Z" fill="#FF8400"/>
<path d="M51.9646 46.4344C52.0873 46.6798 52.1895 46.8843 52.2713 47.0478L72.6362 35.3319C71.4094 32.9396 67.729 25.7015 64.7847 23.1865L64.6007 23.2478C67.4836 26.1308 70.796 32.6942 71.9001 34.9638L51.9646 46.4344Z" fill="#174666"/>
<path d="M44.4811 34.9027C47.18 37.2336 50.5538 43.613 51.9646 46.4346L71.9001 34.964C70.796 32.6944 67.4837 26.131 64.6007 23.248L44.4811 34.9027Z" fill="#3576AB"/>
<path d="M59.1413 27.3576L69.7532 33.4916V30.7926C68.1583 28.0323 66.0728 24.8426 64.2326 23.4932L59.1413 26.4375V27.3576Z" fill="#48A0E8"/>
<path d="M81.469 41.8954L59.7546 54.4088L57.5463 53.9794L51.7803 49.3176L51.9643 48.3362L73.6174 35.8228L81.469 41.8954Z" fill="#FF9D26"/>
<path d="M37.4269 43.9811C37.7336 44.1651 37.979 44.1651 37.979 43.6744V42.0182C37.979 41.5275 37.7336 41.2821 37.4269 41.0981C37.1816 40.9141 36.9362 40.9141 36.9362 41.4048V43.061C36.9362 43.5517 37.1816 43.7971 37.4269 43.9811Z" fill="#121214"/>
<path d="M25.711 0L4.05787 12.5134L8.71971 18.9541L43.1316 34.9026L64.7847 22.3892L25.711 0Z" fill="#FF9D26"/>
<path d="M35.5254 14.1699H33.6852L30.3728 12.207C29.8821 11.9616 29.0847 11.9616 28.594 12.207L25.2816 14.1699H23.4414V14.4766C23.4414 14.6606 23.564 14.8446 23.8094 15.0286L28.594 17.7889C29.0847 18.0343 29.8821 18.0343 30.3728 17.7889L35.1573 15.0286C35.4027 14.8446 35.5254 14.6606 35.5254 14.4766V14.1699Z" fill="#BA6000"/>
<path d="M30.3728 17.4209C29.8821 17.7276 29.0847 17.7276 28.594 17.4209L23.8094 14.6606C23.3187 14.3539 23.3187 13.9245 23.8094 13.6178L28.594 10.8575C29.0847 10.5508 29.8821 10.5508 30.3728 10.8575L35.1573 13.6178C35.6481 13.9245 35.6481 14.3539 35.1573 14.6606L30.3728 17.4209Z" fill="#FF9D26"/>
<path d="M34.2373 14.4153C34.1964 14.4971 34.1555 14.538 34.1147 14.538L30.1889 16.8076C29.8208 17.053 29.1461 17.053 28.778 16.8076L24.8523 14.538C24.7705 14.538 24.7091 14.4971 24.6682 14.4153C24.7091 14.3744 24.7705 14.3336 24.8523 14.2927L28.778 12.0844C29.1461 11.8391 29.8208 11.8391 30.1889 12.0844L34.1147 14.2927C34.1555 14.3336 34.1964 14.3744 34.2373 14.4153Z" fill="#FF8400"/>
<path d="M34.2373 14.4153C34.1964 14.3745 34.1555 14.3336 34.1146 14.2927L30.1888 12.0844C29.8208 11.8391 29.146 11.8391 28.778 12.0844L24.8522 14.2927C24.7704 14.3336 24.7091 14.3745 24.6682 14.4153C24.4842 14.2313 24.5455 13.9246 24.8522 13.7406L28.778 11.471C29.146 11.287 29.8208 11.287 30.1888 11.471L34.1146 13.7406C34.4213 13.9246 34.4826 14.2313 34.2373 14.4153Z" fill="#BA6000"/>
<path d="M4.30307 12.5133L43.1314 34.9024C46.6892 37.2334 51.9644 48.336 51.9644 48.336L59.7546 54.4086V61.2174L56.2582 59.1931C55.3381 57.4756 53.9887 55.9421 52.5165 55.0834C49.7562 53.4885 47.4866 54.7767 47.4866 57.905C47.4866 58.0277 47.507 58.1504 47.5479 58.273L47.2412 58.2117L18.5953 41.7112C18.5953 41.4658 18.5953 41.2205 18.5953 40.9751C18.5953 37.7241 16.3258 33.7983 13.5655 32.1421C10.7438 30.5473 8.4742 31.8354 8.4742 35.0864C8.4742 35.3318 8.49467 35.5976 8.53556 35.8839L8.29019 35.7612L2.34018 31.4674C2.34018 31.4674 2.2175 11.7158 4.30307 12.5133Z" fill="#BA6000"/>
<path d="M46.9959 57.5983V57.4143C46.9959 54.8994 48.652 53.8566 48.652 53.8566L48.7134 53.7952V46.3117L48.5294 46.1891V53.7339C48.2227 53.9179 46.8732 55.0221 46.8118 57.2303L36.6907 51.403V32.2035L37.4881 32.6329L37.4268 32.3875L36.5067 31.8354V51.5256L36.568 51.587L46.9959 57.5983Z" fill="#7A4100"/>
<path d="M4.67129 20.9781L35.28 38.6441V38.3374L4.97799 20.7941C5.22335 17.7271 5.59137 15.1508 6.14343 14.4761C5.40735 14.5374 4.97799 17.4204 4.67129 20.9781Z" fill="#FF8400"/>
<path d="M4.97799 20.7941L35.28 38.3374V31.2219L6.32744 14.4761C6.28655 14.4761 6.22522 14.4761 6.14343 14.4761C5.59137 15.1508 5.22335 17.7271 4.97799 20.7941Z" fill="#944F00"/>
<path d="M48.5908 42.9995C50.0629 45.5758 51.1057 47.784 51.1057 47.784L48.5908 46.3119V42.9995Z" fill="#121214"/>
<path d="M37.4269 32.3877V39.8712L48.5908 46.3119V45.6985L37.979 39.5645V32.6944L37.4269 32.3877Z" fill="#174666"/>
<path d="M37.979 32.6943V39.5644L48.5908 45.6984V42.9995C46.9346 40.1165 44.7264 36.7428 42.8248 35.516L37.979 32.6943Z" fill="#2B5E85"/>
<path d="M84.0454 53.4886L60.6748 66.9835V62.6897L84.0454 49.1948V53.4886Z" fill="#303033"/>
<path d="M69.3852 60.7271L75.3352 57.2921V55.5132L69.3852 58.9483V60.7271Z" fill="#F5F5F5"/>
<path d="M55.7676 59.8682L56.6263 59.3775L60.7975 61.8311L82.4506 49.3177V48.2749L84.0454 49.195L60.6748 62.6899L55.7676 59.8682Z" fill="#535359"/>
<path d="M60.6748 66.9836L56.5037 64.5914L55.7676 59.8682L60.6748 62.6898V66.9836Z" fill="#121214"/>
<path d="M4.42578 33.4306L3.50568 33.9827V30.8543L4.42578 30.3022V33.4306Z" fill="#303033"/>
<path d="M3.50568 30.8544L0.499993 29.1368L2.3402 28.0327V29.1368L4.42578 30.3023L3.50568 30.8544Z" fill="#535359"/>
<path d="M3.50562 33.9826L0.49993 32.2651V29.1367L3.50562 30.8543V33.9826Z" fill="#121214"/>
<path d="M82.4507 49.3176L60.7976 61.831V56.9851L61.1043 56.3104L81.8373 44.4717H82.4507V49.3176Z" fill="#303033"/>
<path d="M67.9744 57.353L75.2739 53.1205V49.0107L67.9744 53.2432V57.353Z" fill="#121214"/>
<path d="M67.9744 54.0408L75.2739 49.8083V49.3789L67.9744 53.6114V54.0408Z" fill="black"/>
<path d="M67.9744 55.0222L75.2739 50.7897V50.3604L67.9744 54.5315V55.0222Z" fill="black"/>
<path d="M67.9744 55.9426L75.2739 51.7715V51.2808L67.9744 55.5132V55.9426Z" fill="black"/>
<path d="M67.9744 56.9241L75.2739 52.6916V52.2622L67.9744 56.4947V56.9241Z" fill="black"/>
<path d="M60.7976 56.9852L82.4507 44.4718C82.4507 44.4718 82.4507 44.0424 81.4692 41.8955L59.7548 54.4089L60.0615 56.4945L60.7976 56.9852Z" fill="#535359"/>
<path d="M60.7976 61.8309L59.7548 61.2175V54.4087C59.7548 54.4087 60.7976 56.5556 60.7976 56.985V61.8309Z" fill="#121214"/>
<path d="M37.3656 43.306L38.2244 43.7967V41.4658L37.3656 40.9751V43.306Z" fill="#121214"/>
<path d="M49.0201 45.5761C49.0814 45.6374 49.2041 45.7601 49.2041 45.8214C49.2041 45.9032 49.1837 45.9441 49.1428 45.9441L48.284 46.4348L48.0386 46.0054L48.8974 45.5761C48.9383 45.5352 48.9792 45.5352 49.0201 45.5761Z" fill="black"/>
<path d="M48.1614 46.0051C48.2228 46.0051 48.3455 46.1278 48.3455 46.2505C48.3455 46.3732 48.2228 46.4345 48.1614 46.3732C48.0388 46.3119 47.9774 46.1892 47.9774 46.0665C47.9774 45.9438 48.0388 45.9438 48.1614 46.0051Z" fill="#FF6A00"/>
<path d="M48.3455 43.245L46.5666 44.2878L46.2599 44.1038L48.0388 43.061L48.3455 43.245Z" fill="#303033"/>
<path d="M46.5664 48.7658L46.2597 48.5818V44.104L46.5664 44.288V48.7658Z" fill="black"/>
<path d="M48.3455 47.723L46.5666 48.7657V44.2879L48.3455 43.2451V47.723Z" fill="#121214"/>
<path d="M61.5948 60.2973L67.4221 56.9236V54.2246L61.5948 57.5983V60.2973Z" fill="#121214"/>
<path d="M62.0857 58.948L66.9929 56.1263V54.7769L62.0857 57.5985V58.948Z" fill="#E6DAB0"/>
<path d="M62.0857 59.7456L66.9929 56.9239V56.1265L62.0857 58.9481V59.7456Z" fill="#FF8400"/>
<path d="M75.7645 52.1391L81.5918 48.7654V46.0664L75.7645 49.3788V52.1391Z" fill="#121214"/>
<path d="M76.2551 50.7898L81.1624 47.9681V46.6187L76.2551 49.4403V50.7898Z" fill="#E6DAB0"/>
<path d="M76.2551 51.4647L81.1624 48.643V47.9683L76.2551 50.7899V51.4647Z" fill="#FF8400"/>
</svg>
