<svg width="49" height="49" viewBox="0 0 49 49" fill="none" xmlns="http://www.w3.org/2000/svg">
<path d="M24.5 2.10547C11.5504 2.10547 1.05273 12.6031 1.05273 25.5527C1.05273 28.8721 1.74362 32.0296 2.98785 34.8911H3.08355V24.6914C3.08355 24.4803 3.25525 24.3086 3.46637 24.3086H18.0132C18.2244 24.3086 18.3961 24.4803 18.3961 24.6914V39.6004H42.9698L43.3451 39.5047C46.2364 35.606 47.9473 30.7794 47.9473 25.5527C47.9473 12.6031 37.4496 2.10547 24.5 2.10547Z" fill="#D8ECFE"/>
<path d="M29.4766 32.2412V35.1542H33.7799C34.1256 33.8313 35.0829 32.7536 36.33 32.2412H29.4766Z" fill="#096B82"/>
<path d="M46.759 32.2412H39.6106C40.8578 32.7536 41.815 33.8313 42.1606 35.1542H46.0333C46.5619 35.1542 46.9904 34.7258 46.9904 34.1972V32.3369L46.759 32.2412Z" fill="#096B82"/>
<path d="M45.1718 27.7056H46.9175L46.9901 27.6099V26.1455C46.9901 25.9109 46.9549 25.679 46.8879 25.4566L46.7536 25.3609H34.268C34.0569 25.3609 33.8852 25.1892 33.8852 24.9781V19.523C33.8852 19.3119 34.0569 19.1402 34.268 19.1402H42.9113L42.9641 19.0445L42.1992 17.8261C42.0241 17.5472 41.718 17.3779 41.3886 17.3779H31.2498V32.3358H36.1129C36.6761 32.0673 37.3058 31.9165 37.9701 31.9165C38.6345 31.9165 39.2641 32.0672 39.8273 32.3358H46.9901V30.9595L46.9388 30.8638H45.1718C44.9607 30.8638 44.789 30.6921 44.789 30.481V28.0885C44.789 27.8773 44.9607 27.7056 45.1718 27.7056Z" fill="#2490A9"/>
<path d="M36.1821 19.1821L36.0864 19.0449H34.2681C34.0038 19.0449 33.7896 19.2592 33.7896 19.5234V24.9785C33.7896 25.2428 34.0038 25.457 34.2681 25.457H36.0864L36.1821 25.2879V19.1821Z" fill="#096B82"/>
<path d="M26.1114 8.90039H5.36621C4.83764 8.90039 4.40918 9.32885 4.40918 9.85742V24.3086H18.0132C18.2243 24.3086 18.396 24.4803 18.396 24.6914V28.732H29.0937C29.3048 28.732 29.4765 28.9037 29.4765 29.1148V32.3363H31.3455V14.3157C28.7395 13.6387 26.7023 11.5396 26.1114 8.90039Z" fill="#FED402"/>
<path d="M8.42182 24.2129V9.85742C8.42182 9.32885 8.85028 8.90039 9.37885 8.90039H5.36621C4.83764 8.90039 4.40918 9.32885 4.40918 9.85742V24.2129H8.42182Z" fill="#FAC600"/>
<path d="M25.3609 20.8518H10.3931C9.8645 20.8518 9.43604 20.4233 9.43604 19.8948V15.4082C9.43604 14.8796 9.8645 14.4512 10.3931 14.4512H25.3609C25.8895 14.4512 26.318 14.8796 26.318 15.4082V19.8948C26.318 20.4233 25.8895 20.8518 25.3609 20.8518Z" fill="white"/>
<path d="M12.441 19.8948V15.4082C12.441 14.8796 12.8695 14.4512 13.398 14.4512H10.3931C9.8645 14.4512 9.43604 14.8796 9.43604 15.4082V19.8948C9.43604 20.4233 9.8645 20.8518 10.3931 20.8518H13.398C12.8695 20.8518 12.441 20.4233 12.441 19.8948Z" fill="#F3F0FF"/>
<path d="M35.0824 39.6004H40.8581C41.7996 38.7888 42.3965 37.5883 42.3965 36.2476C42.3965 33.803 40.4148 31.8213 37.9702 31.8213C35.5257 31.8213 33.5439 33.803 33.5439 36.2476C33.5439 37.5883 34.1408 38.7888 35.0824 39.6004Z" fill="#9182B0"/>
<path d="M34.9738 39.5048H36.5535C35.6742 38.6962 35.123 37.5366 35.123 36.2477C35.123 34.0727 36.6921 32.2655 38.7598 31.893C38.5034 31.8467 38.2398 31.8213 37.9702 31.8213C35.5257 31.8213 33.5439 33.803 33.5439 36.2476C33.5439 37.5363 34.095 38.6959 34.9738 39.5048Z" fill="#7A6D98"/>
<path d="M37.9702 38.6162C39.2784 38.6162 40.3389 37.5557 40.3389 36.2476C40.3389 34.9394 39.2784 33.8789 37.9702 33.8789C36.662 33.8789 35.6016 34.9394 35.6016 36.2476C35.6016 37.5557 36.662 38.6162 37.9702 38.6162Z" fill="#CFCAE4"/>
<path d="M37.9702 37.5156C38.6705 37.5156 39.2383 36.9479 39.2383 36.2476C39.2383 35.5472 38.6705 34.9795 37.9702 34.9795C37.2699 34.9795 36.7021 35.5472 36.7021 36.2476C36.7021 36.9479 37.2699 37.5156 37.9702 37.5156Z" fill="white"/>
<path d="M37.707 36.2476C37.707 35.7268 38.0228 35.2788 38.4727 35.0838C38.3185 35.017 38.1487 34.9795 37.9702 34.9795C37.271 34.9795 36.7021 35.5484 36.7021 36.2476C36.7021 36.9468 37.2709 37.5156 37.9702 37.5156C38.1487 37.5156 38.3185 37.4781 38.4727 37.4113C38.0228 37.2163 37.707 36.7683 37.707 36.2476Z" fill="#F3F0FF"/>
<path d="M33.1611 14.6426C37.2046 14.6426 40.4824 11.3647 40.4824 7.32129C40.4824 3.27785 37.2046 0 33.1611 0C29.1177 0 25.8398 3.27785 25.8398 7.32129C25.8398 11.3647 29.1177 14.6426 33.1611 14.6426Z" fill="#9182B0"/>
<path d="M29.7308 11.0479C28.7256 10.1221 28.0954 8.7955 28.0954 7.32129C28.0954 5.84708 28.7256 4.52044 29.7308 3.59471C30.7724 1.83779 32.5269 0.553164 34.5967 0.141641C34.1324 0.0492871 33.6526 0 33.1611 0C29.1177 0 25.8398 3.27783 25.8398 7.32129C25.8398 11.3647 29.1177 14.6426 33.1611 14.6426C33.6526 14.6426 34.1324 14.5933 34.5967 14.5009C32.5269 14.0894 30.7724 12.8048 29.7308 11.0479Z" fill="#7A6D98"/>
<path d="M33.161 12.3864C35.9587 12.3864 38.2267 10.1184 38.2267 7.32064C38.2267 4.5229 35.9587 2.25488 33.161 2.25488C30.3632 2.25488 28.0952 4.5229 28.0952 7.32064C28.0952 10.1184 30.3632 12.3864 33.161 12.3864Z" fill="white"/>
<path d="M30.0636 7.32064C30.0636 4.85973 31.8186 2.80948 34.1452 2.35126C33.8267 2.28857 33.4978 2.25488 33.161 2.25488C30.3633 2.25488 28.0952 4.52286 28.0952 7.32064C28.0952 10.1184 30.3632 12.3864 33.161 12.3864C33.4978 12.3864 33.8268 12.3527 34.1452 12.29C31.8186 11.8318 30.0636 9.78155 30.0636 7.32064Z" fill="#F3F0FF"/>
<path d="M35.7931 8.06923H33.1316C32.9355 8.06923 32.748 7.98903 32.6126 7.84729L30.1206 5.239C29.8468 4.95237 29.8572 4.49797 30.1438 4.22416C30.4302 3.95036 30.8845 3.96069 31.1586 4.24732L33.4385 6.63368H35.7931C36.1896 6.63368 36.5108 6.95505 36.5108 7.35145C36.5108 7.74786 36.1895 8.06923 35.7931 8.06923Z" fill="#A79BC6"/>
<path d="M33.1611 8.55569C33.8426 8.55569 34.395 8.00326 34.395 7.32179C34.395 6.64033 33.8426 6.08789 33.1611 6.08789C32.4797 6.08789 31.9272 6.64033 31.9272 7.32179C31.9272 8.00326 32.4797 8.55569 33.1611 8.55569Z" fill="#9182B0"/>
<path d="M29.0939 28.6357H18.3962V39.5999H29.5725V29.1143C29.5725 28.8499 29.3582 28.6357 29.0939 28.6357Z" fill="#D88A55"/>
<path d="M18.4919 28.6357H20.5974V39.5042H18.4919V28.6357Z" fill="#C57A44"/>
<path d="M25.0845 32.3976H22.979C22.7148 32.3976 22.5005 32.1834 22.5005 31.9191V28.6357H25.563V31.9191C25.563 32.1834 25.3487 32.3976 25.0845 32.3976Z" fill="#2F9BB4"/>
<path d="M23.7341 31.9191V28.6357H22.5005V31.9191C22.5005 32.1834 22.7148 32.3976 22.979 32.3976H24.2126C23.9484 32.3976 23.7341 32.1834 23.7341 31.9191Z" fill="#1A869F"/>
<path d="M37.0024 27.9453H34.0767C33.9181 27.9453 33.7896 27.8168 33.7896 27.6582V26.7012C33.7896 26.5426 33.9181 26.4141 34.0767 26.4141H37.0024C37.161 26.4141 37.2895 26.5426 37.2895 26.7012V27.6582C37.2895 27.8168 37.161 27.9453 37.0024 27.9453Z" fill="#096B82"/>
<path d="M46.6239 24.8736L42.9642 19.0449H36.0864V25.457H46.888C46.8265 25.2527 46.7385 25.0561 46.6239 24.8736Z" fill="white"/>
<path d="M36.0864 19.0449H38.1984V25.457H36.0864V19.0449Z" fill="#F3F0FF"/>
<path d="M18.4919 24.6914C18.4919 24.4272 18.2777 24.2129 18.0134 24.2129H3.46655C3.20232 24.2129 2.98804 24.4272 2.98804 24.6914V34.8911C3.70294 36.5352 4.59997 38.082 5.655 39.5047L6.03025 39.6004H18.4919V24.6914Z" fill="#F6A96C"/>
<path d="M5.93378 24.6914C5.93378 24.4272 6.14806 24.2129 6.41229 24.2129H3.46655C3.20232 24.2129 2.98804 24.4272 2.98804 24.6914V34.8911C3.70294 36.5352 4.59997 38.082 5.655 39.5047L5.93378 39.5758V24.6914Z" fill="#EA9B58"/>
<path d="M12.1755 29.4766H9.30444C9.04021 29.4766 8.82593 29.2623 8.82593 28.998V24.2129H12.6541V28.998C12.6541 29.2623 12.4398 29.4766 12.1755 29.4766Z" fill="#2F9BB4"/>
<path d="M10.2404 28.998V24.2129H8.82593V28.998C8.82593 29.2623 9.04021 29.4766 9.30444 29.4766H10.7189C10.4547 29.4766 10.2404 29.2623 10.2404 28.998Z" fill="#1A869F"/>
<path d="M9.53654 43.0664L9.02051 43.1621C13.1503 46.7954 18.5674 49 24.5001 49C30.4328 49 35.85 46.7954 39.9797 43.1621L39.4637 43.0664H9.53654Z" fill="#B5ADD5"/>
<path d="M5.65479 39.5049C6.64503 40.8401 7.77394 42.0661 9.01999 43.1623H39.98C41.226 42.0661 42.3549 40.8401 43.3452 39.5049H5.65479Z" fill="#CFCAE4"/>
<path d="M46.9902 27.6104H45.1719C44.9076 27.6104 44.6934 27.8246 44.6934 28.0889V30.4814C44.6934 30.7457 44.9076 30.96 45.1719 30.96H46.9902V27.6104Z" fill="white"/>
</svg>
