<svg width="16" height="20" viewBox="0 0 16 20" fill="none" xmlns="http://www.w3.org/2000/svg">
<path d="M15.3731 3.06851L8.32215 0.524245C8.21831 0.486565 8.1087 0.467289 7.99824 0.467285C7.88746 0.467285 7.7775 0.486485 7.67177 0.524821L0.646147 3.06909C0.266433 3.20682 1.86183e-08 3.56759 0 3.97156V9.9998C0 11.3457 0.433794 12.6917 1.26164 14.0005C1.8962 15.0035 2.7794 15.9872 3.87298 16.9244C5.70146 18.4912 7.51574 19.395 7.59197 19.4327C7.72497 19.4983 7.87127 19.5324 8.01955 19.5324C8.16323 19.5324 8.30787 19.5001 8.44048 19.4356C8.51671 19.3985 10.3302 18.5088 12.1604 16.9481C13.255 16.0147 14.125 15.0311 14.76 14.0245C15.5875 12.7129 16 11.3588 16 9.9998V3.97156C16.0001 3.56695 15.7537 3.20573 15.3731 3.06851ZM1.53601 9.99532V4.68932C1.53601 4.48733 1.65978 4.30692 1.84967 4.23805L7.82166 2.06544C7.87491 2.04617 7.93603 2.03196 8.00003 2.03196V9.99987H14.5096C14.5099 9.99987 14.5104 10.0085 14.5104 10.014C14.5091 11.7503 13.6346 13.4711 11.9115 15.1465C10.5659 16.455 9.03716 17.3888 8.25079 17.8293C8.17789 17.8702 8.0641 17.8895 8.0001 17.8895V9.99737L1.53601 9.99532Z" fill="#086E86"/>
</svg>
