<svg width="21" height="16" viewBox="0 0 21 16" fill="none" xmlns="http://www.w3.org/2000/svg">
<path d="M20.7001 13.9143C20.7001 14.5902 20.1523 15.138 19.4765 15.138H1.22361C0.547826 15.138 0 14.5901 0 13.9143V2.08596C0 1.41017 0.547826 0.862305 1.22361 0.862305H19.4765C20.1523 0.862305 20.7001 1.41017 20.7001 2.08596L20.7001 13.9143Z" fill="#0099DF"/>
<path opacity="0.15" d="M0.869931 13.9143V2.08596C0.869931 1.41017 1.41784 0.862305 2.09362 0.862305H1.22357C0.547826 0.862305 0 1.41021 0 2.08596V13.9143C0 14.5902 0.547826 15.138 1.22361 15.138H2.09367C1.41788 15.138 0.869931 14.5901 0.869931 13.9143Z" fill="#202121"/>
<path d="M13.5314 7.13198C13.5314 6.40311 13.8671 5.75272 14.3924 5.32683C13.9933 5.00319 13.4845 4.80908 12.9306 4.80908C11.6477 4.80908 10.6079 5.84902 10.6079 7.13194C10.6079 8.41483 11.6477 9.45469 12.9306 9.45469C13.4846 9.45469 13.9933 9.2607 14.3924 8.93694C13.8671 8.51117 13.5314 7.86082 13.5314 7.13198Z" fill="#EA001B"/>
<path d="M15.8534 4.80908C15.2994 4.80908 14.7909 5.00319 14.3916 5.32683C14.9169 5.75272 15.2527 6.40311 15.2527 7.13198C15.2527 7.86082 14.9169 8.51117 14.3916 8.93698C14.7909 9.2607 15.2995 9.45473 15.8534 9.45473C17.1364 9.45473 18.1762 8.41487 18.1762 7.13198C18.1762 5.84902 17.1363 4.80908 15.8534 4.80908Z" fill="#F79F1A"/>
<path d="M15.2528 7.13328C15.2528 6.40441 14.9171 5.75401 14.3918 5.32812C13.8665 5.75401 13.5308 6.40441 13.5308 7.13328C13.5308 7.86211 13.8665 8.51247 14.3918 8.93828C14.9171 8.51247 15.2528 7.86211 15.2528 7.13328Z" fill="#FF5F01"/>
<path d="M6.70499 8.21108C6.70499 8.37429 6.57254 8.50654 6.40953 8.50654H2.74322C2.58 8.50654 2.44775 8.37429 2.44775 8.21108V5.35402C2.44775 5.1908 2.58004 5.05859 2.74322 5.05859H6.40953C6.57258 5.05859 6.70499 5.1908 6.70499 5.35402V8.21108Z" fill="#FFC715"/>
<path d="M6.74459 11.0359H2.44688C2.26046 11.0359 2.10938 10.8847 2.10938 10.6983C2.10938 10.5119 2.26042 10.3608 2.44688 10.3608H6.74459C6.93101 10.3608 7.0821 10.5119 7.0821 10.6983C7.0821 10.8847 6.93101 11.0359 6.74459 11.0359Z" fill="#34495E"/>
<path d="M6.74459 12.4426H2.44688C2.26046 12.4426 2.10938 12.2916 2.10938 12.1051C2.10938 11.9187 2.26042 11.7676 2.44688 11.7676H6.74459C6.93101 11.7676 7.0821 11.9186 7.0821 12.1051C7.0821 12.2915 6.93101 12.4426 6.74459 12.4426Z" fill="#34495E"/>
<path d="M3.59394 8.50662H4.26896V8.16911V5.3961V5.05859H3.59394V5.3961V5.87035H2.78526H2.44775V6.54536H2.78526H3.59394V7.01985H2.78526H2.44775V7.69483H2.78526H3.59394V8.16911V8.50662Z" fill="#FFA617"/>
<path d="M6.36798 6.54536H6.70549V5.87035H6.36798H5.72434V5.3961V5.05859H5.04932V5.3961V7.35732C5.04932 7.5437 5.20036 7.69483 5.38683 7.69483H6.36798H6.70549V7.01981H6.36798H5.72434V6.54536H6.36798Z" fill="#FFA617"/>
<path opacity="0.15" d="M3.0694 8.21108V5.35402C3.0694 5.1908 3.20165 5.05859 3.36487 5.05859H2.74322C2.58 5.05859 2.44775 5.1908 2.44775 5.35402V8.21108C2.44775 8.37429 2.58004 8.50654 2.74322 8.50654H3.36491C3.20165 8.50658 3.0694 8.37429 3.0694 8.21108Z" fill="#202121"/>
</svg>
