<svg width="17" height="16" viewBox="0 0 17 16" fill="none" xmlns="http://www.w3.org/2000/svg">
<path d="M10.7752 14.4H4.1C2.9968 14.4 2.1 13.5032 2.1 12.4C2.1 11.2968 2.9968 10.4 4.1 10.4H9.7C11.244 10.4 12.5 9.144 12.5 7.6C12.5 6.056 11.244 4.8 9.7 4.8H5.8112C5.5174 5.37591 5.15358 5.91331 4.728 6.4H9.7C10.3616 6.4 10.9 6.9384 10.9 7.6C10.9 8.2616 10.3616 8.8 9.7 8.8H4.1C2.1152 8.8 0.5 10.4152 0.5 12.4C0.5 14.3848 2.1152 16 4.1 16H11.7744C11.3818 15.5062 11.0466 14.9694 10.7752 14.4ZM2.9 0C1.5768 0 0.5 1.0768 0.5 2.4C0.5 4.9504 2.9 6.4 2.9 6.4C2.9 6.4 5.3 4.9496 5.3 2.4C5.3 1.0768 4.2232 0 2.9 0ZM2.9 3.6C2.74236 3.59995 2.58628 3.56885 2.44066 3.50847C2.29504 3.4481 2.16274 3.35963 2.05131 3.24813C1.93988 3.13662 1.8515 3.00426 1.79122 2.8586C1.73094 2.71294 1.69995 2.55684 1.7 2.3992C1.70005 2.24156 1.73115 2.08548 1.79153 1.93986C1.8519 1.79424 1.94037 1.66194 2.05187 1.55051C2.16338 1.43908 2.29574 1.3507 2.4414 1.29042C2.58706 1.23014 2.74316 1.19915 2.9008 1.1992C3.21917 1.19931 3.52445 1.32588 3.74949 1.55107C3.97454 1.77627 4.10091 2.08163 4.1008 2.4C4.10069 2.71837 3.97412 3.02365 3.74893 3.24869C3.52373 3.47374 3.21837 3.60011 2.9 3.6Z" fill="#086E86"/>
<path d="M14.1 9.59961C12.7768 9.59961 11.7 10.6764 11.7 11.9996C11.7 14.55 14.1 15.9996 14.1 15.9996C14.1 15.9996 16.5 14.5492 16.5 11.9996C16.5 10.6764 15.4232 9.59961 14.1 9.59961ZM14.1 13.1996C13.9423 13.1996 13.7862 13.1685 13.6406 13.1081C13.495 13.0477 13.3627 12.9592 13.2513 12.8477C13.1398 12.7362 13.0515 12.6039 12.9912 12.4582C12.9309 12.3126 12.8999 12.1564 12.9 11.9988C12.9 11.8412 12.9311 11.6851 12.9915 11.5395C13.0519 11.3938 13.1403 11.2615 13.2518 11.1501C13.3633 11.0387 13.4957 10.9503 13.6413 10.89C13.787 10.8298 13.9431 10.7988 14.1008 10.7988C14.4191 10.7989 14.7244 10.9255 14.9494 11.1507C15.1745 11.3759 15.3009 11.6812 15.3008 11.9996C15.3006 12.318 15.1741 12.6233 14.9489 12.8483C14.7237 13.0733 14.4183 13.1997 14.1 13.1996Z" fill="#086E86"/>
</svg>
