<svg width="76" height="76" viewBox="0 0 76 76" fill="none" xmlns="http://www.w3.org/2000/svg">
<path opacity="0.3" d="M0.499955 41.102L59.9718 75.433L74.4436 67.0879L14.9718 32.7041L0.499955 41.102Z" fill="black"/>
<path d="M19.4084 24.1476L2.34859 37.1406L1.08098 36.4011V33.285L18.1408 23.4082L19.4084 24.1476Z" fill="#121214"/>
<path d="M19.4084 27.2637L2.34859 37.1404V34.0242L19.4084 24.1475V27.2637Z" fill="black"/>
<path d="M48.986 62.2817L64.3557 53.4085V49.1831L48.5106 57.6866L48.986 62.2817Z" fill="#121214"/>
<path d="M8.73936 39.0423L48.9858 62.2817V58.0036L4.40838 32.2817L8.73936 39.0423Z" fill="black"/>
<path d="M48.2465 58.5843L65.3064 48.7604V28.0562L48.2465 37.9329V58.5843Z" fill="#BCBEC0"/>
<path d="M1.08105 10.6794L48.2465 37.9329L65.3064 28.0562L18.1409 0.855469L1.08105 10.6794Z" fill="#D1D3D4"/>
<path d="M48.2465 59.9574L65.3064 50.1335V48.7603L48.2465 58.5842V59.9574Z" fill="#303033"/>
<path d="M15.2889 45.644L18.2467 43.9539L18.3523 43.4785L16.2924 43.1616L15.1305 44.5877L15.2889 45.644Z" fill="#121214"/>
<path d="M18.8274 44.007C17.0316 43.0035 15.6584 43.7957 15.6584 45.8027C15.6584 47.8098 17.0316 50.2922 18.8274 51.2957C20.5176 52.2992 21.9436 51.4541 21.9436 49.4471C21.9436 47.4401 20.5176 45.0105 18.8274 44.007Z" fill="#333333"/>
<path d="M21.6796 42.3168C20.8345 41.8414 20.0423 41.7886 19.5141 42.1055H19.4613L16.6092 43.7956C17.1374 43.4787 17.9296 43.5316 18.8275 44.0069C20.5177 45.0105 21.9437 47.44 21.9437 49.4471C21.9437 50.3978 21.6268 51.1372 21.0986 51.4541L23.9507 49.8168C24.4789 49.4471 24.8486 48.7605 24.8486 47.8098C24.8486 45.8027 23.4226 43.3731 21.6796 42.3168Z" fill="#474747"/>
<path d="M18.933 43.9543C18.088 43.4261 17.2957 43.3733 16.7147 43.6902L16.6091 43.7959C17.1373 43.479 17.9295 43.5318 18.8274 44.0072C20.5175 45.0107 21.9436 47.4402 21.9436 49.4473C21.9436 50.398 21.6267 51.1374 21.0985 51.4543L21.2042 51.4015C21.2042 51.4015 22.1021 50.8734 22.1021 49.3945C22.1021 47.3874 20.676 44.905 18.933 43.9543Z" fill="#575757"/>
<path d="M19.8838 43.3729C19.0387 42.8976 18.2465 42.8448 17.6655 43.1617L17.507 43.2145C18.088 42.8976 18.8803 42.9504 19.7254 43.4786C21.4683 44.4821 22.8944 46.9117 22.8944 48.9187C22.8944 49.8694 22.5775 50.556 22.0493 50.9257L22.1549 50.8729C22.1549 50.8729 23 50.3448 23 48.8659C23 46.8589 21.6268 44.3765 19.8838 43.3729Z" fill="#2B2B2B"/>
<path d="M20.8344 42.8449C19.9893 42.3168 19.1971 42.264 18.6689 42.5809L18.5105 42.6865C19.0386 42.3696 19.8309 42.4224 20.7288 42.8977C22.4717 43.9013 23.845 46.3309 23.845 48.3907C23.845 49.3414 23.5281 50.028 22.9999 50.3449L23.1055 50.2921C23.1055 50.2921 24.0034 49.7639 24.0034 48.2851C24.0034 46.278 22.5774 43.8485 20.8344 42.8449Z" fill="#2B2B2B"/>
<path d="M22.2078 48.5493L22.4719 47.8627L21.8909 47.3346L21.9966 46.5423L21.3099 46.1198L21.3628 45.3275L20.5705 45.0634L20.4649 44.324L19.6198 44.1655L19.4614 43.6374L18.405 43.5317L18.0881 43.2148C18.0881 43.2148 17.3487 43.4261 17.1374 43.4789C17.067 43.5141 16.9966 43.5494 16.9261 43.5846L16.8205 43.6374C16.8909 43.6022 16.9966 43.5669 17.1374 43.5317C17.2959 43.4789 17.9825 43.2676 17.9825 43.2676L18.2994 43.5846L19.3557 43.6902L19.5142 44.2183L20.3592 44.3768L20.4649 45.1162L21.2571 45.3803L21.2043 46.1726L21.8909 46.5951L21.7325 47.3346L22.3663 47.8627L22.1022 48.6022L22.5247 49.236L22.1022 49.8698L22.3135 50.2923L21.7853 50.8205L21.7325 51.0845L21.7853 51.0317L21.8381 50.8205L22.4191 50.2923L22.2078 49.8698L22.6304 49.236L22.2078 48.5493Z" fill="#333333"/>
<path d="M23.2113 47.9683L23.4753 47.2817L22.8943 46.7007L23 45.9613L22.3134 45.5387L22.3662 44.7465L21.5739 44.4824L21.4683 43.6901L20.676 43.5845L20.4648 43.0563L19.4084 42.8979L19.0915 42.6338C19.0915 42.6338 18.3521 42.8451 18.1408 42.8979C18.0704 42.9331 18 42.9683 17.9296 43.0035L17.8239 43.0563C17.9296 43.0211 18.0352 42.9859 18.1408 42.9507C18.2993 42.8979 18.9859 42.6866 18.9859 42.6866L19.3556 43.0035L20.3591 43.1092L20.5704 43.6373L21.4155 43.7958L21.4683 44.5352L22.2605 44.7465L22.2077 45.5916L22.9472 46.0141L22.7887 46.7535L23.3697 47.2817L23.1056 48.0211L23.5281 48.6549L23.1584 49.2887L23.3169 49.7113L22.7887 50.2394L22.7359 50.5035L22.8415 50.4507V50.2394L23.4225 49.7113L23.2113 49.2887L23.6338 48.6549L23.2113 47.9683Z" fill="#333333"/>
<path d="M24.2149 47.3872L24.479 46.7006L23.898 46.1196L24.0565 45.3802L23.317 44.9577L23.3698 44.1654L22.5776 43.9013L22.472 43.1619L21.6797 43.0034L21.4684 42.4753L20.4121 42.3696L20.0952 42.0527C20.0952 42.0527 19.3558 42.264 19.1445 42.3168C19.0741 42.352 19.0036 42.3872 18.9332 42.4225L18.8276 42.4753C18.9332 42.4401 19.0389 42.4048 19.1445 42.3696C19.3029 42.3168 19.9896 42.1055 19.9896 42.1055L20.3593 42.4225L21.3628 42.5281L21.5213 43.0563L22.4191 43.2147L22.472 43.9541L23.2642 44.2182L23.2114 45.0105L23.898 45.433L23.7924 46.1724L24.3734 46.7006L24.1093 47.4401L24.5318 48.0739L24.1621 48.7076L24.3205 49.1302L23.7924 49.6584L23.7396 49.9225L23.8452 49.8696V49.6584L24.4262 49.1302L24.2149 48.7076L24.6375 48.0739L24.2149 47.3872Z" fill="#333333"/>
<path d="M18.8276 45.0633C17.56 44.3767 16.5565 44.9048 16.5565 46.3309C16.5565 47.7569 17.56 49.4999 18.8276 50.2393C20.0424 50.926 21.0459 50.345 21.0459 48.9189C21.0459 47.4929 20.0424 45.8027 18.8276 45.0633Z" fill="#1F1F1F"/>
<path d="M18.8273 45.3804C17.7182 44.7466 16.8731 45.2748 16.8731 46.5424C16.8731 47.7571 17.7182 49.2888 18.8273 49.9227C19.8837 50.5036 20.7288 50.0283 20.7288 48.7607C20.7288 47.5459 19.8837 46.0142 18.8273 45.3804Z" fill="#919191"/>
<path d="M18.0881 47.2285C18.0881 47.7039 18.405 48.232 18.8275 48.4433C19.1973 48.6546 19.5142 48.4961 19.5142 48.0208C19.5142 47.5982 19.1973 47.0701 18.8275 46.8588C18.405 46.6475 18.0881 46.806 18.0881 47.2285Z" fill="#707070"/>
<path d="M18.6161 47.5458C18.6161 47.6514 18.7218 47.8099 18.8274 47.8627C18.8802 47.9155 18.9858 47.8627 18.9858 47.757C18.9858 47.6514 18.8802 47.493 18.8274 47.4402C18.7218 47.3873 18.6161 47.4402 18.6161 47.5458Z" fill="#575757"/>
<path d="M19.0387 47.2817C19.0387 47.2817 19.0387 47.2993 19.0387 47.3345C18.9859 47.3345 18.9859 47.4402 19.0387 47.5458C19.0387 47.5986 19.1444 47.6514 19.1972 47.6514C19.1972 47.5986 19.1972 47.5986 19.25 47.5986C19.1972 47.5986 19.1444 47.5458 19.0915 47.493C19.0563 47.4226 19.0387 47.3522 19.0387 47.2817Z" fill="#4F4F4F"/>
<path d="M19.0387 47.2817C19.0387 47.3522 19.0563 47.4226 19.0915 47.493C19.1444 47.5458 19.1972 47.5986 19.25 47.5986C19.25 47.5282 19.2324 47.4754 19.1972 47.4402C19.1444 47.3345 19.0915 47.2817 19.0387 47.2817Z" fill="#2B2B2B"/>
<path d="M19.0388 48.021C19.0388 48.021 19.0212 48.021 18.986 48.021C18.9332 48.0738 18.9332 48.1266 18.986 48.2323C19.0388 48.3379 19.1444 48.3907 19.1973 48.3379C19.1973 48.3379 19.1973 48.3203 19.1973 48.2851C19.1973 48.2851 19.1445 48.2323 19.0916 48.1794C19.0564 48.109 19.0388 48.0562 19.0388 48.021Z" fill="#4F4F4F"/>
<path d="M19.0388 48.021C19.0388 48.0562 19.0564 48.109 19.0916 48.1794C19.1444 48.2323 19.1972 48.2851 19.1972 48.2851C19.25 48.2323 19.1972 48.1795 19.1972 48.1266C19.1444 48.0738 19.0916 48.021 19.0388 48.021Z" fill="#2B2B2B"/>
<path d="M18.4578 47.6514C18.4225 47.6514 18.4049 47.6514 18.4049 47.6514C18.3521 47.7042 18.3521 47.757 18.4049 47.8626C18.4578 47.9683 18.5106 48.0211 18.5634 47.9683C18.5986 47.9683 18.6162 47.9507 18.6162 47.9155C18.5634 47.9155 18.5106 47.8627 18.4578 47.8098C18.4578 47.757 18.4049 47.7042 18.4578 47.6514Z" fill="#4F4F4F"/>
<path d="M18.4578 47.6514C18.4049 47.7042 18.4578 47.757 18.4578 47.8098C18.5106 47.8627 18.5634 47.9155 18.6162 47.9155C18.6162 47.8802 18.5986 47.8274 18.5634 47.757C18.5282 47.6866 18.493 47.6514 18.4578 47.6514Z" fill="#2B2B2B"/>
<path d="M18.4578 46.9648C18.4225 46.9648 18.4049 46.9648 18.4049 46.9648C18.3521 46.9648 18.3521 47.0705 18.4049 47.1761C18.4578 47.2289 18.5106 47.2818 18.5634 47.2818C18.5986 47.2466 18.6162 47.2289 18.6162 47.2289C18.5458 47.2289 18.493 47.1937 18.4578 47.1233C18.4225 47.0529 18.4225 47.0001 18.4578 46.9648Z" fill="#4F4F4F"/>
<path d="M18.4578 46.9648C18.4225 47.0001 18.4225 47.0529 18.4578 47.1233C18.493 47.1937 18.5458 47.2289 18.6162 47.2289C18.6162 47.1585 18.5986 47.1057 18.5634 47.0705C18.5634 46.9649 18.4578 46.9648 18.4578 46.9648Z" fill="#2B2B2B"/>
<path d="M18.2993 45.169C18.2289 45.169 18.176 45.1514 18.1408 45.1162C18.1937 45.5387 18.4577 46.0141 18.8275 46.1725C19.0387 46.331 19.25 46.331 19.4084 46.1725C19.2676 46.2078 19.1268 46.1725 18.9859 46.0669C18.669 45.9085 18.4049 45.5388 18.2993 45.169Z" fill="#575757"/>
<path d="M18.2992 45.1689C18.4048 45.5387 18.6689 45.9084 18.9858 46.0668C19.1267 46.1724 19.2675 46.2077 19.4084 46.1724C19.4612 46.1196 19.4612 46.014 19.4612 45.9084C19.2499 45.6971 19.0386 45.521 18.8274 45.3802C18.6513 45.2746 18.4753 45.2042 18.2992 45.1689Z" fill="#2B2B2B"/>
<path d="M19.6198 49.2886C19.3557 49.3942 19.3029 49.7639 19.4085 50.1336C19.7782 50.1864 20.0951 50.1337 20.3064 49.9224C20.1303 50.028 19.9015 50.0632 19.6198 50.028C19.5141 49.7111 19.5141 49.447 19.6198 49.2886Z" fill="#575757"/>
<path d="M19.6198 50.0278C19.9015 50.0631 20.1303 50.0279 20.3064 49.9222C20.3768 49.887 20.4296 49.8342 20.4648 49.7638C20.2536 49.394 19.8839 49.1828 19.6198 49.2884C19.5141 49.4469 19.5141 49.7109 19.6198 50.0278Z" fill="#2B2B2B"/>
<path d="M20.2534 47.123C20.0421 47.2287 19.9365 47.4928 19.9893 47.9153C20.095 48.3378 20.4119 48.7076 20.7288 48.866C20.7288 48.8308 20.7288 48.7956 20.7288 48.7604C20.7288 48.7252 20.7288 48.69 20.7288 48.6547C20.5175 48.4435 20.2534 48.1266 20.2006 47.7569C20.095 47.4928 20.1478 47.2815 20.2534 47.123Z" fill="#575757"/>
<path d="M20.2534 47.123C20.1478 47.2815 20.095 47.4928 20.2006 47.7569C20.2534 48.1266 20.5175 48.4435 20.7288 48.6547C20.7288 48.1266 20.5703 47.6512 20.3062 47.123C20.3062 47.123 20.2886 47.123 20.2534 47.123Z" fill="#2B2B2B"/>
<path d="M17.1374 47.8624C17.3487 48.4434 17.7184 49.0243 18.1938 49.4469C18.229 49.3765 18.2466 49.2884 18.2466 49.1828C17.8769 48.8131 17.56 48.3377 17.3487 47.8096C17.2783 47.8096 17.2079 47.8272 17.1374 47.8624Z" fill="#575757"/>
<path d="M17.3487 47.8096C17.5599 48.3377 17.8768 48.8131 18.2466 49.1828C18.2994 48.9715 18.1937 48.6546 17.9825 48.3377C17.824 48.0737 17.5599 47.8624 17.3487 47.8096Z" fill="#2B2B2B"/>
<path d="M17.0316 46.3839C17.0316 45.9614 17.1197 45.6268 17.2957 45.3804C17.0316 45.5916 16.8732 45.9614 16.8732 46.5423C16.8732 46.5423 16.8732 46.5599 16.8732 46.5952C17.1373 46.8064 17.4014 46.8064 17.5598 46.648C17.4014 46.7008 17.1901 46.648 17.0316 46.4895C17.0316 46.4543 17.0316 46.4191 17.0316 46.3839Z" fill="#575757"/>
<path d="M17.0317 46.3839C17.0317 46.4191 17.0317 46.4543 17.0317 46.4895C17.1901 46.648 17.4014 46.7008 17.5599 46.648C17.5599 46.6128 17.5775 46.56 17.6127 46.4895C17.7183 46.2255 17.5599 45.7501 17.2958 45.3804C17.1197 45.6268 17.0317 45.9614 17.0317 46.3839Z" fill="#2B2B2B"/>
<path d="M16.0283 43.1618L18.986 41.4717C19.6726 40.9963 20.6233 40.9963 21.7325 41.6301C23.6339 42.7393 25.2712 45.3801 25.4297 47.6512C25.4297 47.7216 25.3945 47.7745 25.3241 47.8097L22.2079 49.6054L21.7853 47.9153L20.8346 45.9083L19.3557 44.1653L17.7184 43.2146L16.0283 43.1618Z" fill="#FF9D26"/>
<path d="M15.1302 45.6443C15.2359 45.6972 15.3415 45.6443 15.3415 45.5387C15.4999 43.6901 16.926 43.0035 18.6161 43.9542C20.2535 44.9049 21.6795 47.2288 21.838 49.2359C21.838 49.3943 21.9436 49.5528 22.0492 49.6056C22.2077 49.7112 22.2605 49.6056 22.2605 49.4472C22.102 47.176 20.5175 44.5352 18.6161 43.426C16.6619 42.3169 15.0774 43.1091 14.919 45.2218C14.919 45.3803 15.0246 45.5387 15.1302 45.6443Z" fill="#939598"/>
<path d="M1.0811 31.3834L48.2466 58.5841V37.9327L1.0811 10.6792V31.3834Z" fill="#A7A9AC"/>
<path d="M1.0811 32.757L48.2466 59.9578V58.5845L1.0811 31.3838V32.757Z" fill="#FF9D26"/>
<path d="M75.2888 51.1374L74.0212 51.8768L73.8099 51.7712L75.0775 51.0317L75.2888 51.1374Z" fill="#303033"/>
<path d="M74.0212 55.0985L73.81 54.94V51.771L74.0212 51.8766V55.0985Z" fill="black"/>
<path d="M75.2888 54.359L74.0212 55.0985V51.8766L75.2888 51.1372V54.359Z" fill="#121214"/>
<path d="M73.9156 54.4648C73.9684 54.5177 74.0212 54.5705 74.0212 54.6761C74.0212 54.7113 74.0036 54.7289 73.9684 54.7289L73.3874 55.0987L73.229 54.7817L73.81 54.4648C73.8452 54.4648 73.8804 54.4648 73.9156 54.4648Z" fill="#1F1F1F"/>
<path d="M73.2818 54.8345C73.3346 54.8345 73.3875 54.9401 73.3875 54.9929C73.3875 55.0986 73.3346 55.0986 73.2818 55.0986C73.229 55.0458 73.1762 54.9401 73.1762 54.8873C73.1762 54.7817 73.229 54.7817 73.2818 54.8345Z" fill="#080808"/>
<path d="M75.1303 62.2814L72.0141 60.4857L72.331 60.2744L75.5 62.0702L75.1303 62.2814Z" fill="#BCBEC0"/>
<path d="M70.588 45.0105C73.6513 46.8063 74.7605 53.8837 74.7605 54.9401C74.7605 55.9964 74.7605 64.183 74.7605 64.183L60.9225 72.1584L60.2887 70.6795C60.2887 70.6795 60.9225 58.3732 57.1197 54.3591L49.9366 49.0774L63.7746 41.1021C63.7746 41.1021 69.5844 44.4295 70.588 45.0105Z" fill="#FF9D26"/>
<path d="M57.8063 53.3029L70.9049 45.6973C73.2288 47.8099 74.2323 52.986 74.4436 54.7289L61.2922 62.2818C61.1337 60.5916 60.0774 55.3627 57.8063 53.3029Z" fill="#121214"/>
<path d="M61.345 61.1726C61.3802 61.3135 61.4154 61.4367 61.4507 61.5423L74.1267 54.2008C73.8626 52.1937 72.8591 48.0212 70.9577 46.0142L70.8521 46.067C72.6478 48.1796 73.5457 52.0353 73.8098 53.9895L61.345 61.1726Z" fill="#174666"/>
<path d="M58.2288 53.4085C60.0246 55.257 61.0281 59.0599 61.345 61.1725L73.8098 53.9894C73.5457 52.0352 72.6478 48.1796 70.8521 46.0669L58.2288 53.4085Z" fill="#3576AB"/>
<path d="M70.7464 46.1724C72.595 47.8625 73.5457 52.5632 73.8098 53.9893L73.0176 54.4646L72.7007 54.3062C72.4366 54.1477 72.0669 53.778 71.9084 53.4611L69.6901 50.1336C69.4788 49.8695 69.1091 49.4998 68.845 49.3414L67.5774 48.602V47.9682L70.7464 46.1724Z" fill="#48A0E8"/>
<path d="M51.2043 59.2183L58.8628 63.6549V69.5176L56.6445 68.2499L54.6903 65.0281L51.2043 62.9682V59.2183Z" fill="black"/>
<path d="M53.9509 64.2887C52.2079 63.2852 50.7818 64.0774 50.7818 66.0845C50.7818 68.0915 52.2079 70.5739 53.9509 71.5775C55.6938 72.581 57.1199 71.7887 57.1199 69.7289C57.1199 67.7218 55.6938 65.2922 53.9509 64.2887Z" fill="#333333"/>
<path d="M56.8029 62.5985C55.9578 62.1232 55.2184 62.0703 54.6374 62.3872L51.7325 64.0774C52.3135 63.7605 53.1057 63.8133 53.9508 64.2886C55.6938 65.2922 57.1198 67.7218 57.1198 69.7288C57.1198 70.7323 56.8029 71.4189 56.2747 71.7358L59.1269 70.0985C59.655 69.7288 59.9719 69.0422 59.9719 68.0915C59.9719 66.0844 58.5987 63.602 56.8029 62.5985Z" fill="#474747"/>
<path d="M54.0563 64.2361C53.2113 63.7079 52.4718 63.6551 51.8908 63.972L51.7324 64.0776C52.3134 63.7607 53.1056 63.8135 53.9507 64.2889C55.6937 65.2924 57.1197 67.722 57.1197 69.729C57.1197 70.7325 56.8028 71.4192 56.2746 71.7361L56.3803 71.6832C56.3803 71.6832 57.2253 71.2079 57.2253 69.6762C57.2253 67.6691 55.7993 65.1868 54.0563 64.2361Z" fill="#575757"/>
<path d="M55.007 63.6547C54.1619 63.1793 53.3697 63.1265 52.8415 63.4434L52.6831 63.4962C53.2641 63.1793 54.0035 63.2321 54.9014 63.7603C56.6443 64.7638 58.0704 67.1934 58.0704 69.2004C58.0704 70.204 57.7007 70.8906 57.1725 71.2075L57.331 71.1546C57.331 71.1546 58.176 70.6265 58.176 69.1476C58.176 67.1406 56.75 64.6582 55.007 63.6547Z" fill="#2B2B2B"/>
<path d="M56.0108 63.1267C55.1657 62.5985 54.3734 62.5457 53.7924 62.8626L53.634 62.9682C54.215 62.6513 55.0072 62.7041 55.8523 63.1795C57.5953 64.183 59.0213 66.6126 59.0213 68.6725C59.0213 69.6232 58.7044 70.3097 58.1762 70.6267L58.2819 70.5738C58.2819 70.5738 59.127 70.0985 59.127 68.5668C59.127 66.5598 57.7537 64.1302 56.0108 63.1267Z" fill="#2B2B2B"/>
<path d="M57.3839 68.8839L57.5951 68.1445L57.0141 67.6163L57.1726 66.8241L56.4332 66.4015L56.5388 65.6093L55.6937 65.3452L55.6409 64.6058L54.7958 64.4473L54.5846 63.9191L53.581 63.8135L53.2113 63.4966C53.2113 63.4966 52.4719 63.7078 52.3134 63.7607C52.2078 63.7959 52.1198 63.8311 52.0494 63.8663L51.9437 63.9191C52.0494 63.8839 52.155 63.8487 52.2606 63.8135C52.4719 63.7607 53.1585 63.5494 53.1585 63.5494L53.4754 63.8663L54.4789 63.9719L54.6902 64.5001L55.5353 64.6586L55.5881 65.398L56.4332 65.6621L56.3275 66.4543L57.067 66.8769L56.9085 67.6163L57.4895 68.1445L57.2782 68.8839L57.6479 69.5177L57.2782 70.1515L57.4895 70.5741L56.9613 71.155L56.8557 71.4191L56.9613 71.3663L57.0141 71.155L57.5423 70.5741L57.3839 70.1515L57.8064 69.5177L57.3839 68.8839Z" fill="#333333"/>
<path d="M58.3873 68.25L58.5986 67.5634L58.0176 66.9824L58.176 66.243L57.4894 65.8205L57.5422 65.0282L56.75 64.7641L56.6443 63.9719L55.7993 63.8662L55.588 63.3381L54.5845 63.1796L54.2676 62.9155C54.2676 62.9155 53.5281 63.1268 53.3169 63.1796C53.2464 63.2148 53.176 63.25 53.1056 63.2853L52.9471 63.3381C53.0528 63.2676 53.1584 63.2324 53.264 63.2324C53.4753 63.1796 54.1619 62.9683 54.1619 62.9683L54.4788 63.2853L55.4824 63.3909L55.6936 63.9191L56.5387 64.0775L56.5915 64.8169L57.4366 65.0282L57.3838 65.8733L58.0704 66.2958L57.9119 67.0352L58.4929 67.5634L58.2816 68.3029L58.7042 68.9367L58.2816 69.5704L58.4929 69.993L57.9647 70.5212L57.8591 70.7853L57.9647 70.7324L58.0176 70.574L58.5986 69.993L58.3873 69.5704L58.8098 68.9367L58.3873 68.25Z" fill="#333333"/>
<path d="M59.3909 67.669L59.6022 66.9824L59.0212 66.4542L59.1797 65.6619L58.4931 65.2394L58.5459 64.4471L57.7008 64.1831L57.648 63.4436L56.8029 63.2852L56.5916 62.757L55.5881 62.6514L55.2712 62.3345C55.2712 62.3345 54.5318 62.5457 54.3205 62.5986C54.2149 62.6338 54.1445 62.669 54.1093 62.7042L53.9508 62.757C54.0564 62.7218 54.1621 62.6866 54.2677 62.6514C54.479 62.5985 55.1656 62.3873 55.1656 62.3873L55.4825 62.7042L56.486 62.8098L56.6973 63.338L57.5424 63.4964L57.5952 64.2359L58.4402 64.5L58.3874 65.2922L59.074 65.7147L58.9156 66.4542L59.4966 66.9824L59.2853 67.7218L59.7078 68.3556L59.2853 68.9894L59.4966 69.4119L58.9684 69.9401L58.8628 70.2042L58.9684 70.1514L59.0212 69.9929L59.6022 69.4119L59.3909 68.9894L59.8135 68.3556L59.3909 67.669Z" fill="#333333"/>
<path d="M53.9509 65.345C52.6833 64.6584 51.7326 65.1866 51.7326 66.6126C51.7326 68.0915 52.6833 69.7817 53.9509 70.5211C55.1657 71.2077 56.1692 70.6267 56.1692 69.2007C56.1692 67.7746 55.1657 66.0845 53.9509 65.345Z" fill="#1F1F1F"/>
<path d="M53.9508 65.6621C52.8945 65.0283 51.9966 65.5565 51.9966 66.8241C51.9966 68.0389 52.8945 69.5706 53.9508 70.2044C55.0071 70.8382 55.905 70.31 55.905 69.0424C55.905 67.8276 55.0071 66.2959 53.9508 65.6621Z" fill="#919191"/>
<path d="M53.2642 67.5103C53.2642 67.9856 53.5811 68.5138 53.9508 68.725C54.3205 68.9363 54.6375 68.7779 54.6375 68.3553C54.6375 67.88 54.3205 67.3518 53.9508 67.1405C53.5811 66.9293 53.2642 67.0877 53.2642 67.5103Z" fill="#707070"/>
<path d="M53.7925 67.8275C53.7925 67.9332 53.8453 68.0916 53.9509 68.1445C54.0566 68.1973 54.1094 68.1444 54.1094 68.0388C54.1094 67.9332 54.0566 67.7747 53.9509 67.7219C53.8453 67.6691 53.7925 67.7219 53.7925 67.8275Z" fill="#575757"/>
<path d="M54.2148 67.5635C54.1796 67.5635 54.162 67.5811 54.162 67.6163C54.1092 67.6163 54.1092 67.7219 54.162 67.8276C54.2148 67.8804 54.3205 67.9332 54.3205 67.9332C54.3733 67.8804 54.3733 67.8804 54.3733 67.8804C54.3205 67.8804 54.2677 67.8276 54.2148 67.7748C54.2148 67.6691 54.162 67.6163 54.2148 67.5635Z" fill="#4F4F4F"/>
<path d="M54.2148 67.5635C54.162 67.6163 54.2148 67.6691 54.2148 67.7748C54.2677 67.8276 54.3205 67.8804 54.3733 67.8804C54.3733 67.8276 54.3733 67.7747 54.3205 67.7219C54.3205 67.6163 54.2677 67.5635 54.2148 67.5635Z" fill="#2B2B2B"/>
<path d="M54.2148 68.3027C54.1796 68.3027 54.162 68.3027 54.162 68.3027C54.1092 68.3556 54.1092 68.4083 54.162 68.514C54.2148 68.6196 54.2677 68.6724 54.3205 68.6196C54.3557 68.6196 54.3733 68.602 54.3733 68.5668C54.3381 68.5668 54.2853 68.5316 54.2148 68.4612C54.2148 68.4084 54.162 68.3556 54.2148 68.3027Z" fill="#4F4F4F"/>
<path d="M54.2148 68.3027C54.162 68.3556 54.2148 68.4084 54.2148 68.4612C54.2853 68.5316 54.3381 68.5668 54.3733 68.5668C54.3733 68.514 54.3733 68.4612 54.3205 68.4084C54.3205 68.3556 54.2677 68.3027 54.2148 68.3027Z" fill="#2B2B2B"/>
<path d="M53.5811 67.9331C53.5811 67.9331 53.5634 67.9331 53.5282 67.9331C53.4754 67.9859 53.4754 68.0916 53.5282 68.1444C53.5811 68.25 53.6867 68.3028 53.7395 68.25C53.7395 68.25 53.7395 68.2324 53.7395 68.1972C53.6867 68.1972 53.6339 68.1444 53.6339 68.0915C53.5987 68.0211 53.5811 67.9683 53.5811 67.9331Z" fill="#4F4F4F"/>
<path d="M53.581 67.9331C53.581 67.9683 53.5986 68.0211 53.6338 68.0915C53.6338 68.1444 53.6866 68.1972 53.7395 68.1972C53.7747 68.162 53.7747 68.1092 53.7395 68.0387C53.669 67.9683 53.6162 67.9331 53.581 67.9331Z" fill="#2B2B2B"/>
<path d="M53.5811 67.2466C53.5811 67.2466 53.5634 67.2466 53.5282 67.2466C53.4754 67.2466 53.4754 67.3522 53.5282 67.4578C53.5811 67.5106 53.6867 67.5635 53.7395 67.5635C53.7395 67.5635 53.7395 67.5459 53.7395 67.5107C53.7043 67.5107 53.6691 67.4754 53.6339 67.405C53.5987 67.3346 53.5811 67.2818 53.5811 67.2466Z" fill="#4F4F4F"/>
<path d="M53.581 67.2466C53.581 67.2818 53.5986 67.3346 53.6338 67.405C53.669 67.4754 53.7042 67.5107 53.7394 67.5107C53.7923 67.4578 53.7923 67.405 53.7394 67.3522C53.6866 67.2994 53.6338 67.2466 53.581 67.2466Z" fill="#2B2B2B"/>
<path d="M53.4754 65.4508C53.405 65.4508 53.3346 65.4332 53.2641 65.3979C53.3169 65.8205 53.581 66.2958 53.9508 66.4543C54.2148 66.6127 54.4261 66.6127 54.5317 66.4543C54.4261 66.4895 54.2853 66.4543 54.1092 66.3486C53.8451 66.1902 53.581 65.8205 53.4754 65.4508Z" fill="#575757"/>
<path d="M53.4755 65.4507C53.5811 65.8204 53.8452 66.1901 54.1093 66.3486C54.2853 66.4542 54.4262 66.4894 54.5318 66.4542C54.567 66.3838 54.6022 66.2958 54.6375 66.1901C54.4262 65.9789 54.1973 65.8028 53.9508 65.662C53.7748 65.5563 53.6163 65.4859 53.4755 65.4507Z" fill="#2B2B2B"/>
<path d="M54.7958 69.5703C54.7958 69.5703 54.7782 69.5703 54.743 69.5703C54.5317 69.6759 54.4261 70.0457 54.5845 70.4154C54.9543 70.521 55.2712 70.4154 55.4824 70.2041C55.2712 70.3098 55.0247 70.345 54.743 70.3098C54.6374 69.9929 54.6373 69.7288 54.7958 69.5703Z" fill="#575757"/>
<path d="M54.743 70.3096C55.0247 70.3448 55.2712 70.3096 55.4824 70.204C55.5528 70.1688 55.6057 70.1159 55.6409 70.0455C55.3768 69.6758 55.0599 69.4645 54.7958 69.5702C54.6373 69.7286 54.6373 69.9927 54.743 70.3096Z" fill="#2B2B2B"/>
<path d="M55.3769 67.4048C55.1656 67.5104 55.06 67.7745 55.1656 68.197C55.2712 68.6196 55.5881 69.0421 55.905 69.1477C55.905 69.1125 55.905 69.0773 55.905 69.0421C55.905 69.0069 55.905 68.9717 55.905 68.9365C55.6409 68.7252 55.4297 68.4083 55.324 68.0386C55.2712 67.7745 55.2712 67.5632 55.3769 67.4048Z" fill="#575757"/>
<path d="M55.3769 67.4048C55.2712 67.5632 55.2712 67.7745 55.324 68.0386C55.4297 68.4083 55.6409 68.7252 55.905 68.9365C55.905 68.4611 55.7466 67.933 55.4825 67.4048C55.4473 67.4048 55.4121 67.4048 55.3769 67.4048Z" fill="#2B2B2B"/>
<path d="M52.2606 68.1441C52.5247 68.7251 52.8944 69.3061 53.317 69.7287C53.3522 69.6582 53.3874 69.5878 53.4226 69.5174C53.0529 69.0948 52.736 68.6195 52.4719 68.0913C52.4015 68.0913 52.3311 68.1089 52.2606 68.1441Z" fill="#575757"/>
<path d="M52.4719 68.0913C52.736 68.6195 53.0529 69.0948 53.4226 69.5174C53.4226 69.2533 53.3698 68.9364 53.1585 68.6195C52.9473 68.3554 52.6832 68.1441 52.4719 68.0913Z" fill="#2B2B2B"/>
<path d="M52.1549 66.6656C52.1549 66.2431 52.2606 65.9086 52.4718 65.6621C52.4366 65.6621 52.419 65.6621 52.419 65.6621C52.1549 65.8734 51.9965 66.2431 51.9965 66.8241C51.9965 66.8241 51.9965 66.8417 51.9965 66.8769C52.2606 67.0882 52.5247 67.0881 52.6831 66.9297C52.5247 66.9825 52.3662 66.9297 52.1549 66.7713C52.1549 66.736 52.1549 66.7008 52.1549 66.6656Z" fill="#575757"/>
<path d="M52.1551 66.6656C52.1551 66.7008 52.1551 66.736 52.1551 66.7713C52.3664 66.9297 52.5249 66.9825 52.6833 66.9297C52.7185 66.8945 52.7361 66.8417 52.7361 66.7713C52.8418 66.5072 52.7361 66.0318 52.472 65.6621C52.2608 65.9086 52.1551 66.2431 52.1551 66.6656Z" fill="#2B2B2B"/>
<path d="M56.7501 53.0384C59.8135 54.7814 60.9226 61.9117 60.9226 62.9152C60.9226 63.9715 60.9226 72.1581 60.9226 72.1581L57.5951 70.2039V68.1441C57.5951 68.1441 56.5916 63.8131 55.0071 62.8624L49.9367 59.9574V49.0771C49.9367 49.0771 55.6937 52.4574 56.7501 53.0384Z" fill="#FF9D26"/>
<path d="M49.3027 60.0107L49.7781 59.7466C49.8133 59.7114 49.8661 59.7114 49.9365 59.7466L55.0069 62.6516C56.6971 63.6551 57.7006 68.0389 57.7534 68.1973C57.7534 68.303 57.7358 68.3734 57.7006 68.4086L57.2252 68.6727L55.6407 64.3945L54.9013 63.4966L49.3027 60.0107Z" fill="#303033"/>
<path d="M57.1196 68.6724C57.2253 68.6724 57.2781 68.6196 57.2781 68.4612C57.2253 68.3027 56.2217 63.9189 54.5316 62.9682L49.4612 60.0105C49.3555 59.9576 49.2499 60.0105 49.2499 60.1161C49.2499 60.2217 49.3555 60.3802 49.4612 60.433L54.5316 63.3379C55.9577 64.183 56.9084 68.3555 56.9084 68.4084C56.9612 68.514 57.014 68.6196 57.1196 68.6724Z" fill="black"/>
<path d="M60.4473 68.2497V62.5455H60.236V67.8272L57.8064 66.4011C57.648 66.0314 56.7501 63.0737 55.3768 62.2814L51.0987 59.799V54.3589H50.8874V59.9575L55.2712 62.4927C56.6444 63.285 57.5952 66.5068 57.5952 66.5068V66.5596L60.4473 68.2497Z" fill="#535359"/>
<path d="M59.1268 62.3344L59.8663 62.7569C60.0775 62.8626 60.236 62.8626 60.3416 62.7569C60.4472 62.6865 60.4825 62.5457 60.4472 62.3344C60.3944 62.0175 59.2853 54.94 56.6444 53.4083L51.5212 50.4506C51.1515 50.2393 50.8874 50.3978 50.8874 50.8203V54.0949C50.8874 54.5175 51.1515 55.0457 51.5212 55.2041L55.2712 57.3696C55.4825 57.5281 55.7994 57.845 55.9578 58.109L58.1761 61.3837C58.3874 61.7534 58.8099 62.1759 59.1268 62.3344Z" fill="#121214"/>
<path d="M54.0036 52.0879V56.4717L55.2712 57.1583C55.4825 57.3168 55.905 57.6865 56.0635 58.0034L58.2818 61.3308C58.493 61.5949 58.8628 61.9646 59.1268 62.1231L59.8663 62.5456C60.0775 62.6513 60.236 62.6513 60.2888 62.4928C60.2184 62.4576 60.1656 62.4224 60.1304 62.3872L59.3909 61.9647C59.1268 61.859 58.7571 61.4365 58.5459 61.1724L56.3276 57.8449C56.1163 57.528 55.7466 57.1583 55.4825 57.0527L54.2677 56.3132V52.2463C54.1621 52.1759 54.074 52.1231 54.0036 52.0879Z" fill="#174666"/>
<path d="M54.2677 52.2461V56.313L55.4825 57.0525C55.7466 57.1581 56.1163 57.5278 56.3276 57.8447L58.5459 61.1722C58.7571 61.4362 59.1268 61.8588 59.3909 61.9644L60.1304 62.3869C60.1656 62.4222 60.2184 62.4574 60.2888 62.4926C60.2888 62.4222 60.2888 62.3517 60.2888 62.2813C60.2888 62.2813 59.1797 55.0982 56.6445 53.6194C56.0635 53.2496 55.1128 52.7214 54.2677 52.2461Z" fill="#2B5E85"/>
<path d="M51.046 50.9258V54.2004C51.046 54.5173 51.2573 54.887 51.5214 55.0455L53.634 56.2603V55.9434L51.7854 54.887C51.5214 54.7286 51.3101 54.3589 51.3101 54.042V50.7673C51.3101 50.6969 51.3101 50.6441 51.3101 50.6089C51.1516 50.5561 51.046 50.7145 51.046 50.9258Z" fill="#174666"/>
<path d="M51.3101 50.7673V54.042C51.3101 54.3589 51.5214 54.7286 51.7854 54.887L53.634 55.9434V51.8765C52.4721 51.1899 51.5214 50.6617 51.5214 50.6617C51.4509 50.6265 51.3805 50.6089 51.3101 50.6089C51.3101 50.6441 51.3101 50.6969 51.3101 50.7673Z" fill="#2B5E85"/>
<path d="M51.4154 58.4786C51.4154 58.7427 51.6795 59.0596 51.9436 59.218L52.3661 59.4821C52.683 59.6406 52.8943 59.5877 52.8943 59.3237C52.8943 59.0596 52.683 58.6899 52.3661 58.5314L51.9436 58.2673C51.6795 58.1089 51.4154 58.2145 51.4154 58.4786Z" fill="#121214"/>
<path d="M61.7147 67.5104V62.8626L74.4436 55.521V60.1689L61.7147 67.5104Z" fill="#303033"/>
<path d="M61.7147 63.3909V63.0211L74.4436 55.7324V56.0493L61.7147 63.3909Z" fill="#121214"/>
<path d="M61.7147 64.0247V63.7078L74.4436 56.3662V56.7359L61.7147 64.0247Z" fill="#121214"/>
<path d="M61.7147 64.7112V64.3415L74.4436 57.0527V57.4224L61.7147 64.7112Z" fill="#121214"/>
<path d="M61.7147 65.3977V65.028L74.4436 57.7393V58.0561L61.7147 65.3977Z" fill="#121214"/>
<path d="M61.7147 66.032V65.7151L74.4436 58.3735V58.7432L61.7147 66.032Z" fill="#121214"/>
<path d="M61.7147 66.7185V66.3488L74.4436 59.0601V59.3769L61.7147 66.7185Z" fill="#121214"/>
<path d="M61.7147 67.3523V67.0354L74.4436 59.6938V60.0635L61.7147 67.3523Z" fill="#121214"/>
<path d="M61.5035 62.7043L74.1795 55.4155L74.4436 55.5212L61.7147 62.8627L61.5035 62.7043Z" fill="#535359"/>
<path d="M61.5036 67.352V62.7041L61.7148 62.8626V67.5105L61.5036 67.352Z" fill="#121214"/>
<path d="M67.7358 62.2287L67.8415 62.2815L68.3696 60.9611L68.264 60.8555L67.7358 61.1724V62.2287Z" fill="#535359"/>
<path d="M67.8415 62.2814L68.3696 61.9645V60.9609L67.8415 61.225V62.2814Z" fill="#A7A9AC"/>
<path d="M67.9472 62.1232L68.3169 61.9119V61.1196L67.9472 61.3309V62.1232Z" fill="#E31B25"/>
<path d="M60.9225 72.5809L75.5 64.1302V62.0703L60.9225 70.0985V72.1583V72.5809Z" fill="#A7A9AC"/>
<path d="M60.9226 70.521L75.1304 62.2816L74.8135 62.0703L60.9226 70.0985V70.521Z" fill="#BCBEC0"/>
<path d="M60.9226 72.5808L57.7536 70.7322V68.6724L60.9226 70.0984V72.1583V72.5808Z" fill="#939598"/>
<path d="M60.9226 70.5208L57.7536 68.6722L58.1233 68.4609L60.9226 70.0982V70.5208Z" fill="#A7A9AC"/>
<path d="M61.5034 69.4649L65.2534 67.2994V65.6621L61.5034 67.8276V69.4649Z" fill="#A7A9AC"/>
<path d="M63.5634 68.0916L64.9895 67.2465V66.0317L63.5634 66.8768V68.0916Z" fill="#E6DAB0"/>
<path d="M61.7675 69.0949L63.1936 68.3027V67.0879L61.7675 67.8801V69.0949Z" fill="#E6DAB0"/>
<path d="M70.4824 64.2886L74.2324 62.1232V60.4858L70.4824 62.6513V64.2886Z" fill="#A7A9AC"/>
<path d="M72.5422 62.9153L73.9683 62.0703V60.8555L72.5422 61.7006V62.9153Z" fill="#E6DAB0"/>
<path d="M70.7466 63.9188L72.1726 63.0737V61.8589L70.7466 62.7039V63.9188Z" fill="#E6DAB0"/>
<path d="M59.4436 62.7568C59.5492 62.8097 59.6021 62.9153 59.6021 62.9681C59.6021 63.0033 59.5844 63.0385 59.5492 63.0737L58.9154 63.3906L58.757 63.1266L59.3908 62.7568C59.3908 62.7568 59.4084 62.7568 59.4436 62.7568Z" fill="black"/>
<path d="M58.8626 63.0741C58.9154 63.1269 58.9683 63.1798 58.9683 63.2854C58.9683 63.3382 58.9154 63.391 58.8626 63.3382C58.8098 63.2854 58.757 63.2326 58.757 63.127C58.757 63.0741 58.8098 63.0213 58.8626 63.0741Z" fill="#FF6A00"/>
<path d="M58.9683 60.5915L57.7007 61.331L57.4894 61.1726L58.757 60.4331L58.9683 60.5915Z" fill="#303033"/>
<path d="M57.7007 64.4998L57.4894 64.3942V61.1724L57.7007 61.3308V64.4998Z" fill="black"/>
<path d="M58.9683 63.7603L57.7007 64.4998V61.3308L58.9683 60.5913V63.7603Z" fill="#121214"/>
</svg>
