<svg width="72" height="72" viewBox="0 0 72 72" fill="none" xmlns="http://www.w3.org/2000/svg">
<path opacity="0.3" d="M0.886141 42.6202L51.3581 71.8002L70.8457 60.5097L20.3738 31.3813L0.886141 42.6202Z" fill="black"/>
<path d="M30.0661 47.1052L48.3164 36.5365L20.7347 20.6577L2.53594 31.1749L30.0661 47.1052Z" fill="#FF9D26"/>
<path d="M30.1176 47.1054L48.3164 36.5367V16.3789L30.1176 26.9476V47.1054Z" fill="#BCBEC0"/>
<path d="M2.53594 11.0171L30.1176 26.9475L48.3164 16.3788L20.7347 0.5L2.53594 11.0171Z" fill="#D1D3D4"/>
<path d="M2.53597 31.175L30.1177 47.1053V26.9475L2.53597 11.0171V31.175Z" fill="#A7A9AC"/>
<path d="M18.5178 30.8655V27.8754L27.2305 32.8762V38.0832L5.11357 25.2976V23.1323L18.5178 30.8655Z" fill="#9C251F"/>
<path d="M62.03 36.0209L60.5349 36.8973L60.2772 36.7426L61.7723 35.8662L62.03 36.0209Z" fill="#303033"/>
<path d="M60.5349 40.6608L60.2771 40.5062V36.7427L60.5349 36.8973V40.6608Z" fill="black"/>
<path d="M62.03 39.7845L60.5349 40.6609V36.8974L62.03 36.021V39.7845Z" fill="#121214"/>
<path d="M60.3803 39.2689C60.4318 39.3205 60.5349 39.4236 60.5349 39.5267C60.5349 39.5611 60.5177 39.5955 60.4834 39.6298L59.7616 39.9907L59.5554 39.6814L60.2771 39.2689C60.3115 39.2346 60.3459 39.2346 60.3803 39.2689Z" fill="#1F1F1F"/>
<path d="M59.6586 39.6814C59.7101 39.7329 59.8132 39.836 59.8132 39.9391C59.8132 39.9907 59.7101 40.0422 59.6586 39.9907C59.5555 39.9391 59.5039 39.836 59.5039 39.7844C59.5039 39.6813 59.5555 39.6298 59.6586 39.6814Z" fill="#080808"/>
<path d="M40.3771 60.7672L45.0686 58.0348L42.9033 56.3335L39.8616 56.7459L39.5007 59.2205L40.3771 60.7672Z" fill="#121214"/>
<path d="M7.58833 41.9498L13.2078 38.6504L11.2487 37.7739L7.94922 37.8255L7.02121 40.7641L7.58833 41.9498Z" fill="#121214"/>
<path d="M11.3516 40.1972C9.39255 39.063 7.79435 39.991 7.79435 42.3109C7.79435 44.5793 9.39255 47.3633 11.3516 48.4975C13.3107 49.6317 14.9604 48.7037 14.9604 46.4353C14.9604 44.1669 13.3107 41.3829 11.3516 40.1972Z" fill="#333333"/>
<path d="M14.6512 38.3412C13.6717 37.7741 12.7953 37.7225 12.1251 38.0319L8.82555 39.9394C9.49576 39.5785 10.3722 39.6816 11.3517 40.1972C13.3108 41.3829 14.9606 44.1668 14.9606 46.4352C14.9606 47.5179 14.5997 48.2912 13.981 48.7037L17.229 46.7961C17.8476 46.4353 18.2085 45.6619 18.2085 44.5277C18.2085 42.2593 16.6103 39.4754 14.6512 38.3412Z" fill="#474747"/>
<path d="M11.5064 40.1454C10.5269 39.5783 9.65048 39.5267 9.03183 39.8361L8.8256 39.9392C9.49581 39.5783 10.3722 39.6814 11.3518 40.1969C13.3109 41.3827 14.9606 44.1666 14.9606 46.435C14.9606 47.5177 14.5997 48.291 13.9811 48.7035L14.0842 48.6003C14.0842 48.6003 15.0637 48.0332 15.0637 46.3319C15.0637 44.0635 13.4655 41.2796 11.5064 40.1454Z" fill="#575757"/>
<path d="M12.589 39.5271C11.6095 38.96 10.733 38.9085 10.0628 39.2694L9.90815 39.3725C10.5784 38.96 11.4548 39.0631 12.4343 39.6302C14.3934 40.7645 16.0431 43.5484 16.0431 45.8168C16.0431 46.8994 15.6307 47.6728 15.012 48.0852H15.0636L15.1667 48.0336C15.1667 48.0336 16.1462 47.4665 16.1462 45.7137C16.1462 43.4453 14.5481 40.6613 12.589 39.5271Z" fill="#2B2B2B"/>
<path d="M13.6717 38.9081C12.6922 38.341 11.8157 38.2894 11.1971 38.5987L10.9909 38.7019C11.6611 38.341 12.5375 38.3925 13.517 38.9596C15.5277 40.0938 17.1259 42.8778 17.1259 45.1977C17.1259 46.2804 16.765 47.0537 16.1463 47.4661L16.301 47.363C16.301 47.363 17.2805 46.7959 17.2805 45.0946C17.2805 42.8262 15.6823 40.0423 13.6717 38.9081Z" fill="#2B2B2B"/>
<path d="M15.2183 45.4042L15.5277 44.5794L14.8575 43.9607L15.0121 43.0843L14.1872 42.6203L14.2904 41.6923L13.3624 41.4345L13.2593 40.5581L12.3313 40.4034L12.0735 39.7848L10.9393 39.6817L10.5269 39.3208C10.5269 39.3208 9.70201 39.527 9.49579 39.6301C9.39269 39.6645 9.30676 39.6989 9.23802 39.7332L9.08333 39.8363C9.18644 39.7676 9.30674 39.7161 9.44422 39.6817C9.65044 39.6301 10.4238 39.3723 10.4238 39.3723L10.8362 39.7332L11.9704 39.8363L12.1766 40.5065L13.1562 40.6097L13.2077 41.4861L14.1357 41.7439L14.0841 42.6718L14.909 43.1358L14.7028 44.0123L15.373 44.6309L15.1152 45.4558L15.5792 46.1776L15.1152 46.8993L15.373 47.3633L14.7543 47.982L14.6513 48.2913L14.8059 48.2397V47.982L15.4761 47.3633L15.2699 46.8478L15.7339 46.1776L15.2183 45.4042Z" fill="#333333"/>
<path d="M16.4042 44.7338L16.6619 43.9089L15.9917 43.2903L16.1464 42.4139L15.3731 41.9499L15.4246 41.0219L14.4966 40.7641L14.3936 39.8877L13.4655 39.7846L13.2593 39.1144L12.0736 39.0112L11.7127 38.6504C11.7127 38.6504 10.8363 38.9082 10.63 38.9597C10.5269 39.0113 10.4754 39.0628 10.3723 39.0628L10.2176 39.1659C10.3551 39.0972 10.4754 39.0456 10.5785 39.0112C10.7847 38.9597 11.6096 38.7535 11.6096 38.7535L11.9705 39.0628L13.1047 39.1659L13.3625 39.8361L14.2904 39.9393L14.3936 40.8157L15.3215 41.0734L15.2184 42.0014L16.0433 42.4654L15.8886 43.3418L16.5588 43.9605L16.2495 44.7854L16.765 45.5071L16.301 46.2289L16.5073 46.6929L15.8886 47.3116L15.8371 47.6209L15.9402 47.5693L15.9917 47.3116L16.6104 46.6929L16.4042 46.2289L16.8682 45.5071L16.4042 44.7338Z" fill="#333333"/>
<path d="M17.5382 44.0639L17.796 43.2906L17.1258 42.672L17.332 41.7955L16.5071 41.28L16.5586 40.4035L15.6307 40.0942L15.5276 39.2178L14.5996 39.1147L14.3934 38.496L13.2076 38.3414L12.8467 37.9805C12.8467 37.9805 11.9703 38.2383 11.7641 38.2898C11.661 38.3242 11.575 38.3757 11.5063 38.4445V38.3929L11.3516 38.496C11.4891 38.4273 11.6266 38.3757 11.7641 38.3414C11.9703 38.2898 12.7436 38.0836 12.7436 38.0836L13.1045 38.3929L14.2387 38.5476L14.4965 39.1662L15.4245 39.3209L15.5276 40.1458L16.4556 40.4551L16.404 41.3831L17.1773 41.8471L17.0226 42.672L17.6929 43.2906L17.3835 44.1155L17.8991 44.8888L17.4351 45.559L17.6413 46.0745L17.0742 46.6932L16.9711 46.951L17.0742 46.8994L17.1258 46.6932L17.7444 46.023L17.5382 45.559L18.0022 44.8888L17.5382 44.0639Z" fill="#333333"/>
<path d="M11.3517 41.4344C9.95977 40.6095 8.82555 41.2797 8.82555 42.8779C8.82555 44.5276 9.95977 46.4867 11.3517 47.3116C12.7437 48.0849 13.8779 47.4662 13.8779 45.8165C13.8779 44.2183 12.7437 42.2592 11.3517 41.4344Z" fill="#1F1F1F"/>
<path d="M11.3518 41.7953C10.1145 41.0735 9.13492 41.6406 9.13492 43.0842C9.13492 44.4761 10.1145 46.229 11.3518 46.9507C12.5891 47.621 13.5686 47.0539 13.5686 45.6619C13.5686 44.2184 12.5891 42.5171 11.3518 41.7953Z" fill="#919191"/>
<path d="M10.5784 43.9089C10.5784 44.4245 10.9392 44.9916 11.3517 45.2494C11.8157 45.5071 12.125 45.3009 12.125 44.8369C12.125 44.3214 11.8157 43.7027 11.3517 43.445C10.9392 43.1872 10.5784 43.3934 10.5784 43.9089Z" fill="#707070"/>
<path d="M11.1454 44.2702C11.1454 44.3733 11.2485 44.528 11.3516 44.5795C11.4547 44.6826 11.5579 44.6311 11.5579 44.4764C11.5579 44.3733 11.4547 44.1671 11.3516 44.1155C11.2485 44.064 11.1454 44.1155 11.1454 44.2702Z" fill="#575757"/>
<path d="M11.661 43.9604C11.6266 43.9604 11.6094 43.9604 11.6094 43.9604C11.5579 44.012 11.5579 44.1151 11.6094 44.2182C11.661 44.3213 11.7641 44.3729 11.8156 44.3213C11.8156 44.3213 11.8156 44.3213 11.8672 44.2698C11.8156 44.2698 11.7125 44.2182 11.661 44.1666C11.661 44.0635 11.6094 44.012 11.661 43.9604Z" fill="#4F4F4F"/>
<path d="M11.661 43.9604C11.6094 44.012 11.661 44.0635 11.661 44.1666C11.7125 44.2182 11.8156 44.2698 11.8672 44.2698C11.8672 44.2182 11.8672 44.1667 11.8156 44.1151C11.7641 44.012 11.7125 43.9604 11.661 43.9604Z" fill="#2B2B2B"/>
<path d="M11.661 44.7856C11.6266 44.7856 11.6094 44.7856 11.6094 44.7856C11.5063 44.8372 11.5063 44.9403 11.6094 45.0434C11.661 45.1465 11.7641 45.1981 11.8157 45.1465C11.8157 45.1465 11.8157 45.1294 11.8157 45.095C11.7641 45.095 11.7125 45.0434 11.661 44.9403C11.661 44.8887 11.6094 44.8372 11.661 44.7856Z" fill="#4F4F4F"/>
<path d="M11.661 44.7856C11.6095 44.8372 11.661 44.8887 11.661 44.9403C11.7126 45.0434 11.7642 45.095 11.8157 45.095C11.8673 45.0434 11.8157 44.9919 11.8157 44.8888C11.7642 44.8372 11.7126 44.7856 11.661 44.7856Z" fill="#2B2B2B"/>
<path d="M10.9393 44.373C10.9393 44.373 10.9221 44.373 10.8877 44.373C10.8362 44.4246 10.8362 44.5277 10.8877 44.6308C10.9393 44.7339 11.0424 44.7855 11.094 44.7339C11.1283 44.7339 11.1455 44.7167 11.1455 44.6824C11.094 44.6824 10.9909 44.6308 10.9909 44.5277C10.9393 44.4761 10.9393 44.4246 10.9393 44.373Z" fill="#4F4F4F"/>
<path d="M10.9393 44.373C10.9393 44.4246 10.9393 44.4761 10.9909 44.5277C10.9909 44.6308 11.094 44.6824 11.1455 44.6824C11.1455 44.6136 11.1283 44.5449 11.094 44.4762C11.0596 44.4074 11.008 44.373 10.9393 44.373Z" fill="#2B2B2B"/>
<path d="M10.9393 43.5483C10.9393 43.5483 10.9221 43.5483 10.8877 43.5483C10.8362 43.5999 10.8362 43.703 10.8877 43.8061C10.9393 43.9092 11.0424 43.9608 11.094 43.9092C11.1283 43.9092 11.1455 43.892 11.1455 43.8577C11.0768 43.8577 11.0252 43.8233 10.9909 43.7545C10.9565 43.6858 10.9393 43.6171 10.9393 43.5483Z" fill="#4F4F4F"/>
<path d="M10.9393 43.5483C10.9393 43.6171 10.9565 43.6858 10.9909 43.7545C11.0252 43.8233 11.0768 43.8577 11.1455 43.8577C11.1455 43.8233 11.1283 43.7717 11.094 43.703C11.094 43.5999 10.9909 43.5483 10.9393 43.5483Z" fill="#2B2B2B"/>
<path d="M10.8362 41.5374C10.7331 41.5374 10.6472 41.5202 10.5785 41.4858C10.63 41.9498 10.9393 42.4654 11.3518 42.7231C11.6611 42.8778 11.8673 42.8263 12.022 42.6716C11.8845 42.706 11.7298 42.6716 11.558 42.5685C11.1971 42.3623 10.9393 41.9498 10.8362 41.5374Z" fill="#575757"/>
<path d="M10.8361 41.5376C10.9392 41.95 11.197 42.3625 11.5579 42.5687C11.7298 42.6718 11.8844 42.7062 12.0219 42.6718C12.0734 42.6203 12.125 42.5171 12.125 42.414C11.8844 42.1734 11.6266 41.9672 11.3517 41.7954C11.1798 41.6923 11.008 41.6063 10.8361 41.5376Z" fill="#2B2B2B"/>
<path d="M12.2796 46.229C11.9703 46.3321 11.9187 46.7446 12.0734 47.2086C12.4858 47.2601 12.8467 47.2086 13.1045 46.9508C12.8639 47.0883 12.5889 47.1226 12.2796 47.0539C12.1249 46.693 12.1765 46.3837 12.2796 46.229Z" fill="#575757"/>
<path d="M12.2797 47.0537C12.5891 47.1224 12.864 47.088 13.1046 46.9506C13.1734 46.9162 13.2249 46.8646 13.2593 46.7959C13.0015 46.3835 12.5891 46.1257 12.2797 46.2288C12.1766 46.3835 12.1251 46.6928 12.2797 47.0537Z" fill="#2B2B2B"/>
<path d="M13.0015 43.8062C12.7437 43.8577 12.6406 44.2186 12.7437 44.631C12.8469 45.1466 13.2077 45.6106 13.5686 45.7652C13.5686 45.7309 13.5686 45.6965 13.5686 45.6621C13.5686 45.5934 13.5686 45.5418 13.5686 45.5074C13.2593 45.3012 13.0531 44.9403 12.9499 44.5279C12.8468 44.2186 12.8984 43.9608 13.0015 43.8062Z" fill="#575757"/>
<path d="M13.0015 43.806C12.8984 43.9606 12.8468 44.2184 12.9499 44.5277C13.0531 44.9401 13.2593 45.301 13.5686 45.5073C13.5686 44.9402 13.3624 44.3215 13.1046 43.7544C13.0703 43.7544 13.0359 43.7716 13.0015 43.806Z" fill="#2B2B2B"/>
<path d="M9.44429 44.5791C9.70206 45.2493 10.1661 45.9195 10.6816 46.3835C10.7332 46.3319 10.7332 46.2288 10.7332 46.1257C10.3207 45.7133 9.95984 45.1462 9.70206 44.5791C9.59895 44.5275 9.5474 44.5791 9.44429 44.5791Z" fill="#575757"/>
<path d="M9.70211 44.5791C9.95988 45.1462 10.3208 45.7133 10.7332 46.1257C10.7848 45.868 10.6816 45.5071 10.4754 45.1462C10.2177 44.8369 9.95988 44.6307 9.70211 44.5791Z" fill="#2B2B2B"/>
<path d="M9.34108 42.9294C9.34108 42.4482 9.44421 42.0702 9.65043 41.7952C9.65043 41.7952 9.63323 41.778 9.59886 41.7437C9.34108 42.0014 9.13488 42.4654 9.13488 43.0841C9.13488 43.1184 9.13488 43.1528 9.13488 43.1872C9.44421 43.4449 9.75354 43.4449 9.9082 43.2387C9.75354 43.2387 9.5473 43.1872 9.34108 43.0325C9.34108 42.9981 9.34108 42.9638 9.34108 42.9294Z" fill="#575757"/>
<path d="M9.34117 42.9296C9.34117 42.964 9.34117 42.9984 9.34117 43.0327C9.54739 43.1874 9.75362 43.2389 9.90829 43.2389C9.95984 43.1874 9.95985 43.1358 10.0114 43.0843C10.1145 42.7234 9.95984 42.2078 9.65051 41.7954C9.4443 42.0704 9.34117 42.4484 9.34117 42.9296Z" fill="#2B2B2B"/>
<path d="M44.2435 59.2207C42.2329 58.0349 40.6347 58.9629 40.6347 61.2829C40.6347 63.5513 42.2329 66.3352 44.2435 67.4694C46.2026 68.6036 47.8008 67.7272 47.8008 65.4072C47.8008 63.1388 46.2026 60.3549 44.2435 59.2207Z" fill="#333333"/>
<path d="M47.4915 57.3133C46.512 56.7462 45.6355 56.6946 45.0169 57.0555L41.7174 58.9115C42.3876 58.6022 43.264 58.6537 44.2436 59.2208C46.2026 60.355 47.8009 63.1389 47.8009 65.4073C47.8009 66.49 47.44 67.3149 46.8729 67.6758L50.1208 65.8198C50.7395 65.4073 51.1003 64.634 51.1003 63.5514C51.1003 61.2314 49.5021 58.4475 47.4915 57.3133Z" fill="#474747"/>
<path d="M44.3983 59.1175C43.4188 58.5504 42.5423 58.4988 41.8721 58.8597L41.7175 58.9113C42.3877 58.6019 43.2641 58.6535 44.2436 59.2206C46.2027 60.3548 47.8009 63.1387 47.8009 65.4071C47.8009 66.4898 47.44 67.3147 46.8729 67.6755L46.976 67.624C46.976 67.624 47.9556 67.0569 47.9556 65.304C47.9556 63.0356 46.3574 60.2517 44.3983 59.1175Z" fill="#575757"/>
<path d="M45.4293 58.4988C44.5013 57.9317 43.6248 57.8802 42.9546 58.241L42.8 58.3441C43.4186 57.9832 44.3466 58.0348 45.3261 58.6019C47.2852 59.7361 48.8834 62.52 48.8834 64.7884C48.8834 65.8711 48.5225 66.696 47.9039 67.0569L48.0586 67.0053C48.0586 67.0053 49.0381 66.4382 49.0381 64.7369C49.0381 62.417 47.4399 59.633 45.4293 58.4988Z" fill="#2B2B2B"/>
<path d="M46.5636 57.8803C45.584 57.3132 44.7076 57.2616 44.089 57.5709L43.8827 57.674C44.553 57.3131 45.4294 57.3647 46.4089 57.9318C48.368 59.1176 49.9662 61.85 49.9662 64.1699C49.9662 65.2526 49.6053 66.0259 49.0382 66.4383L49.1413 66.3352C49.1413 66.3352 50.1208 65.7681 50.1208 64.0668C50.1208 61.7984 48.5226 59.0145 46.5636 57.8803Z" fill="#2B2B2B"/>
<path d="M48.1102 64.3761L48.368 63.6028L47.7493 62.9842L47.904 62.1077L47.0791 61.5922L47.1822 60.7158L46.2543 60.4064L46.1511 59.53L45.1716 59.4269L44.9654 58.7567L43.7796 58.6536L43.4188 58.3442C43.4188 58.3442 42.5939 58.5505 42.3361 58.602C42.2674 58.6364 42.1814 58.6708 42.0783 58.7051L41.9752 58.8082C42.0783 58.7395 42.1986 58.688 42.3361 58.6536C42.5423 58.602 43.3156 58.3958 43.3156 58.3958L43.6765 58.7051L44.8623 58.8598L45.0685 59.4784L46.048 59.6331L46.0996 60.458L47.0276 60.7158L46.976 61.6437L47.7493 62.1077L47.5947 62.9842L48.2649 63.6028L48.0071 64.4277L48.4711 65.1495L48.0071 65.8712L48.2649 66.3868L47.6462 66.9539L47.5431 67.2632L47.6462 67.2116L47.6978 67.0054L48.3164 66.3352L48.1102 65.8712L48.5742 65.1495L48.1102 64.3761Z" fill="#333333"/>
<path d="M49.2445 63.706L49.5538 62.9327L48.8836 62.314L49.0382 61.4376L48.2134 60.922L48.3165 60.0456L47.3885 59.7363L47.2854 58.8598L46.3574 58.7568L46.0996 58.0865L44.9654 57.9834L44.6046 57.6226C44.6046 57.6226 43.7281 57.8803 43.5219 57.9319C43.4188 57.9662 43.3329 58.0006 43.2641 58.035L43.1095 58.1381C43.247 58.0694 43.3672 58.0178 43.4703 57.9834C43.6766 57.9319 44.4499 57.7257 44.4499 57.7257L44.8623 58.035L45.9965 58.1896L46.2027 58.8083L47.1823 58.963L47.2338 59.7879L48.2134 60.0456L48.1103 61.0251L48.9351 61.4376L48.7289 62.314L49.3991 62.9327L49.1413 63.7575L49.6054 64.5309L49.1413 65.2011L49.3991 65.7166L48.7805 66.3353L48.6774 66.593L48.832 66.5415V66.3353L49.5022 65.6651L49.296 65.2011L49.76 64.4793L49.2445 63.706Z" fill="#333333"/>
<path d="M50.3785 63.0873L50.6878 62.2625L50.0176 61.6438L50.1723 60.7674L49.3989 60.3034L49.4505 59.3754L48.5225 59.0661L48.4194 58.2412L47.4914 58.0865L47.2852 57.4679L46.0995 57.3132L45.7386 57.0039C45.7386 57.0039 44.8622 57.2101 44.6559 57.3132C44.5528 57.3132 44.4669 57.3476 44.3982 57.4163L44.2435 57.4679C44.3466 57.3992 44.4669 57.3476 44.6044 57.3132C44.8106 57.2617 45.5839 57.0554 45.5839 57.0554L45.9964 57.3648L47.1305 57.5195L47.3368 58.1381L48.3163 58.2928L48.4194 59.1176L49.3474 59.427L49.2443 60.355L50.0692 60.819L49.9145 61.6438L50.5332 62.2625L50.2754 63.1389L50.7394 63.8607L50.3269 64.5309L50.5332 65.0464L49.9145 65.6651L49.863 65.9744L49.9661 65.8713L50.0176 65.6651L50.6363 64.9949L50.43 64.5309L50.894 63.8607L50.3785 63.0873Z" fill="#333333"/>
<path d="M44.2436 60.4065C42.8516 59.5816 41.6659 60.2519 41.6659 61.8501C41.6659 63.4998 42.8516 65.4589 44.2436 66.2838C45.6356 67.1086 46.7698 66.4384 46.7698 64.7887C46.7698 63.1905 45.6356 61.2314 44.2436 60.4065Z" fill="#1F1F1F"/>
<path d="M44.2436 60.7675C43.0063 60.0457 42.0268 60.6644 42.0268 62.0564C42.0268 63.4999 43.0063 65.2012 44.2436 65.9229C45.4809 66.5932 46.4604 66.0261 46.4604 64.6341C46.4604 63.1906 45.4809 61.4893 44.2436 60.7675Z" fill="#919191"/>
<path d="M43.4702 62.8813C43.4702 63.3969 43.7795 64.0155 44.2435 64.2733C44.656 64.4795 45.0168 64.3249 45.0168 63.8093C45.0168 63.2938 44.656 62.6751 44.2435 62.4173C43.7795 62.2111 43.4702 62.4173 43.4702 62.8813Z" fill="#707070"/>
<path d="M44.0373 63.2419C44.0373 63.345 44.1404 63.4996 44.2435 63.6028C44.3466 63.6543 44.4497 63.6028 44.4497 63.4481C44.4497 63.345 44.3466 63.1903 44.2435 63.0872C44.1404 63.0357 44.0373 63.0872 44.0373 63.2419Z" fill="#575757"/>
<path d="M44.5013 62.9326C44.5013 62.9326 44.5013 62.9498 44.5013 62.9842C44.3982 62.9842 44.3982 63.0873 44.5013 63.1904C44.5528 63.2935 44.6044 63.345 44.7075 63.345C44.7075 63.2935 44.7075 63.2935 44.7075 63.2935C44.656 63.2935 44.6044 63.242 44.5528 63.1388C44.5013 63.0873 44.5013 62.9842 44.5013 62.9326Z" fill="#4F4F4F"/>
<path d="M44.5014 62.9326C44.5014 62.9842 44.5014 63.0873 44.5529 63.1388C44.6045 63.242 44.6561 63.2935 44.7076 63.2935C44.742 63.2248 44.742 63.156 44.7076 63.0873C44.6561 62.9842 44.5529 62.9326 44.5014 62.9326Z" fill="#2B2B2B"/>
<path d="M44.5013 63.7578C44.5013 63.7578 44.4841 63.7578 44.4497 63.7578C44.3982 63.8094 44.3982 63.9125 44.4497 64.0156C44.5529 64.1187 44.6044 64.1703 44.656 64.1187C44.6903 64.1187 44.7075 64.1015 44.7075 64.0672C44.656 64.0672 44.6044 64.0156 44.5528 63.964C44.5013 63.8609 44.5013 63.8094 44.5013 63.7578Z" fill="#4F4F4F"/>
<path d="M44.5013 63.7578C44.5013 63.8094 44.5013 63.8609 44.5528 63.964C44.6044 64.0156 44.656 64.0672 44.7075 64.0672C44.7075 64.0156 44.7075 63.9641 44.656 63.9125C44.656 63.8094 44.5528 63.7578 44.5013 63.7578Z" fill="#2B2B2B"/>
<path d="M43.8311 63.3452C43.7968 63.3452 43.7796 63.3452 43.7796 63.3452C43.728 63.3968 43.728 63.4999 43.7796 63.603C43.8311 63.7061 43.9342 63.7577 43.9858 63.7061C43.9858 63.7061 44.003 63.6889 44.0374 63.6546C43.9342 63.6546 43.8827 63.603 43.8311 63.5514C43.7968 63.4827 43.7968 63.414 43.8311 63.3452Z" fill="#4F4F4F"/>
<path d="M43.8311 63.3452C43.7968 63.414 43.7968 63.4827 43.8311 63.5514C43.8827 63.603 43.9858 63.6546 44.0374 63.6546C44.0374 63.6202 44.0202 63.5686 43.9858 63.4999C43.9171 63.3968 43.8655 63.3452 43.8311 63.3452Z" fill="#2B2B2B"/>
<path d="M43.8311 62.5717C43.7968 62.5373 43.7796 62.5373 43.7796 62.5717C43.728 62.5717 43.728 62.6748 43.7796 62.7779C43.8311 62.881 43.9342 62.9326 43.9858 62.9326C44.0202 62.8982 44.0374 62.881 44.0374 62.881C43.9686 62.881 43.9171 62.8294 43.8827 62.7263C43.8311 62.6748 43.8311 62.5717 43.8311 62.5717Z" fill="#4F4F4F"/>
<path d="M43.8311 62.5718C43.8311 62.5718 43.8311 62.6749 43.8827 62.7264C43.9171 62.8295 43.9686 62.8811 44.0374 62.8811C44.0374 62.8296 44.0374 62.7264 43.9858 62.6749C43.9342 62.6233 43.8827 62.5718 43.8311 62.5718Z" fill="#2B2B2B"/>
<path d="M43.6765 60.5613C43.6078 60.527 43.539 60.5098 43.4703 60.5098C43.5218 60.9738 43.8312 61.4893 44.2436 61.6955C44.5014 61.8502 44.7592 61.8502 44.9138 61.644C44.7763 61.6783 44.6217 61.644 44.4498 61.5409C44.0889 61.3346 43.7796 60.9738 43.6765 60.5613Z" fill="#575757"/>
<path d="M43.6764 60.561C43.7795 60.9735 44.0889 61.3343 44.4498 61.5406C44.6216 61.6437 44.7763 61.678 44.9137 61.6437C44.9653 61.5921 45.0168 61.489 45.0168 61.3859C44.7763 61.1453 44.5185 60.9391 44.2435 60.7672C44.0373 60.6641 43.8483 60.5954 43.6764 60.561Z" fill="#2B2B2B"/>
<path d="M45.1715 65.2012C44.8621 65.3043 44.8106 65.7167 44.9652 66.1807C45.3777 66.2838 45.687 66.1807 45.9963 65.9229C45.7557 66.0604 45.4636 66.0948 45.1199 66.026C45.0168 65.7167 45.0168 65.3558 45.1715 65.2012Z" fill="#575757"/>
<path d="M45.12 66.0258C45.4637 66.0946 45.7559 66.0602 45.9965 65.9227C46.0308 65.8883 46.0824 65.8368 46.1511 65.768C45.8418 65.3556 45.4809 65.0979 45.1716 65.201C45.0169 65.3556 45.0169 65.7165 45.12 66.0258Z" fill="#2B2B2B"/>
<path d="M45.8933 62.7778C45.6356 62.8294 45.4809 63.1903 45.584 63.6543C45.7387 64.1183 46.0996 64.5822 46.4604 64.7369C46.4604 64.7025 46.4604 64.6682 46.4604 64.6338C46.4604 64.565 46.4604 64.5135 46.4604 64.4791C46.1511 64.2729 45.8933 63.912 45.7902 63.4996C45.7387 63.1902 45.7902 62.9325 45.8933 62.7778Z" fill="#575757"/>
<path d="M45.8933 62.7778C45.7387 62.9325 45.7387 63.1902 45.7902 63.4996C45.8933 63.912 46.1511 64.2729 46.4604 64.4791C46.4089 63.912 46.2542 63.3449 45.9965 62.7778C45.9621 62.7778 45.9277 62.7778 45.8933 62.7778Z" fill="#2B2B2B"/>
<path d="M42.3361 63.5513C42.5939 64.273 43.0579 64.8917 43.5219 65.3557C43.5906 65.2869 43.625 65.201 43.625 65.0979C43.2126 64.6855 42.8517 64.1184 42.5939 63.5513C42.4908 63.5513 42.3877 63.5513 42.3361 63.5513Z" fill="#575757"/>
<path d="M42.5939 63.5513C42.8517 64.1184 43.2126 64.6855 43.625 65.0979C43.625 64.8401 43.5734 64.4793 43.3157 64.1699C43.1095 63.809 42.8517 63.6028 42.5939 63.5513Z" fill="#2B2B2B"/>
<path d="M42.2329 61.9016C42.2329 61.4376 42.3361 61.0251 42.5423 60.7674C42.5423 60.7674 42.5251 60.7502 42.4907 60.7158C42.1814 61.0251 42.0267 61.4376 42.0267 62.0562C42.0267 62.0906 42.0267 62.125 42.0267 62.1593C42.3361 62.4171 42.6454 62.4171 42.8 62.2109C42.6454 62.2624 42.4392 62.2109 42.2329 62.0562C42.2329 62.0219 42.2329 61.9703 42.2329 61.9016Z" fill="#575757"/>
<path d="M42.233 61.9018C42.233 61.9705 42.233 62.0221 42.233 62.0564C42.4392 62.2111 42.6455 62.2627 42.8001 62.2111C42.8517 62.1595 42.8517 62.108 42.9032 62.0564C43.0064 61.6956 42.8517 61.18 42.5424 60.7676C42.3361 61.0254 42.233 61.4378 42.233 61.9018Z" fill="#2B2B2B"/>
<path d="M54.864 30.6079C57.9057 32.567 62.2878 41.8984 62.2878 41.8984L55.8951 46.2289L44.0891 52.4155L41.9238 48.6005L38.8821 43.7543L36.6652 41.1251L54.864 30.6079Z" fill="#FF8400"/>
<path d="M44.1405 50.817C44.2093 51.0233 44.2952 51.1951 44.3983 51.3326L61.4629 41.4857C60.4318 39.475 57.3385 33.3916 54.8639 31.2778L54.7092 31.3294C57.1323 33.7525 59.9162 39.2688 60.8958 41.1763L44.1405 50.817Z" fill="#174666"/>
<path d="M37.7993 41.125C40.0677 43.084 42.9032 48.4457 44.1405 50.8172L60.8958 41.1765C59.9162 39.269 57.1323 33.7527 54.7092 31.3296L37.7993 41.125Z" fill="#3576AB"/>
<path d="M50.1209 34.7836L59.0398 39.9391V37.6707C57.6994 35.3507 55.9465 32.6698 54.3999 31.5356L50.1209 34.0103V34.7836Z" fill="#48A0E8"/>
<path d="M68.8867 47.0023L50.6364 57.5195L48.7804 57.1586L43.9343 53.2404L44.089 52.4156L62.2877 41.8984L68.8867 47.0023Z" fill="#FF9D26"/>
<path d="M31.922 48.7551C32.1283 48.9097 32.3345 48.9097 32.3345 48.4973V47.1053C32.3345 46.6929 32.1283 46.4867 31.922 46.332C31.6643 46.1773 31.458 46.1773 31.458 46.5898V47.9817C31.458 48.3942 31.6643 48.6004 31.922 48.7551Z" fill="#121214"/>
<path d="M48.2648 26.8442L54.8638 30.6077L36.665 41.1249L30.1176 37.3098L48.2648 26.8442Z" fill="#FF9D26"/>
<path d="M30.1178 47.1052V37.3098L36.6652 41.1248C39.7069 43.0839 44.089 52.4153 44.089 52.4153L50.6365 57.5192V63.2417L47.6979 61.5404C46.9245 60.0969 45.7903 58.808 44.553 58.0863C42.2331 56.7459 40.3771 57.8285 40.3771 60.4578C40.3771 60.5609 40.3771 60.664 40.3771 60.7671L40.1193 60.7156L16.0433 46.8474C16.0777 46.6412 16.0949 46.4349 16.0949 46.2287C16.0949 43.4963 14.1358 40.1969 11.8159 38.8049C9.44437 37.4645 7.53682 38.5471 7.53682 41.2795C7.53682 41.4857 7.55403 41.7091 7.5884 41.9497L7.38217 41.8466L2.38136 38.2893C2.38136 38.2893 2.38139 34.8352 2.53605 31.1748L30.1178 47.1052Z" fill="#BA6000"/>
<path d="M39.9132 60.2003V60.0456C39.9132 57.9319 41.3051 57.0554 41.3051 57.0554L41.3567 57.0039V50.7142L41.202 50.6111V56.9524C40.9443 57.107 39.81 58.035 39.7585 59.8909L31.3035 54.9933V38.8567L31.9222 39.2176L31.8706 39.0113L31.0973 38.5474V55.0964L31.1489 55.1479L39.9132 60.2003Z" fill="#7A4100"/>
<path d="M41.2534 47.9302C42.4908 50.0955 43.3672 51.9514 43.3672 51.9514L41.2534 50.7141V47.9302Z" fill="#121214"/>
<path d="M31.8705 39.0112V45.3009L41.2534 50.7141V50.1986L32.386 45.0431V39.269L31.8705 39.0112Z" fill="#174666"/>
<path d="M32.3345 39.269V45.0432L41.2534 50.1986V47.9302C39.8614 45.5072 38.057 42.6717 36.4588 41.6406L32.3345 39.269Z" fill="#2B5E85"/>
<path d="M71.052 56.746L51.4097 68.088V64.4792L71.052 53.1372V56.746Z" fill="#303033"/>
<path d="M58.7304 62.8294L63.7312 59.8908V58.4473L58.7304 61.3343V62.8294Z" fill="#F5F5F5"/>
<path d="M47.2853 62.1076L48.0071 61.6951L51.5128 63.7573L69.7116 53.2402V52.3638L71.052 53.1371L51.4097 64.4791L47.2853 62.1076Z" fill="#535359"/>
<path d="M51.4097 68.0877L47.9555 66.0771L47.2853 62.1074L51.4097 64.4789V68.0877Z" fill="#121214"/>
<path d="M4.18579 39.8876L3.36093 40.3516V37.7223L4.18579 37.2583V39.8876Z" fill="#303033"/>
<path d="M3.36093 37.7223L0.834743 36.2788L2.43295 35.4023L2.38138 36.2788L4.18579 37.2583L3.36093 37.7223Z" fill="#535359"/>
<path d="M3.36084 40.3516L0.834652 38.9081V36.2788L3.36084 37.7223V40.3516Z" fill="#121214"/>
<path d="M69.7117 53.2408L51.5129 63.7579V59.6851L51.7707 59.118L69.1961 49.168H69.7117V53.2408Z" fill="#303033"/>
<path d="M57.5447 59.9943L63.6797 56.4371V52.9829L57.5447 56.5402V59.9943Z" fill="#121214"/>
<path d="M57.5447 57.2102L63.6797 53.6529V53.292L57.5447 56.8493V57.2102Z" fill="black"/>
<path d="M57.5447 58.0353L63.6797 54.478V54.1172L57.5447 57.6229V58.0353Z" fill="black"/>
<path d="M57.5447 58.8083L63.6797 55.3026V54.8901L57.5447 58.4474V58.8083Z" fill="black"/>
<path d="M57.5447 59.6335L63.6797 56.0762V55.7153L57.5447 59.221V59.6335Z" fill="black"/>
<path d="M51.5128 59.6849L69.7116 49.1677C69.7116 49.1677 69.7631 48.8069 68.8867 47.0024L50.6364 57.5196L50.8942 59.2725L51.5128 59.6849Z" fill="#535359"/>
<path d="M51.5129 63.7576L50.6365 63.2421V57.5195C50.6365 57.5195 51.5129 59.2724 51.5129 59.6848V63.7576Z" fill="#121214"/>
<path d="M31.819 48.1881L32.5408 48.6005V46.6415L31.819 46.229V48.1881Z" fill="#121214"/>
<path d="M41.6144 50.0956C41.7175 50.1472 41.769 50.2503 41.769 50.3018C41.769 50.3706 41.7519 50.4049 41.7175 50.4049L40.9957 50.8174L40.7895 50.4565L41.5113 50.0956C41.5456 50.0612 41.58 50.0612 41.6144 50.0956Z" fill="black"/>
<path d="M40.8927 50.4567C40.9958 50.4567 41.0474 50.6114 41.0474 50.6629C41.0474 50.766 40.9958 50.8176 40.8927 50.7661C40.8412 50.7145 40.738 50.6114 40.738 50.5083C40.738 50.4052 40.8412 50.4052 40.8927 50.4567Z" fill="#FF6A00"/>
<path d="M41.0474 48.1366L39.5523 49.013L39.2945 48.8584L40.7896 47.9819L41.0474 48.1366Z" fill="#303033"/>
<path d="M39.5522 52.7765L39.2945 52.6219V48.8584L39.5522 49.0131V52.7765Z" fill="black"/>
<path d="M41.0474 51.9002L39.5523 52.7766V49.0132L41.0474 48.1367V51.9002Z" fill="#121214"/>
<path d="M52.1831 62.4686L57.0808 59.6331V57.3647L52.1831 60.2002V62.4686Z" fill="#121214"/>
<path d="M52.5954 61.3344L56.7197 58.9628V57.8286L52.5954 60.2001V61.3344Z" fill="#E6DAB0"/>
<path d="M52.5954 62.0046L56.7197 59.6331V58.9629L52.5954 61.3344V62.0046Z" fill="#FF8400"/>
<path d="M64.0921 55.6117L68.9897 52.7762V50.5078L64.0921 53.2917V55.6117Z" fill="#121214"/>
<path d="M64.5045 54.4774L68.6289 52.1059V50.9717L64.5045 53.3432V54.4774Z" fill="#E6DAB0"/>
<path d="M64.5045 55.0446L68.6289 52.673V52.106L64.5045 54.4775V55.0446Z" fill="#FF8400"/>
<path d="M54.8638 30.6079C54.8638 30.6079 53.8842 25.8134 48.3163 22.5654L30.1176 33.0825L36.665 41.1251L54.8638 30.6079Z" fill="#FF9D26"/>
<path d="M36.665 41.1251C36.665 41.1251 35.6855 36.3305 30.1176 33.0825V37.31L36.665 41.1251Z" fill="#BA6000"/>
</svg>
