<svg width="28" height="17" viewBox="0 0 28 17" fill="none" xmlns="http://www.w3.org/2000/svg">
<path d="M25.6263 0H1.44374C0.646383 0 0 0.646383 0 1.44374V15.5563C0 16.3536 0.646383 17 1.44374 17H25.6263C26.4237 17 27.0701 16.3536 27.0701 15.5563V1.44374C27.0701 0.646383 26.4237 0 25.6263 0Z" fill="#0E4595"/>
<path d="M10.0408 12.0638L11.2449 4.99805H13.1708L11.9658 12.0638H10.0408Z" fill="white"/>
<path d="M18.9237 5.15028C18.5421 5.00713 17.9443 4.85352 17.1976 4.85352C15.2946 4.85352 13.9541 5.81183 13.9427 7.18529C13.932 8.20057 14.8997 8.76694 15.6302 9.10492C16.3798 9.45124 16.6319 9.67213 16.6283 9.98138C16.6235 10.455 16.0297 10.6714 15.4761 10.6714C14.7052 10.6714 14.2957 10.5643 13.6633 10.3005L13.4151 10.1882L13.1448 11.7699C13.5946 11.9671 14.4264 12.138 15.2901 12.1469C17.3145 12.1469 18.6288 11.1995 18.6437 9.73288C18.651 8.92911 18.1379 8.3174 17.0268 7.81314C16.3536 7.48628 15.9413 7.26816 15.9457 6.93719C15.9457 6.6435 16.2946 6.32945 17.0486 6.32945C17.6784 6.31967 18.1346 6.457 18.49 6.60015L18.6626 6.68168L18.9237 5.15028Z" fill="white"/>
<path d="M23.8803 4.99805H22.3921C21.9311 4.99805 21.5861 5.12387 21.3837 5.58399L18.5234 12.0593H20.5458C20.5458 12.0593 20.8765 11.1886 20.9513 10.9975C21.1723 10.9975 23.1369 11.0005 23.4177 11.0005C23.4753 11.2478 23.6521 12.0593 23.6521 12.0593H25.4391L23.8803 4.99805ZM21.5192 9.56051C21.6785 9.15341 22.2865 7.58537 22.2865 7.58537C22.2751 7.60417 22.4446 7.17628 22.5419 6.911L22.6721 7.52018C22.6721 7.52018 23.0408 9.20679 23.1179 9.56047H21.5192V9.56051Z" fill="white"/>
<path d="M1.65595 4.99805L1.63135 5.1451C2.39259 5.32937 3.07253 5.59603 3.66781 5.9278L5.37667 12.0525L7.41433 12.0502L10.4463 4.99805H8.40627L6.52074 9.81638L6.31983 8.8372C6.31053 8.80732 6.30047 8.77732 6.29015 8.74732L5.63447 5.59458C5.51789 5.14716 5.17975 5.01364 4.76146 4.99805H1.65595Z" fill="white"/>
</svg>
